AmstelvarA2-Roman_opsz8_wdth85.ufo
<glyph name="exclam" format="2">
  <advance width="506"/>
  <unicode hex="0021"/>
  <outline>
    <contour>
      <point x="97" y="133" type="qcurve" smooth="yes"/>
      <point x="97" y="196"/>
      <point x="185" y="289"/>
      <point x="253" y="289" type="qcurve" smooth="yes"/>
      <point x="321" y="289"/>
      <point x="409" y="196"/>
      <point x="409" y="133" type="qcurve" smooth="yes"/>
      <point x="409" y="71"/>
      <point x="321" y="-22"/>
      <point x="253" y="-22" type="qcurve" smooth="yes"/>
      <point x="185" y="-22"/>
      <point x="97" y="71"/>
    </contour>
    <contour>
      <point x="142" y="1382" type="line" smooth="yes"/>
      <point x="138" y="1450"/>
      <point x="186" y="1546"/>
      <point x="251" y="1547" type="qcurve" smooth="yes"/>
      <point x="315" y="1548"/>
      <point x="368" y="1452"/>
      <point x="364" y="1383" type="qcurve" smooth="yes"/>
      <point x="352" y="1108" type="line"/>
      <point x="325" y="800" type="line"/>
      <point x="310" y="450" type="line"/>
      <point x="194" y="450" type="line"/>
      <point x="179" y="800" type="line"/>
      <point x="154" y="1108" type="line"/>
    </contour>
  </outline>
</glyph>
<glyph name="quotedbl" format="2">
  <advance width="827"/>
  <unicode hex="0022"/>
  <outline>
    <contour>
      <point x="156" y="964" type="line"/>
      <point x="79" y="1413" type="line"/>
      <point x="79" y="1464"/>
      <point x="146" y="1558"/>
      <point x="216" y="1558" type="qcurve" smooth="yes"/>
      <point x="285" y="1558"/>
      <point x="352" y="1464"/>
      <point x="352" y="1413" type="qcurve"/>
      <point x="274" y="964" type="line"/>
    </contour>
    <contour>
      <point x="551" y="964" type="line"/>
      <point x="475" y="1413" type="line"/>
      <point x="475" y="1464"/>
      <point x="542" y="1558"/>
      <point x="612" y="1558" type="qcurve" smooth="yes"/>
      <point x="681" y="1558"/>
      <point x="748" y="1464"/>
      <point x="748" y="1413" type="qcurve"/>
      <point x="670" y="964" type="line"/>
    </contour>
  </outline>
</glyph>
<glyph name="numbersign" format="2">
  <advance width="1211"/>
  <unicode hex="0023"/>
  <outline>
    <contour>
      <point x="53" y="483" type="line"/>
      <point x="53" y="638" type="line"/>
      <point x="1062" y="638" type="line"/>
      <point x="1062" y="483" type="line"/>
    </contour>
    <contour>
      <point x="148" y="843" type="line"/>
      <point x="148" y="998" type="line"/>
      <point x="1157" y="998" type="line"/>
      <point x="1157" y="843" type="line"/>
    </contour>
    <contour>
      <point x="93" y="11" type="line"/>
      <point x="650" y="1527" type="line"/>
      <point x="770" y="1493" type="line"/>
      <point x="214" y="-23" type="line"/>
    </contour>
    <contour>
      <point x="465" y="11" type="line"/>
      <point x="1022" y="1527" type="line"/>
      <point x="1144" y="1493" type="line"/>
      <point x="587" y="-23" type="line"/>
    </contour>
  </outline>
</glyph>
<glyph name="dollar" format="2">
  <advance width="989"/>
  <unicode hex="0024"/>
  <outline>
    <contour>
      <point x="37" y="272" type="qcurve"/>
      <point x="172" y="358" type="line"/>
      <point x="217" y="274"/>
      <point x="389" y="145"/>
      <point x="517" y="145" type="qcurve" smooth="yes"/>
      <point x="641" y="145"/>
      <point x="778" y="282"/>
      <point x="778" y="384" type="qcurve" smooth="yes"/>
      <point x="778" y="510"/>
      <point x="581" y="651"/>
      <point x="440" y="707" type="qcurve" smooth="yes"/>
      <point x="271" y="773"/>
      <point x="86" y="964"/>
      <point x="86" y="1121" type="qcurve" smooth="yes"/>
      <point x="86" y="1283"/>
      <point x="308" y="1501"/>
      <point x="494" y="1501" type="qcurve" smooth="yes"/>
      <point x="608" y="1501"/>
      <point x="809" y="1436"/>
      <point x="883" y="1372" type="qcurve"/>
      <point x="790" y="1253" type="line"/>
      <point x="742" y="1295"/>
      <point x="593" y="1354"/>
      <point x="494" y="1354" type="qcurve" smooth="yes"/>
      <point x="379" y="1354"/>
      <point x="258" y="1253"/>
      <point x="258" y="1163" type="qcurve" smooth="yes"/>
      <point x="258" y="1081"/>
      <point x="369" y="953"/>
      <point x="546" y="880" type="qcurve" smooth="yes"/>
      <point x="732" y="804"/>
      <point x="952" y="608"/>
      <point x="952" y="433" type="qcurve" smooth="yes"/>
      <point x="952" y="248"/>
      <point x="707" y="1"/>
      <point x="517" y="1" type="qcurve" smooth="yes"/>
      <point x="336" y="1"/>
      <point x="105" y="144"/>
    </contour>
    <contour>
      <point x="414" y="-190" type="line"/>
      <point x="414" y="52" type="line"/>
      <point x="434" y="52" type="line"/>
      <point x="434" y="812" type="line"/>
      <point x="578" y="770" type="line"/>
      <point x="578" y="52" type="line"/>
      <point x="600" y="52" type="line"/>
      <point x="600" y="-140" type="line"/>
    </contour>
    <contour>
      <point x="413" y="1610" type="line"/>
      <point x="599" y="1649" type="line"/>
      <point x="599" y="1418" type="line"/>
      <point x="578" y="1418" type="line"/>
      <point x="578" y="770" type="line"/>
      <point x="434" y="812" type="line"/>
      <point x="434" y="1418" type="line"/>
      <point x="413" y="1418" type="line"/>
    </contour>
  </outline>
</glyph>
<glyph name="ampersand" format="2">
  <advance width="1476"/>
  <unicode hex="0026"/>
  <outline>
    <contour>
      <point x="518" y="-28" type="qcurve" smooth="yes"/>
      <point x="250" y="-28"/>
      <point x="32" y="230"/>
      <point x="40" y="380" type="qcurve" smooth="yes"/>
      <point x="46" y="506"/>
      <point x="243" y="766"/>
      <point x="556" y="925" type="qcurve"/>
      <point x="643" y="965"/>
      <point x="753" y="1119"/>
      <point x="753" y="1209" type="qcurve" smooth="yes"/>
      <point x="753" y="1291"/>
      <point x="671" y="1398"/>
      <point x="591" y="1398" type="qcurve" smooth="yes"/>
      <point x="515" y="1398"/>
      <point x="419" y="1286"/>
      <point x="419" y="1196" type="qcurve" smooth="yes"/>
      <point x="419" y="1104"/>
      <point x="530" y="951"/>
      <point x="626" y="919" type="qcurve"/>
      <point x="1049" y="294" type="line" smooth="yes"/>
      <point x="1099" y="219"/>
      <point x="1189" y="120"/>
      <point x="1251" y="120" type="qcurve" smooth="yes"/>
      <point x="1301" y="120"/>
      <point x="1356" y="157"/>
      <point x="1382" y="192" type="qcurve"/>
      <point x="1467" y="113" type="line"/>
      <point x="1425" y="42"/>
      <point x="1307" y="-37"/>
      <point x="1214" y="-38" type="qcurve" smooth="yes"/>
      <point x="1110" y="-39"/>
      <point x="974" y="43"/>
      <point x="885" y="177" type="qcurve" smooth="yes"/>
      <point x="463" y="811" type="line"/>
      <point x="366" y="857"/>
      <point x="217" y="1050"/>
      <point x="223" y="1181" type="qcurve" smooth="yes"/>
      <point x="230" y="1314"/>
      <point x="415" y="1516"/>
      <point x="573" y="1516" type="qcurve" smooth="yes"/>
      <point x="727" y="1516"/>
      <point x="904" y="1344"/>
      <point x="904" y="1201" type="qcurve" smooth="yes"/>
      <point x="904" y="1070"/>
      <point x="735" y="877"/>
      <point x="623" y="835" type="qcurve"/>
      <point x="432" y="715"/>
      <point x="279" y="519"/>
      <point x="275" y="403" type="qcurve" smooth="yes"/>
      <point x="270" y="276"/>
      <point x="421" y="130"/>
      <point x="568" y="130" type="qcurve" smooth="yes"/>
      <point x="802" y="130"/>
      <point x="1217" y="575"/>
      <point x="1339" y="873" type="qcurve"/>
      <point x="1469" y="858" type="line"/>
      <point x="1354" y="529"/>
      <point x="831" y="-28"/>
    </contour>
    <contour>
      <point x="961" y="847" type="line"/>
      <point x="988" y="907"/>
      <point x="1082" y="986"/>
      <point x="1127" y="986" type="qcurve" smooth="yes"/>
      <point x="1170" y="986"/>
      <point x="1291" y="931"/>
      <point x="1325" y="931" type="qcurve" smooth="yes"/>
      <point x="1353" y="931"/>
      <point x="1388" y="936"/>
      <point x="1414" y="955" type="qcurve"/>
      <point x="1492" y="869" type="line"/>
      <point x="1432" y="770"/>
      <point x="1361" y="748"/>
      <point x="1322" y="748" type="qcurve" smooth="yes"/>
      <point x="1301" y="748"/>
      <point x="1190" y="825"/>
      <point x="1153" y="825" type="qcurve" smooth="yes"/>
      <point x="1113" y="825"/>
      <point x="1049" y="800"/>
      <point x="1024" y="775" type="qcurve"/>
    </contour>
  </outline>
</glyph>
<glyph name="quotesingle" format="2">
  <advance width="477"/>
  <unicode hex="0027"/>
  <outline>
    <contour>
      <point x="186" y="964" type="line"/>
      <point x="102" y="1413" type="line"/>
      <point x="102" y="1464"/>
      <point x="169" y="1558"/>
      <point x="239" y="1558" type="qcurve" smooth="yes"/>
      <point x="308" y="1558"/>
      <point x="375" y="1464"/>
      <point x="375" y="1413" type="qcurve"/>
      <point x="289" y="964" type="line"/>
    </contour>
  </outline>
</glyph>
<glyph name="parenleft" format="2">
  <advance width="647"/>
  <unicode hex="0028"/>
  <outline>
    <contour>
      <point x="68" y="521" type="qcurve" smooth="yes"/>
      <point x="68" y="816"/>
      <point x="370" y="1389"/>
      <point x="539" y="1526" type="qcurve"/>
      <point x="627" y="1436" type="line"/>
      <point x="496" y="1285"/>
      <point x="293" y="794"/>
      <point x="293" y="521" type="qcurve" smooth="yes"/>
      <point x="293" y="248"/>
      <point x="491" y="-248"/>
      <point x="627" y="-395" type="qcurve"/>
      <point x="539" y="-485" type="line"/>
      <point x="370" y="-348"/>
      <point x="68" y="213"/>
    </contour>
  </outline>
</glyph>
<glyph name="asterisk" format="2">
  <advance width="860"/>
  <unicode hex="002A"/>
  <outline>
    <contour>
      <point x="430" y="664" type="qcurve" smooth="yes"/>
      <point x="369" y="664"/>
      <point x="317" y="749"/>
      <point x="332" y="801" type="qcurve" smooth="yes"/>
      <point x="409" y="1068" type="line"/>
      <point x="405" y="1072" type="line"/>
      <point x="211" y="871" type="line" smooth="yes"/>
      <point x="181" y="839"/>
      <point x="75" y="831"/>
      <point x="43" y="888" type="qcurve" smooth="yes"/>
      <point x="10" y="944"/>
      <point x="70" y="1030"/>
      <point x="113" y="1039" type="qcurve" smooth="yes"/>
      <point x="382" y="1106" type="line"/>
      <point x="381" y="1113" type="line"/>
      <point x="114" y="1182" type="line" smooth="yes"/>
      <point x="70" y="1192"/>
      <point x="10" y="1278"/>
      <point x="43" y="1335" type="qcurve" smooth="yes"/>
      <point x="75" y="1391"/>
      <point x="180" y="1383"/>
      <point x="211" y="1351" type="qcurve" smooth="yes"/>
      <point x="403" y="1150" type="line"/>
      <point x="408" y="1154" type="line"/>
      <point x="332" y="1422" type="line" smooth="yes"/>
      <point x="316" y="1476"/>
      <point x="371" y="1558"/>
      <point x="430" y="1558" type="qcurve" smooth="yes"/>
      <point x="491" y="1558"/>
      <point x="543" y="1474"/>
      <point x="528" y="1422" type="qcurve" smooth="yes"/>
      <point x="451" y="1154" type="line"/>
      <point x="456" y="1150" type="line"/>
      <point x="650" y="1351" type="line" smooth="yes"/>
      <point x="680" y="1383"/>
      <point x="785" y="1391"/>
      <point x="817" y="1334" type="qcurve" smooth="yes"/>
      <point x="851" y="1278"/>
      <point x="792" y="1192"/>
      <point x="747" y="1182" type="qcurve" smooth="yes"/>
      <point x="478" y="1116" type="line"/>
      <point x="479" y="1109" type="line"/>
      <point x="746" y="1039" type="line" smooth="yes"/>
      <point x="791" y="1029"/>
      <point x="850" y="943"/>
      <point x="817" y="886" type="qcurve" smooth="yes"/>
      <point x="785" y="830"/>
      <point x="679" y="838"/>
      <point x="650" y="871" type="qcurve" smooth="yes"/>
      <point x="457" y="1072" type="line"/>
      <point x="453" y="1068" type="line"/>
      <point x="528" y="801" type="line" smooth="yes"/>
      <point x="543" y="750"/>
      <point x="495" y="664"/>
    </contour>
  </outline>
</glyph>
<glyph name="plus" format="2">
  <advance width="910"/>
  <unicode hex="002B"/>
  <outline>
    <contour>
      <point x="47" y="547" type="line"/>
      <point x="47" y="716" type="line"/>
      <point x="863" y="716" type="line"/>
      <point x="863" y="547" type="line"/>
    </contour>
    <contour>
      <point x="366" y="225" type="line"/>
      <point x="366" y="1039" type="line"/>
      <point x="544" y="1039" type="line"/>
      <point x="544" y="225" type="line"/>
    </contour>
  </outline>
</glyph>
<glyph name="comma" format="2">
  <advance width="498"/>
  <unicode hex="002C"/>
  <outline>
    <contour>
      <point x="85" y="-212" type="line"/>
      <point x="123" y="-184"/>
      <point x="224" y="-79"/>
      <point x="242" y="-11" type="qcurve"/>
      <point x="171" y="-5"/>
      <point x="95" y="70"/>
      <point x="95" y="132" type="qcurve" smooth="yes"/>
      <point x="95" y="195"/>
      <point x="183" y="289"/>
      <point x="252" y="289" type="qcurve" smooth="yes"/>
      <point x="316" y="289"/>
      <point x="408" y="206"/>
      <point x="408" y="123" type="qcurve" smooth="yes"/>
      <point x="408" y="-8"/>
      <point x="240" y="-219"/>
      <point x="142" y="-277" type="qcurve"/>
    </contour>
  </outline>
</glyph>
<glyph name="hyphen" format="2">
  <advance width="659"/>
  <unicode hex="002D"/>
  <outline>
    <contour>
      <point x="51" y="536" type="line"/>
      <point x="51" y="728" type="line"/>
      <point x="330" y="723" type="line"/>
      <point x="608" y="728" type="line"/>
      <point x="608" y="536" type="line"/>
      <point x="330" y="541" type="line"/>
    </contour>
  </outline>
</glyph>
<glyph name="period" format="2">
  <advance width="493"/>
  <unicode hex="002E"/>
  <outline>
    <contour>
      <point x="91" y="133" type="qcurve" smooth="yes"/>
      <point x="91" y="196"/>
      <point x="178" y="289"/>
      <point x="246" y="289" type="qcurve" smooth="yes"/>
      <point x="315" y="289"/>
      <point x="402" y="196"/>
      <point x="402" y="133" type="qcurve" smooth="yes"/>
      <point x="402" y="71"/>
      <point x="315" y="-22"/>
      <point x="246" y="-22" type="qcurve"/>
      <point x="178" y="-22"/>
      <point x="91" y="71"/>
    </contour>
  </outline>
</glyph>
<glyph name="slash" format="2">
  <advance width="583"/>
  <unicode hex="002F"/>
  <outline>
    <contour>
      <point x="-70" y="-116" type="line"/>
      <point x="472" y="1557" type="line"/>
      <point x="629" y="1516" type="line"/>
      <point x="87" y="-157" type="line"/>
    </contour>
  </outline>
</glyph>
<glyph name="zero" format="2">
  <advance width="1143"/>
  <unicode hex="0030"/>
  <outline>
    <contour>
      <point x="47" y="749" type="qcurve" smooth="yes"/>
      <point x="47" y="1095"/>
      <point x="344" y="1526"/>
      <point x="572" y="1526" type="qcurve" smooth="yes"/>
      <point x="806" y="1526"/>
      <point x="1095" y="1101"/>
      <point x="1095" y="757" type="qcurve" smooth="yes"/>
      <point x="1095" y="434"/>
      <point x="811" y="-22"/>
      <point x="577" y="-22" type="qcurve" smooth="yes"/>
      <point x="341" y="-22"/>
      <point x="47" y="401"/>
    </contour>
    <contour>
      <point x="271" y="775" type="qcurve" smooth="yes"/>
      <point x="271" y="503"/>
      <point x="436" y="138"/>
      <point x="570" y="138" type="qcurve" smooth="yes"/>
      <point x="716" y="138"/>
      <point x="870" y="470"/>
      <point x="872" y="749" type="qcurve" smooth="yes"/>
      <point x="874" y="1011"/>
      <point x="709" y="1351"/>
      <point x="573" y="1351" type="qcurve" smooth="yes"/>
      <point x="426" y="1351"/>
      <point x="270" y="1043"/>
    </contour>
  </outline>
</glyph>
<glyph name="one" format="2">
  <advance width="827"/>
  <unicode hex="0031"/>
  <outline>
    <contour>
      <point x="56" y="0" type="line"/>
      <point x="56" y="142" type="line"/>
      <point x="312" y="177" type="line"/>
      <point x="312" y="756" type="line"/>
      <point x="310" y="1318" type="line"/>
      <point x="54" y="1352" type="line"/>
      <point x="54" y="1496" type="line"/>
      <point x="501" y="1519" type="line"/>
      <point x="533" y="1484" type="line"/>
      <point x="527" y="756" type="line"/>
      <point x="527" y="177" type="line"/>
      <point x="783" y="142" type="line"/>
      <point x="783" y="0" type="line"/>
    </contour>
  </outline>
</glyph>
<glyph name="two" format="2">
  <advance width="939"/>
  <unicode hex="0032"/>
  <outline>
    <contour>
      <point x="27" y="0" type="line"/>
      <point x="27" y="155" type="line"/>
      <point x="52" y="288"/>
      <point x="215" y="537"/>
      <point x="374" y="668" type="qcurve" smooth="yes"/>
      <point x="529" y="801"/>
      <point x="657" y="984"/>
      <point x="657" y="1112" type="qcurve" smooth="yes"/>
      <point x="657" y="1222"/>
      <point x="535" y="1350"/>
      <point x="438" y="1350" type="qcurve" smooth="yes"/>
      <point x="330" y="1350"/>
      <point x="165" y="1264"/>
      <point x="93" y="1174" type="qcurve"/>
      <point x="17" y="1300" type="line"/>
      <point x="86" y="1397"/>
      <point x="301" y="1526"/>
      <point x="476" y="1526" type="qcurve" smooth="yes"/>
      <point x="660" y="1526"/>
      <point x="886" y="1323"/>
      <point x="886" y="1142" type="qcurve" smooth="yes"/>
      <point x="886" y="937"/>
      <point x="634" y="655"/>
      <point x="510" y="577" type="qcurve" smooth="yes"/>
      <point x="384" y="493"/>
      <point x="235" y="300"/>
      <point x="213" y="210" type="qcurve"/>
      <point x="223" y="199" type="line"/>
      <point x="929" y="199" type="line"/>
      <point x="929" y="0" type="line"/>
    </contour>
  </outline>
</glyph>
<glyph name="three" format="2">
  <advance width="943"/>
  <unicode hex="0033"/>
  <outline>
    <contour>
      <point x="2" y="143" type="qcurve"/>
      <point x="73" y="279" type="line"/>
      <point x="150" y="207"/>
      <point x="295" y="147"/>
      <point x="400" y="147" type="qcurve" smooth="yes"/>
      <point x="515" y="147"/>
      <point x="668" y="281"/>
      <point x="668" y="421" type="qcurve" smooth="yes"/>
      <point x="668" y="575"/>
      <point x="449" y="718"/>
      <point x="280" y="718" type="qcurve" smooth="yes"/>
      <point x="240" y="718" type="line"/>
      <point x="206" y="838" type="line"/>
      <point x="305" y="843" type="line" smooth="yes"/>
      <point x="466" y="850"/>
      <point x="639" y="1000"/>
      <point x="639" y="1141" type="qcurve" smooth="yes"/>
      <point x="639" y="1248"/>
      <point x="523" y="1362"/>
      <point x="434" y="1362" type="qcurve" smooth="yes"/>
      <point x="337" y="1362"/>
      <point x="197" y="1283"/>
      <point x="125" y="1208" type="qcurve"/>
      <point x="68" y="1346" type="line"/>
      <point x="141" y="1430"/>
      <point x="335" y="1526"/>
      <point x="471" y="1526" type="qcurve" smooth="yes"/>
      <point x="652" y="1526"/>
      <point x="861" y="1337"/>
      <point x="861" y="1189" type="qcurve" smooth="yes"/>
      <point x="861" y="1031"/>
      <point x="685" y="847"/>
      <point x="524" y="803" type="qcurve"/>
      <point x="524" y="796" type="line"/>
      <point x="685" y="769"/>
      <point x="896" y="555"/>
      <point x="896" y="382" type="qcurve" smooth="yes"/>
      <point x="896" y="190"/>
      <point x="635" y="-22"/>
      <point x="425" y="-22" type="qcurve" smooth="yes"/>
      <point x="302" y="-22"/>
      <point x="76" y="65"/>
    </contour>
  </outline>
</glyph>
<glyph name="four" format="2">
  <advance width="1121"/>
  <unicode hex="0034"/>
  <outline>
    <contour>
      <point x="32" y="556" type="line"/>
      <point x="694" y="1553" type="line"/>
      <point x="796" y="1516" type="line"/>
      <point x="856" y="1500" type="line"/>
      <point x="850" y="493" type="line"/>
      <point x="850" y="177" type="line"/>
      <point x="1076" y="142" type="line"/>
      <point x="1076" y="0" type="line"/>
      <point x="405" y="0" type="line"/>
      <point x="405" y="142" type="line"/>
      <point x="641" y="177" type="line"/>
      <point x="650" y="491" type="line"/>
      <point x="650" y="1256" type="line"/>
      <point x="236" y="614" type="line"/>
      <point x="242" y="604" type="line"/>
      <point x="1093" y="578" type="line"/>
      <point x="1093" y="434" type="line"/>
      <point x="52" y="430" type="line"/>
    </contour>
  </outline>
</glyph>
<glyph name="five" format="2">
  <advance width="968"/>
  <unicode hex="0035"/>
  <outline>
    <contour>
      <point x="1" y="143" type="qcurve"/>
      <point x="70" y="276" type="line"/>
      <point x="122" y="231"/>
      <point x="289" y="149"/>
      <point x="411" y="149" type="qcurve" smooth="yes"/>
      <point x="535" y="149"/>
      <point x="708" y="296"/>
      <point x="708" y="454" type="qcurve" smooth="yes"/>
      <point x="708" y="608"/>
      <point x="448" y="776"/>
      <point x="256" y="776" type="qcurve" smooth="yes"/>
      <point x="156" y="776" type="line"/>
      <point x="113" y="853" type="line"/>
      <point x="181" y="1473" type="line"/>
      <point x="208" y="1506" type="line"/>
      <point x="847" y="1506" type="line"/>
      <point x="833" y="1298" type="line"/>
      <point x="313" y="1298" type="line"/>
      <point x="304" y="1287" type="line"/>
      <point x="258" y="908" type="line"/>
      <point x="382" y="950" type="line"/>
      <point x="624" y="950"/>
      <point x="931" y="723"/>
      <point x="931" y="504" type="qcurve" smooth="yes"/>
      <point x="931" y="262"/>
      <point x="644" y="-22"/>
      <point x="446" y="-22" type="qcurve" smooth="yes"/>
      <point x="292" y="-22"/>
      <point x="66" y="73"/>
    </contour>
  </outline>
</glyph>
<glyph name="six" format="2">
  <advance width="1115"/>
  <unicode hex="0036"/>
  <outline>
    <contour>
      <point x="47" y="621" type="qcurve" smooth="yes"/>
      <point x="47" y="951"/>
      <point x="464" y="1467"/>
      <point x="812" y="1585" type="qcurve"/>
      <point x="864" y="1455" type="line"/>
      <point x="594" y="1349"/>
      <point x="269" y="958"/>
      <point x="269" y="618" type="qcurve" smooth="yes"/>
      <point x="269" y="377"/>
      <point x="451" y="125"/>
      <point x="598" y="125" type="qcurve" smooth="yes"/>
      <point x="707" y="125"/>
      <point x="850" y="311"/>
      <point x="850" y="466" type="qcurve" smooth="yes"/>
      <point x="850" y="622"/>
      <point x="700" y="776"/>
      <point x="594" y="776" type="qcurve" smooth="yes"/>
      <point x="533" y="776"/>
      <point x="458" y="759"/>
      <point x="428" y="748" type="qcurve"/>
      <point x="396" y="836" type="line"/>
      <point x="434" y="873"/>
      <point x="572" y="930"/>
      <point x="655" y="930" type="qcurve" smooth="yes"/>
      <point x="847" y="930"/>
      <point x="1081" y="689"/>
      <point x="1081" y="519" type="qcurve" smooth="yes"/>
      <point x="1081" y="259"/>
      <point x="812" y="-22"/>
      <point x="601" y="-22" type="qcurve" smooth="yes"/>
      <point x="352" y="-22"/>
      <point x="47" y="338"/>
    </contour>
  </outline>
</glyph>
<glyph name="seven" format="2">
  <advance width="896"/>
  <unicode hex="0037"/>
  <outline>
    <contour>
      <point x="16" y="1022" type="line"/>
      <point x="43" y="1506" type="line"/>
      <point x="916" y="1506" type="line"/>
      <point x="916" y="1396" type="line"/>
      <point x="612" y="628" type="line"/>
      <point x="444" y="-13" type="line"/>
      <point x="224" y="-13" type="line"/>
      <point x="224" y="60" type="line"/>
      <point x="470" y="672" type="line"/>
      <point x="699" y="1282" type="line"/>
      <point x="672" y="1304" type="line"/>
      <point x="208" y="1304" type="line"/>
      <point x="170" y="1022" type="line"/>
    </contour>
  </outline>
</glyph>
<glyph name="eight" format="2">
  <advance width="966"/>
  <unicode hex="0038"/>
  <outline>
    <contour>
      <point x="29" y="393" type="qcurve" smooth="yes"/>
      <point x="29" y="586"/>
      <point x="262" y="810"/>
      <point x="374" y="854" type="qcurve"/>
      <point x="458" y="787" type="line"/>
      <point x="352" y="737"/>
      <point x="196" y="563"/>
      <point x="196" y="422" type="qcurve" smooth="yes"/>
      <point x="196" y="291"/>
      <point x="359" y="119"/>
      <point x="495" y="119" type="qcurve" smooth="yes"/>
      <point x="613" y="119"/>
      <point x="760" y="264"/>
      <point x="760" y="392" type="qcurve" smooth="yes"/>
      <point x="760" y="504"/>
      <point x="613" y="638"/>
      <point x="454" y="722" type="qcurve" smooth="yes"/>
      <point x="274" y="817"/>
      <point x="108" y="1008"/>
      <point x="108" y="1164" type="qcurve" smooth="yes"/>
      <point x="108" y="1330"/>
      <point x="352" y="1536"/>
      <point x="504" y="1536" type="qcurve" smooth="yes"/>
      <point x="659" y="1536"/>
      <point x="854" y="1355"/>
      <point x="854" y="1222" type="qcurve" smooth="yes"/>
      <point x="854" y="1090"/>
      <point x="705" y="892"/>
      <point x="583" y="810" type="qcurve"/>
      <point x="489" y="879" type="line"/>
      <point x="584" y="945"/>
      <point x="688" y="1082"/>
      <point x="688" y="1187" type="qcurve" smooth="yes"/>
      <point x="688" y="1286"/>
      <point x="576" y="1408"/>
      <point x="491" y="1408" type="qcurve" smooth="yes"/>
      <point x="403" y="1408"/>
      <point x="280" y="1280"/>
      <point x="280" y="1192" type="qcurve" smooth="yes"/>
      <point x="280" y="1105"/>
      <point x="389" y="977"/>
      <point x="574" y="888" type="qcurve" smooth="yes"/>
      <point x="756" y="802"/>
      <point x="944" y="593"/>
      <point x="944" y="420" type="qcurve" smooth="yes"/>
      <point x="944" y="234"/>
      <point x="686" y="-22"/>
      <point x="488" y="-22" type="qcurve" smooth="yes"/>
      <point x="273" y="-22"/>
      <point x="29" y="228"/>
    </contour>
  </outline>
</glyph>
<glyph name="nine" format="2">
  <advance width="1117"/>
  <unicode hex="0039"/>
  <outline>
    <contour>
      <point x="36" y="1006" type="qcurve" smooth="yes"/>
      <point x="36" y="1239"/>
      <point x="301" y="1525"/>
      <point x="515" y="1525" type="qcurve" smooth="yes"/>
      <point x="769" y="1525"/>
      <point x="1072" y="1162"/>
      <point x="1072" y="877" type="qcurve" smooth="yes"/>
      <point x="1072" y="548"/>
      <point x="652" y="33"/>
      <point x="305" y="-85" type="qcurve"/>
      <point x="253" y="45" type="line"/>
      <point x="523" y="151"/>
      <point x="840" y="540"/>
      <point x="840" y="880" type="qcurve" smooth="yes"/>
      <point x="840" y="1122"/>
      <point x="653" y="1378"/>
      <point x="524" y="1378" type="qcurve" smooth="yes"/>
      <point x="386" y="1378"/>
      <point x="259" y="1184"/>
      <point x="259" y="1033" type="qcurve" smooth="yes"/>
      <point x="259" y="878"/>
      <point x="412" y="722"/>
      <point x="548" y="722" type="qcurve" smooth="yes"/>
      <point x="583" y="722"/>
      <point x="659" y="737"/>
      <point x="690" y="748" type="qcurve"/>
      <point x="722" y="662" type="line"/>
      <point x="682" y="622"/>
      <point x="561" y="569"/>
      <point x="471" y="569" type="qcurve" smooth="yes"/>
      <point x="271" y="569"/>
      <point x="36" y="809"/>
    </contour>
  </outline>
</glyph>
<glyph name="colon" format="2">
  <advance width="537"/>
  <unicode hex="003A"/>
  <outline>
    <contour>
      <point x="114" y="132" type="qcurve" smooth="yes"/>
      <point x="114" y="194"/>
      <point x="201" y="287"/>
      <point x="269" y="287" type="qcurve" smooth="yes"/>
      <point x="336" y="287"/>
      <point x="423" y="194"/>
      <point x="423" y="132" type="qcurve" smooth="yes"/>
      <point x="423" y="71"/>
      <point x="336" y="-22"/>
      <point x="269" y="-22" type="qcurve" smooth="yes"/>
      <point x="201" y="-22"/>
      <point x="114" y="71"/>
    </contour>
    <contour>
      <point x="114" y="883" type="qcurve" smooth="yes"/>
      <point x="114" y="946"/>
      <point x="201" y="1038"/>
      <point x="269" y="1038" type="qcurve" smooth="yes"/>
      <point x="336" y="1038"/>
      <point x="423" y="946"/>
      <point x="423" y="883" type="qcurve" smooth="yes"/>
      <point x="423" y="822"/>
      <point x="336" y="730"/>
      <point x="269" y="730" type="qcurve" smooth="yes"/>
      <point x="201" y="730"/>
      <point x="114" y="822"/>
    </contour>
  </outline>
</glyph>
<glyph name="semicolon" format="2">
  <advance width="543"/>
  <unicode hex="003B"/>
  <outline>
    <contour>
      <point x="112" y="-218" type="line"/>
      <point x="152" y="-189"/>
      <point x="252" y="-79"/>
      <point x="270" y="-11" type="qcurve"/>
      <point x="197" y="-9"/>
      <point x="116" y="71"/>
      <point x="116" y="132" type="qcurve" smooth="yes"/>
      <point x="116" y="195"/>
      <point x="204" y="288"/>
      <point x="273" y="288" type="qcurve" smooth="yes"/>
      <point x="337" y="288"/>
      <point x="429" y="206"/>
      <point x="429" y="122" type="qcurve" smooth="yes"/>
      <point x="429" y="-8"/>
      <point x="262" y="-219"/>
      <point x="164" y="-277" type="qcurve"/>
    </contour>
    <contour>
      <point x="118" y="883" type="qcurve" smooth="yes"/>
      <point x="118" y="946"/>
      <point x="205" y="1038"/>
      <point x="273" y="1038" type="qcurve" smooth="yes"/>
      <point x="340" y="1038"/>
      <point x="428" y="946"/>
      <point x="428" y="883" type="qcurve" smooth="yes"/>
      <point x="428" y="822"/>
      <point x="340" y="730"/>
      <point x="273" y="730" type="qcurve" smooth="yes"/>
      <point x="205" y="730"/>
      <point x="118" y="822"/>
    </contour>
  </outline>
</glyph>
<glyph name="less" format="2">
  <advance width="847"/>
  <unicode hex="003C"/>
  <outline>
    <contour>
      <point x="134" y="634" type="qcurve"/>
      <point x="137" y="638"/>
      <point x="540" y="1014"/>
      <point x="594" y="1066" type="qcurve" smooth="yes"/>
      <point x="664" y="1130"/>
      <point x="767" y="1027"/>
      <point x="700" y="966" type="qcurve" smooth="yes"/>
      <point x="599" y="833"/>
      <point x="397" y="637"/>
      <point x="393" y="637" type="qcurve"/>
      <point x="397" y="637"/>
      <point x="605" y="442"/>
      <point x="704" y="313" type="qcurve" smooth="yes"/>
      <point x="771" y="254"/>
      <point x="669" y="148"/>
      <point x="601" y="212" type="qcurve" smooth="yes"/>
      <point x="546" y="267"/>
      <point x="136" y="630"/>
    </contour>
  </outline>
</glyph>
<glyph name="equal" format="2">
  <advance width="885"/>
  <unicode hex="003D"/>
  <outline>
    <contour>
      <point x="69" y="325" type="line"/>
      <point x="69" y="515" type="line"/>
      <point x="441" y="511" type="line"/>
      <point x="816" y="515" type="line"/>
      <point x="816" y="325" type="line"/>
      <point x="441" y="329" type="line"/>
    </contour>
    <contour>
      <point x="69" y="727" type="line"/>
      <point x="69" y="917" type="line"/>
      <point x="441" y="913" type="line"/>
      <point x="816" y="917" type="line"/>
      <point x="816" y="727" type="line"/>
      <point x="441" y="731" type="line"/>
    </contour>
  </outline>
</glyph>
<glyph name="greater" format="2">
  <advance width="816"/>
  <unicode hex="003E"/>
  <outline>
    <contour>
      <point x="138" y="304" type="qcurve" smooth="yes"/>
      <point x="243" y="437"/>
      <point x="450" y="637"/>
      <point x="454" y="637" type="qcurve"/>
      <point x="450" y="637"/>
      <point x="246" y="829"/>
      <point x="143" y="959" type="qcurve" smooth="yes"/>
      <point x="80" y="1019"/>
      <point x="182" y="1124"/>
      <point x="251" y="1059" type="qcurve" smooth="yes"/>
      <point x="305" y="1005"/>
      <point x="710" y="642"/>
      <point x="713" y="638" type="qcurve"/>
      <point x="710" y="634"/>
      <point x="302" y="259"/>
      <point x="247" y="205" type="qcurve" smooth="yes"/>
      <point x="178" y="141"/>
      <point x="76" y="245"/>
    </contour>
  </outline>
</glyph>
<glyph name="question" format="2">
  <advance width="908"/>
  <unicode hex="003F"/>
  <outline>
    <contour>
      <point x="227" y="133" type="qcurve" smooth="yes"/>
      <point x="227" y="196"/>
      <point x="314" y="289"/>
      <point x="383" y="289" type="qcurve" smooth="yes"/>
      <point x="451" y="289"/>
      <point x="538" y="196"/>
      <point x="538" y="133" type="qcurve" smooth="yes"/>
      <point x="538" y="71"/>
      <point x="451" y="-22"/>
      <point x="383" y="-22" type="qcurve" smooth="yes"/>
      <point x="314" y="-22"/>
      <point x="227" y="71"/>
    </contour>
    <contour>
      <point x="23" y="1217" type="qcurve" smooth="yes"/>
      <point x="23" y="1368"/>
      <point x="247" y="1540"/>
      <point x="449" y="1540" type="qcurve" smooth="yes"/>
      <point x="653" y="1540"/>
      <point x="892" y="1345"/>
      <point x="892" y="1163" type="qcurve" smooth="yes"/>
      <point x="892" y="981"/>
      <point x="693" y="792"/>
      <point x="617" y="754" type="qcurve" smooth="yes"/>
      <point x="548" y="719"/>
      <point x="440" y="611"/>
      <point x="440" y="531" type="qcurve" smooth="yes"/>
      <point x="440" y="447" type="line"/>
      <point x="306" y="447" type="line"/>
      <point x="291" y="526" type="line" smooth="yes"/>
      <point x="277" y="601"/>
      <point x="362" y="759"/>
      <point x="464" y="824" type="qcurve" smooth="yes"/>
      <point x="547" y="877"/>
      <point x="677" y="1010"/>
      <point x="677" y="1142" type="qcurve" smooth="yes"/>
      <point x="677" y="1271"/>
      <point x="534" y="1410"/>
      <point x="417" y="1410" type="qcurve" smooth="yes"/>
      <point x="308" y="1410"/>
      <point x="185" y="1323"/>
      <point x="185" y="1270" type="qcurve" smooth="yes"/>
      <point x="185" y="1239"/>
      <point x="309" y="1180"/>
      <point x="311" y="1128" type="qcurve" smooth="yes"/>
      <point x="314" y="1086"/>
      <point x="248" y="1018"/>
      <point x="184" y="1018" type="qcurve" smooth="yes"/>
      <point x="113" y="1018"/>
      <point x="23" y="1117"/>
    </contour>
  </outline>
</glyph>
<glyph name="at" format="2">
  <advance width="1570"/>
  <unicode hex="0040"/>
  <outline>
    <contour>
      <point x="51" y="725" type="qcurve" smooth="yes"/>
      <point x="51" y="1058"/>
      <point x="458" y="1520"/>
      <point x="803" y="1520" type="qcurve" smooth="yes"/>
      <point x="1129" y="1520"/>
      <point x="1532" y="1157"/>
      <point x="1532" y="863" type="qcurve" smooth="yes"/>
      <point x="1532" y="630"/>
      <point x="1298" y="349"/>
      <point x="1155" y="349" type="qcurve" smooth="yes"/>
      <point x="1074" y="349"/>
      <point x="963" y="400"/>
      <point x="944" y="461" type="qcurve"/>
      <point x="906" y="400"/>
      <point x="760" y="317"/>
      <point x="675" y="317" type="qcurve" smooth="yes"/>
      <point x="574" y="317"/>
      <point x="442" y="450"/>
      <point x="442" y="544" type="qcurve" smooth="yes"/>
      <point x="442" y="662"/>
      <point x="700" y="829"/>
      <point x="980" y="871" type="qcurve"/>
      <point x="988" y="790" type="line"/>
      <point x="807" y="760"/>
      <point x="632" y="667"/>
      <point x="632" y="561" type="qcurve" smooth="yes"/>
      <point x="632" y="496"/>
      <point x="698" y="437"/>
      <point x="744" y="437" type="qcurve" smooth="yes"/>
      <point x="796" y="437"/>
      <point x="899" y="507"/>
      <point x="921" y="557" type="qcurve"/>
      <point x="923" y="863" type="line" smooth="yes"/>
      <point x="923" y="1018"/>
      <point x="846" y="1112"/>
      <point x="782" y="1112" type="qcurve" smooth="yes"/>
      <point x="724" y="1112"/>
      <point x="657" y="1074"/>
      <point x="635" y="1046" type="qcurve"/>
      <point x="654" y="1027"/>
      <point x="677" y="987"/>
      <point x="679" y="970" type="qcurve" smooth="yes"/>
      <point x="687" y="933"/>
      <point x="642" y="880"/>
      <point x="594" y="880" type="qcurve" smooth="yes"/>
      <point x="549" y="880"/>
      <point x="495" y="950"/>
      <point x="495" y="1009" type="qcurve" smooth="yes"/>
      <point x="495" y="1092"/>
      <point x="669" y="1213"/>
      <point x="795" y="1213" type="qcurve" smooth="yes"/>
      <point x="944" y="1213"/>
      <point x="1101" y="1042"/>
      <point x="1099" y="854" type="qcurve" smooth="yes"/>
      <point x="1103" y="489" type="line" smooth="yes"/>
      <point x="1103" y="472"/>
      <point x="1118" y="460"/>
      <point x="1133" y="460" type="qcurve" smooth="yes"/>
      <point x="1247" y="460"/>
      <point x="1393" y="661"/>
      <point x="1393" y="858" type="qcurve" smooth="yes"/>
      <point x="1393" y="1092"/>
      <point x="1088" y="1384"/>
      <point x="804" y="1384" type="qcurve" smooth="yes"/>
      <point x="517" y="1384"/>
      <point x="199" y="1023"/>
      <point x="199" y="737" type="qcurve" smooth="yes"/>
      <point x="199" y="471"/>
      <point x="532" y="99"/>
      <point x="798" y="99" type="qcurve" smooth="yes"/>
      <point x="922" y="99"/>
      <point x="1089" y="163"/>
      <point x="1129" y="195" type="qcurve"/>
      <point x="1195" y="108" type="line"/>
      <point x="1142" y="57"/>
      <point x="934" y="-30"/>
      <point x="793" y="-30" type="qcurve" smooth="yes"/>
      <point x="473" y="-30"/>
      <point x="51" y="399"/>
    </contour>
  </outline>
</glyph>
<glyph name="A" format="2">
  <advance width="1469"/>
  <unicode hex="0041"/>
  <anchor x="713" y="0" name="bottom"/>
  <anchor x="1334" y="0" name="ogonek"/>
  <anchor x="430" y="1500" name="tonos"/>
  <anchor x="723" y="1500" name="top"/>
  <outline>
    <contour>
      <point x="-9" y="0" type="line"/>
      <point x="-9" y="148" type="line"/>
      <point x="182" y="183" type="line"/>
      <point x="307" y="540" type="line"/>
      <point x="632" y="1508" type="line"/>
      <point x="831" y="1508" type="line"/>
      <point x="1159" y="567" type="line"/>
      <point x="1296" y="183" type="line"/>
      <point x="1479" y="148" type="line"/>
      <point x="1479" y="0" type="line"/>
      <point x="916" y="0" type="line"/>
      <point x="916" y="148" type="line"/>
      <point x="1063" y="179" type="line"/>
      <point x="959" y="513" type="line"/>
      <point x="752" y="1101" type="line"/>
      <point x="719" y="1215" type="line"/>
      <point x="710" y="1215" type="line"/>
      <point x="677" y="1101" type="line"/>
      <point x="461" y="503" type="line"/>
      <point x="367" y="178" type="line"/>
      <point x="513" y="148" type="line"/>
      <point x="513" y="0" type="line"/>
    </contour>
    <contour>
      <point x="717" y="575" type="line"/>
      <point x="1016" y="589" type="line"/>
      <point x="1076" y="433" type="line"/>
      <point x="717" y="433" type="line"/>
    </contour>
    <contour>
      <point x="363" y="433" type="line"/>
      <point x="421" y="588" type="line"/>
      <point x="717" y="575" type="line"/>
      <point x="717" y="433" type="line"/>
    </contour>
  </outline>
</glyph>
<glyph name="B" format="2">
  <advance width="1214"/>
  <unicode hex="0042"/>
  <anchor x="610" y="0" name="bottom"/>
  <anchor x="610" y="1500" name="top"/>
  <outline>
    <contour>
      <point x="70" y="0" type="line"/>
      <point x="70" y="148" type="line"/>
      <point x="260" y="184" type="line"/>
      <point x="262" y="784" type="line"/>
      <point x="260" y="1304" type="line"/>
      <point x="70" y="1338" type="line"/>
      <point x="70" y="1500" type="line"/>
      <point x="675" y="1500" type="line" smooth="yes"/>
      <point x="884" y="1500"/>
      <point x="1085" y="1315"/>
      <point x="1085" y="1172" type="qcurve" smooth="yes"/>
      <point x="1085" y="1037"/>
      <point x="956" y="855"/>
      <point x="839" y="831" type="qcurve"/>
      <point x="839" y="821" type="line"/>
      <point x="979" y="795"/>
      <point x="1172" y="603"/>
      <point x="1172" y="433" type="qcurve" smooth="yes"/>
      <point x="1172" y="246"/>
      <point x="915" y="0"/>
      <point x="690" y="0" type="qcurve" smooth="yes"/>
    </contour>
    <contour>
      <point x="480" y="164" type="line"/>
      <point x="513" y="144" type="line"/>
      <point x="631" y="144" type="line" smooth="yes"/>
      <point x="792" y="144"/>
      <point x="944" y="288"/>
      <point x="944" y="444" type="qcurve" smooth="yes"/>
      <point x="944" y="577"/>
      <point x="812" y="719"/>
      <point x="688" y="719" type="qcurve" smooth="yes"/>
      <point x="488" y="719" type="line"/>
      <point x="480" y="705" type="line"/>
    </contour>
    <contour>
      <point x="479" y="874" type="line"/>
      <point x="488" y="860" type="line"/>
      <point x="622" y="860" type="line" smooth="yes"/>
      <point x="745" y="860"/>
      <point x="870" y="990"/>
      <point x="870" y="1118" type="qcurve" smooth="yes"/>
      <point x="870" y="1235"/>
      <point x="748" y="1342"/>
      <point x="630" y="1342" type="qcurve" smooth="yes"/>
      <point x="511" y="1342" type="line"/>
      <point x="482" y="1324" type="line"/>
    </contour>
  </outline>
</glyph>
<glyph name="C" format="2">
  <advance width="1346"/>
  <unicode hex="0043"/>
  <anchor x="754" y="0" name="bottom"/>
  <anchor x="756" y="1500" name="top"/>
  <outline>
    <contour>
      <point x="51" y="700" type="qcurve" smooth="yes"/>
      <point x="51" y="1050"/>
      <point x="422" y="1520"/>
      <point x="740" y="1520" type="qcurve" smooth="yes"/>
      <point x="857" y="1520"/>
      <point x="1024" y="1463"/>
      <point x="1076" y="1422" type="qcurve"/>
      <point x="1114" y="1500" type="line"/>
      <point x="1251" y="1500" type="line"/>
      <point x="1251" y="1007" type="line"/>
      <point x="1090" y="1007" type="line"/>
      <point x="1057" y="1153" type="line" smooth="yes"/>
      <point x="1036" y="1250"/>
      <point x="890" y="1346"/>
      <point x="771" y="1346" type="qcurve" smooth="yes"/>
      <point x="560" y="1346"/>
      <point x="281" y="1036"/>
      <point x="283" y="740" type="qcurve" smooth="yes"/>
      <point x="284" y="463"/>
      <point x="554" y="158"/>
      <point x="783" y="158" type="qcurve" smooth="yes"/>
      <point x="941" y="158"/>
      <point x="1152" y="274"/>
      <point x="1211" y="366" type="qcurve"/>
      <point x="1323" y="254" type="line"/>
      <point x="1228" y="115"/>
      <point x="931" y="-30"/>
      <point x="765" y="-30" type="qcurve" smooth="yes"/>
      <point x="433" y="-30"/>
      <point x="51" y="371"/>
    </contour>
  </outline>
</glyph>
<glyph name="D" format="2">
  <advance width="1498"/>
  <unicode hex="0044"/>
  <anchor x="696" y="0" name="bottom"/>
  <anchor x="432" y="754" name="center"/>
  <anchor x="696" y="1500" name="top"/>
  <outline>
    <contour>
      <point x="70" y="0" type="line"/>
      <point x="70" y="148" type="line"/>
      <point x="260" y="183" type="line"/>
      <point x="262" y="754" type="line"/>
      <point x="260" y="1304" type="line"/>
      <point x="70" y="1338" type="line"/>
      <point x="70" y="1500" type="line"/>
      <point x="679" y="1500" type="line" smooth="yes"/>
      <point x="1024" y="1500"/>
      <point x="1447" y="1119"/>
      <point x="1447" y="777" type="qcurve" smooth="yes"/>
      <point x="1447" y="410"/>
      <point x="1025" y="0"/>
      <point x="641" y="0" type="qcurve" smooth="yes"/>
    </contour>
    <contour>
      <point x="480" y="177" type="line"/>
      <point x="509" y="171"/>
      <point x="637" y="162"/>
      <point x="703" y="162" type="qcurve" smooth="yes"/>
      <point x="928" y="162"/>
      <point x="1214" y="462"/>
      <point x="1215" y="761" type="qcurve" smooth="yes"/>
      <point x="1216" y="1036"/>
      <point x="918" y="1329"/>
      <point x="670" y="1329" type="qcurve" smooth="yes"/>
      <point x="627" y="1329"/>
      <point x="511" y="1317"/>
      <point x="480" y="1312" type="qcurve"/>
      <point x="478" y="754" type="line"/>
    </contour>
  </outline>
</glyph>
<glyph name="E" format="2">
  <advance width="1206"/>
  <unicode hex="0045"/>
  <anchor x="632" y="0" name="bottom"/>
  <anchor x="923" y="0" name="ogonek"/>
  <anchor x="605" y="1500" name="top"/>
  <anchor x="11" y="1500" name="tonos"/>
  <outline>
    <contour>
      <point x="70" y="0" type="line"/>
      <point x="70" y="148" type="line"/>
      <point x="260" y="185" type="line"/>
      <point x="262" y="783" type="line"/>
      <point x="260" y="1304" type="line"/>
      <point x="70" y="1338" type="line"/>
      <point x="70" y="1500" type="line"/>
      <point x="1084" y="1500" type="line"/>
      <point x="1084" y="1153" type="line"/>
      <point x="927" y="1153" type="line"/>
      <point x="897" y="1353" type="line"/>
      <point x="508" y="1353" type="line"/>
      <point x="479" y="1333" type="line"/>
      <point x="477" y="783" type="line"/>
      <point x="479" y="161" type="line"/>
      <point x="509" y="138" type="line"/>
      <point x="960" y="138" type="line"/>
      <point x="1026" y="373" type="line"/>
      <point x="1184" y="373" type="line"/>
      <point x="1148" y="0" type="line"/>
    </contour>
    <contour>
      <point x="391" y="719" type="line"/>
      <point x="391" y="844" type="line"/>
      <point x="776" y="854" type="line"/>
      <point x="806" y="993" type="line"/>
      <point x="963" y="993" type="line"/>
      <point x="963" y="570" type="line"/>
      <point x="806" y="570" type="line"/>
      <point x="776" y="709" type="line"/>
    </contour>
  </outline>
</glyph>
<glyph name="F" format="2">
  <advance width="1074"/>
  <unicode hex="0046"/>
  <anchor x="537" y="0" name="bottom"/>
  <anchor x="581" y="1500" name="top"/>
  <outline>
    <contour>
      <point x="70" y="0" type="line"/>
      <point x="70" y="148" type="line"/>
      <point x="260" y="185" type="line"/>
      <point x="262" y="760" type="line"/>
      <point x="260" y="1304" type="line"/>
      <point x="70" y="1338" type="line"/>
      <point x="70" y="1500" type="line"/>
      <point x="1054" y="1500" type="line"/>
      <point x="1054" y="1268" type="line"/>
      <point x="880" y="1268" type="line"/>
      <point x="867" y="1353" type="line"/>
      <point x="510" y="1353" type="line"/>
      <point x="480" y="1333" type="line"/>
      <point x="478" y="760" type="line"/>
      <point x="480" y="180" type="line"/>
      <point x="689" y="148" type="line"/>
      <point x="689" y="0" type="line"/>
    </contour>
    <contour>
      <point x="390" y="694" type="line"/>
      <point x="390" y="823" type="line"/>
      <point x="746" y="830" type="line"/>
      <point x="759" y="891" type="line"/>
      <point x="933" y="891" type="line"/>
      <point x="933" y="623" type="line"/>
      <point x="759" y="623" type="line"/>
      <point x="746" y="687" type="line"/>
    </contour>
  </outline>
</glyph>
<glyph name="G" format="2">
  <advance width="1502"/>
  <unicode hex="0047"/>
  <anchor x="806" y="0" name="bottom"/>
  <anchor x="780" y="1500" name="top"/>
  <outline>
    <contour>
      <point x="51" y="744" type="qcurve" smooth="yes"/>
      <point x="51" y="1074"/>
      <point x="455" y="1520"/>
      <point x="759" y="1520" type="qcurve" smooth="yes"/>
      <point x="879" y="1520"/>
      <point x="1047" y="1466"/>
      <point x="1092" y="1427" type="qcurve"/>
      <point x="1132" y="1500" type="line"/>
      <point x="1278" y="1500" type="line"/>
      <point x="1278" y="1026" type="line"/>
      <point x="1117" y="1026" type="line"/>
      <point x="1086" y="1147" type="line" smooth="yes"/>
      <point x="1060" y="1245"/>
      <point x="899" y="1339"/>
      <point x="775" y="1339" type="qcurve" smooth="yes"/>
      <point x="549" y="1339"/>
      <point x="281" y="1039"/>
      <point x="282" y="763" type="qcurve" smooth="yes"/>
      <point x="284" y="487"/>
      <point x="566" y="131"/>
      <point x="819" y="131" type="qcurve" smooth="yes"/>
      <point x="919" y="131"/>
      <point x="1095" y="194"/>
      <point x="1157" y="252" type="qcurve"/>
      <point x="1157" y="499" type="line"/>
      <point x="975" y="534" type="line"/>
      <point x="975" y="682" type="line"/>
      <point x="1489" y="682" type="line"/>
      <point x="1489" y="534" type="line"/>
      <point x="1369" y="499" type="line"/>
      <point x="1369" y="219" type="line"/>
      <point x="1290" y="120"/>
      <point x="995" y="-30"/>
      <point x="799" y="-30" type="qcurve" smooth="yes"/>
      <point x="461" y="-30"/>
      <point x="51" y="394"/>
    </contour>
  </outline>
</glyph>
<glyph name="H" format="2">
  <advance width="1653"/>
  <unicode hex="0048"/>
  <anchor x="826" y="0" name="bottom"/>
  <anchor x="826" y="1079" name="center"/>
  <anchor x="826" y="1500" name="top"/>
  <anchor x="-30" y="1500" name="tonos"/>
  <outline>
    <contour>
      <point x="70" y="0" type="line"/>
      <point x="70" y="148" type="line"/>
      <point x="260" y="183" type="line"/>
      <point x="262" y="754" type="line"/>
      <point x="260" y="1304" type="line"/>
      <point x="70" y="1338" type="line"/>
      <point x="70" y="1500" type="line"/>
      <point x="670" y="1500" type="line"/>
      <point x="670" y="1338" type="line"/>
      <point x="480" y="1304" type="line"/>
      <point x="478" y="754" type="line"/>
      <point x="480" y="183" type="line"/>
      <point x="670" y="148" type="line"/>
      <point x="670" y="0" type="line"/>
    </contour>
    <contour>
      <point x="390" y="691" type="line"/>
      <point x="390" y="871" type="line"/>
      <point x="826" y="863" type="line"/>
      <point x="1261" y="871" type="line"/>
      <point x="1261" y="691" type="line"/>
      <point x="826" y="691" type="line"/>
    </contour>
    <contour>
      <point x="982" y="0" type="line"/>
      <point x="982" y="148" type="line"/>
      <point x="1172" y="183" type="line"/>
      <point x="1174" y="754" type="line"/>
      <point x="1172" y="1304" type="line"/>
      <point x="982" y="1338" type="line"/>
      <point x="982" y="1500" type="line"/>
      <point x="1582" y="1500" type="line"/>
      <point x="1582" y="1338" type="line"/>
      <point x="1392" y="1304" type="line"/>
      <point x="1390" y="754" type="line"/>
      <point x="1392" y="183" type="line"/>
      <point x="1582" y="148" type="line"/>
      <point x="1582" y="0" type="line"/>
    </contour>
  </outline>
</glyph>
<glyph name="J" format="2">
  <advance width="726"/>
  <unicode hex="004A"/>
  <anchor x="352" y="-208" name="bottom"/>
  <anchor x="360" y="1500" name="top"/>
  <outline>
    <contour>
      <point x="17" y="-204" type="qcurve"/>
      <point x="17" y="-34" type="line"/>
      <point x="42" y="-35"/>
      <point x="99" y="-33"/>
      <point x="134" y="-28" type="qcurve" smooth="yes"/>
      <point x="204" y="-18"/>
      <point x="268" y="63"/>
      <point x="268" y="157" type="qcurve" smooth="yes"/>
      <point x="266" y="834" type="line"/>
      <point x="264" y="1304" type="line"/>
      <point x="79" y="1338" type="line"/>
      <point x="79" y="1500" type="line"/>
      <point x="657" y="1500" type="line"/>
      <point x="657" y="1336" type="line"/>
      <point x="483" y="1302" type="line"/>
      <point x="481" y="834" type="line"/>
      <point x="493" y="189" type="line" smooth="yes"/>
      <point x="497" y="-29"/>
      <point x="318" y="-200"/>
      <point x="166" y="-207" type="qcurve" smooth="yes"/>
      <point x="105" y="-210"/>
      <point x="37" y="-206"/>
    </contour>
  </outline>
</glyph>
<glyph name="K" format="2">
  <advance width="1450"/>
  <unicode hex="004B"/>
  <anchor x="789" y="0" name="bottom"/>
  <anchor x="747" y="1500" name="top"/>
  <outline>
    <contour>
      <point x="70" y="0" type="line"/>
      <point x="70" y="148" type="line"/>
      <point x="260" y="183" type="line"/>
      <point x="262" y="754" type="line"/>
      <point x="260" y="1304" type="line"/>
      <point x="70" y="1338" type="line"/>
      <point x="70" y="1500" type="line"/>
      <point x="661" y="1500" type="line"/>
      <point x="661" y="1338" type="line"/>
      <point x="480" y="1304" type="line"/>
      <point x="478" y="754" type="line"/>
      <point x="480" y="183" type="line"/>
      <point x="670" y="148" type="line"/>
      <point x="670" y="0" type="line"/>
    </contour>
    <contour>
      <point x="390" y="412" type="line"/>
      <point x="390" y="635" type="line"/>
      <point x="947" y="1290" type="line"/>
      <point x="857" y="1338" type="line"/>
      <point x="857" y="1500" type="line"/>
      <point x="1374" y="1500" type="line"/>
      <point x="1374" y="1338" type="line"/>
      <point x="1165" y="1290" type="line"/>
      <point x="775" y="853" type="line"/>
      <point x="742" y="818" type="line"/>
    </contour>
    <contour>
      <point x="654" y="820" type="line"/>
      <point x="807" y="982" type="line"/>
      <point x="1301" y="183" type="line"/>
      <point x="1479" y="148" type="line"/>
      <point x="1479" y="0" type="line"/>
      <point x="920" y="0" type="line"/>
      <point x="920" y="148" type="line"/>
      <point x="1038" y="183" type="line"/>
    </contour>
  </outline>
</glyph>
<glyph name="L" format="2">
  <advance width="1198"/>
  <unicode hex="004C"/>
  <anchor x="617" y="0" name="bottom"/>
  <anchor x="902" y="750" name="centerright"/>
  <anchor x="579" y="1500" name="top"/>
  <anchor x="758" y="1001" name="topright"/>
  <anchor x="367" y="750" name="center"/>
  <outline>
    <contour>
      <point x="70" y="0" type="line"/>
      <point x="70" y="148" type="line"/>
      <point x="260" y="180" type="line"/>
      <point x="262" y="754" type="line"/>
      <point x="260" y="1304" type="line"/>
      <point x="70" y="1338" type="line"/>
      <point x="70" y="1500" type="line"/>
      <point x="691" y="1500" type="line"/>
      <point x="691" y="1338" type="line"/>
      <point x="480" y="1304" type="line"/>
      <point x="478" y="754" type="line"/>
      <point x="480" y="185" type="line"/>
      <point x="520" y="158" type="line"/>
      <point x="965" y="158" type="line"/>
      <point x="1051" y="495" type="line"/>
      <point x="1212" y="495" type="line"/>
      <point x="1161" y="0" type="line"/>
    </contour>
  </outline>
</glyph>
<glyph name="M" format="2">
  <advance width="2076"/>
  <unicode hex="004D"/>
  <anchor x="1009" y="0" name="bottom"/>
  <anchor x="1033" y="1500" name="top"/>
  <outline>
    <contour>
      <point x="70" y="0" type="line"/>
      <point x="70" y="148" type="line"/>
      <point x="260" y="183" type="line"/>
      <point x="262" y="754" type="line"/>
      <point x="260" y="1304" type="line"/>
      <point x="70" y="1338" type="line"/>
      <point x="70" y="1500" type="line"/>
      <point x="596" y="1500" type="line"/>
      <point x="837" y="807" type="line"/>
      <point x="991" y="379" type="line"/>
      <point x="1026" y="265" type="line"/>
      <point x="1036" y="265" type="line"/>
      <point x="1072" y="379" type="line"/>
      <point x="1225" y="798" type="line"/>
      <point x="1471" y="1500" type="line"/>
      <point x="2006" y="1500" type="line"/>
      <point x="2006" y="1338" type="line"/>
      <point x="1816" y="1304" type="line"/>
      <point x="1814" y="754" type="line"/>
      <point x="1816" y="183" type="line"/>
      <point x="2006" y="148" type="line"/>
      <point x="2006" y="0" type="line"/>
      <point x="1378" y="0" type="line"/>
      <point x="1378" y="148" type="line"/>
      <point x="1596" y="183" type="line"/>
      <point x="1598" y="754" type="line"/>
      <point x="1596" y="1210" type="line"/>
      <point x="1600" y="1329" type="line"/>
      <point x="1590" y="1331" type="line"/>
      <point x="1556" y="1224" type="line"/>
      <point x="1377" y="750" type="line"/>
      <point x="1105" y="-8" type="line"/>
      <point x="901" y="-8" type="line"/>
      <point x="640" y="741" type="line"/>
      <point x="460" y="1229" type="line"/>
      <point x="426" y="1336" type="line"/>
      <point x="416" y="1334" type="line"/>
      <point x="421" y="1215" type="line"/>
      <point x="419" y="754" type="line"/>
      <point x="421" y="183" type="line"/>
      <point x="620" y="148" type="line"/>
      <point x="620" y="0" type="line"/>
    </contour>
  </outline>
</glyph>
<glyph name="N" format="2">
  <advance width="1589"/>
  <unicode hex="004E"/>
  <anchor x="792" y="0" name="bottom"/>
  <anchor x="792" y="1500" name="top"/>
  <outline>
    <contour>
      <point x="70" y="0" type="line"/>
      <point x="70" y="148" type="line"/>
      <point x="260" y="183" type="line"/>
      <point x="262" y="754" type="line"/>
      <point x="260" y="1304" type="line"/>
      <point x="70" y="1338" type="line"/>
      <point x="70" y="1500" type="line"/>
      <point x="572" y="1500" type="line"/>
      <point x="911" y="834" type="line"/>
      <point x="1127" y="444" type="line"/>
      <point x="1178" y="342" type="line"/>
      <point x="1187" y="345" type="line"/>
      <point x="1183" y="465" type="line"/>
      <point x="1184" y="754" type="line"/>
      <point x="1182" y="1304" type="line"/>
      <point x="974" y="1338" type="line"/>
      <point x="974" y="1500" type="line"/>
      <point x="1531" y="1500" type="line"/>
      <point x="1531" y="1338" type="line"/>
      <point x="1341" y="1304" type="line"/>
      <point x="1339" y="754" type="line"/>
      <point x="1335" y="0" type="line"/>
      <point x="1124" y="0" type="line"/>
      <point x="722" y="748" type="line"/>
      <point x="474" y="1219" type="line"/>
      <point x="423" y="1321" type="line"/>
      <point x="414" y="1318" type="line"/>
      <point x="419" y="1198" type="line"/>
      <point x="417" y="754" type="line"/>
      <point x="419" y="183" type="line"/>
      <point x="618" y="148" type="line"/>
      <point x="618" y="0" type="line"/>
    </contour>
  </outline>
</glyph>
<glyph name="O" format="2">
  <advance width="1536"/>
  <unicode hex="004F"/>
  <anchor x="768" y="0" name="bottom"/>
  <anchor x="770" y="750" name="center"/>
  <anchor x="986" y="0" name="ogonek"/>
  <anchor x="768" y="1500" name="top"/>
  <anchor x="950" y="1500" name="topright"/>
  <anchor x="118" y="1500" name="tonos"/>
  <outline>
    <contour>
      <point x="51" y="737" type="qcurve" smooth="yes"/>
      <point x="51" y="1068"/>
      <point x="447" y="1520"/>
      <point x="768" y="1520" type="qcurve" smooth="yes"/>
      <point x="1089" y="1520"/>
      <point x="1486" y="1097"/>
      <point x="1486" y="752" type="qcurve" smooth="yes"/>
      <point x="1486" y="423"/>
      <point x="1093" y="-31"/>
      <point x="772" y="-31" type="qcurve" smooth="yes"/>
      <point x="458" y="-31"/>
      <point x="51" y="396"/>
    </contour>
    <contour>
      <point x="283" y="771" type="qcurve" smooth="yes"/>
      <point x="283" y="498"/>
      <point x="554" y="146"/>
      <point x="770" y="146" type="qcurve" smooth="yes"/>
      <point x="1007" y="146"/>
      <point x="1254" y="458"/>
      <point x="1254" y="745" type="qcurve" smooth="yes"/>
      <point x="1254" y="1001"/>
      <point x="989" y="1335"/>
      <point x="770" y="1335" type="qcurve" smooth="yes"/>
      <point x="534" y="1335"/>
      <point x="283" y="1032"/>
    </contour>
  </outline>
</glyph>
<glyph name="P" format="2">
  <advance width="1229"/>
  <unicode hex="0050"/>
  <anchor x="599" y="0" name="bottom"/>
  <anchor x="599" y="1500" name="top"/>
  <outline>
    <contour>
      <point x="70" y="0" type="line"/>
      <point x="70" y="148" type="line"/>
      <point x="260" y="185" type="line"/>
      <point x="262" y="754" type="line"/>
      <point x="260" y="1304" type="line"/>
      <point x="70" y="1338" type="line"/>
      <point x="70" y="1500" type="line"/>
      <point x="713" y="1500" type="line" smooth="yes"/>
      <point x="949" y="1500"/>
      <point x="1195" y="1272"/>
      <point x="1195" y="1048" type="qcurve" smooth="yes"/>
      <point x="1195" y="836"/>
      <point x="934" y="560"/>
      <point x="698" y="560" type="qcurve" smooth="yes"/>
      <point x="595" y="560"/>
      <point x="446" y="580"/>
      <point x="398" y="589" type="qcurve"/>
      <point x="407" y="734" type="line"/>
      <point x="463" y="720"/>
      <point x="564" y="712"/>
      <point x="650" y="712" type="qcurve" smooth="yes"/>
      <point x="804" y="712"/>
      <point x="959" y="890"/>
      <point x="959" y="1048" type="qcurve" smooth="yes"/>
      <point x="959" y="1193"/>
      <point x="812" y="1339"/>
      <point x="673" y="1339" type="qcurve" smooth="yes"/>
      <point x="515" y="1339" type="line"/>
      <point x="481" y="1317" type="line"/>
      <point x="478" y="764" type="line"/>
      <point x="480" y="180" type="line"/>
      <point x="689" y="148" type="line"/>
      <point x="689" y="0" type="line"/>
    </contour>
  </outline>
</glyph>
<glyph name="Q" format="2">
  <advance width="1595"/>
  <unicode hex="0051"/>
  <anchor x="797" y="0" name="bottom"/>
  <anchor x="820" y="1495" name="top"/>
  <outline>
    <contour>
      <point x="80" y="746" type="qcurve" smooth="yes"/>
      <point x="80" y="1074"/>
      <point x="493" y="1520"/>
      <point x="797" y="1520" type="qcurve" smooth="yes"/>
      <point x="1102" y="1520"/>
      <point x="1515" y="1103"/>
      <point x="1515" y="754" type="qcurve" smooth="yes"/>
      <point x="1515" y="398"/>
      <point x="1086" y="-20"/>
      <point x="797" y="-20" type="qcurve" smooth="yes"/>
      <point x="483" y="-20"/>
      <point x="80" y="413"/>
    </contour>
    <contour>
      <point x="312" y="772" type="qcurve" smooth="yes"/>
      <point x="314" y="500"/>
      <point x="579" y="143"/>
      <point x="795" y="143" type="qcurve" smooth="yes"/>
      <point x="1028" y="143"/>
      <point x="1281" y="474"/>
      <point x="1283" y="747" type="qcurve" smooth="yes"/>
      <point x="1285" y="1004"/>
      <point x="1018" y="1335"/>
      <point x="799" y="1335" type="qcurve" smooth="yes"/>
      <point x="563" y="1335"/>
      <point x="310" y="1035"/>
    </contour>
    <contour>
      <point x="542" y="-18" type="qcurve" identifier="jWZBD98qkQ"/>
      <point x="1210" y="-249" type="line" identifier="7ZXZEQkAbx"/>
      <point x="1262" y="-249"/>
      <point x="1341" y="-157"/>
      <point x="1372" y="-98" type="qcurve"/>
      <point x="1492" y="-170" type="line"/>
      <point x="1438" y="-295"/>
      <point x="1300" y="-442"/>
      <point x="1178" y="-442" type="qcurve" identifier="bSft9tBggp"/>
      <point x="526" y="-211" type="line" identifier="aDYWDNvZlZ"/>
      <point x="470" y="-211"/>
      <point x="367" y="-259"/>
      <point x="315" y="-312" type="qcurve"/>
      <point x="219" y="-227" type="line"/>
      <point x="279" y="-126"/>
      <point x="445" y="-18"/>
    </contour>
    <contour>
      <point x="509" y="-96" type="line"/>
      <point x="665" y="317" type="line"/>
      <point x="808" y="263" type="line"/>
      <point x="647" y="-142" type="line"/>
    </contour>
  </outline>
</glyph>
<glyph name="R" format="2">
  <advance width="1321"/>
  <unicode hex="0052"/>
  <anchor x="754" y="0" name="bottom"/>
  <anchor x="623" y="1500" name="top"/>
  <outline>
    <contour>
      <point x="70" y="0" type="line"/>
      <point x="70" y="148" type="line"/>
      <point x="260" y="184" type="line"/>
      <point x="262" y="794" type="line"/>
      <point x="260" y="1304" type="line"/>
      <point x="70" y="1338" type="line"/>
      <point x="70" y="1500" type="line"/>
      <point x="704" y="1500" type="line" smooth="yes"/>
      <point x="923" y="1500"/>
      <point x="1133" y="1300"/>
      <point x="1133" y="1124" type="qcurve" smooth="yes"/>
      <point x="1133" y="929"/>
      <point x="873" y="693"/>
      <point x="698" y="693" type="qcurve" smooth="yes"/>
      <point x="640" y="693"/>
      <point x="451" y="702"/>
      <point x="402" y="707" type="qcurve"/>
      <point x="402" y="845" type="line"/>
      <point x="635" y="845" type="line" smooth="yes"/>
      <point x="772" y="845"/>
      <point x="896" y="992"/>
      <point x="896" y="1113" type="qcurve" smooth="yes"/>
      <point x="896" y="1220"/>
      <point x="788" y="1339"/>
      <point x="668" y="1339" type="qcurve" smooth="yes"/>
      <point x="511" y="1339" type="line"/>
      <point x="482" y="1320" type="line"/>
      <point x="478" y="794" type="line"/>
      <point x="480" y="184" type="line"/>
      <point x="677" y="148" type="line"/>
      <point x="677" y="0" type="line"/>
    </contour>
    <contour>
      <point x="613" y="776" type="line"/>
      <point x="823" y="823" type="line"/>
      <point x="1090" y="363" type="line" smooth="yes"/>
      <point x="1176" y="218"/>
      <point x="1305" y="153"/>
      <point x="1365" y="148" type="qcurve"/>
      <point x="1365" y="0" type="line"/>
      <point x="1081" y="0" type="line"/>
      <point x="1052" y="20" type="line"/>
    </contour>
  </outline>
</glyph>
<glyph name="S" format="2">
  <advance width="1035"/>
  <unicode hex="0053"/>
  <anchor x="545" y="0" name="bottom"/>
  <anchor x="495" y="1500" name="top"/>
  <outline>
    <contour>
      <point x="26" y="0" type="line"/>
      <point x="26" y="501" type="line"/>
      <point x="187" y="501" type="line"/>
      <point x="204" y="409" type="line" smooth="yes"/>
      <point x="233" y="262"/>
      <point x="422" y="132"/>
      <point x="541" y="132" type="qcurve" smooth="yes"/>
      <point x="678" y="132"/>
      <point x="805" y="268"/>
      <point x="805" y="376" type="qcurve" smooth="yes"/>
      <point x="805" y="503"/>
      <point x="640" y="631"/>
      <point x="455" y="700" type="qcurve" smooth="yes"/>
      <point x="279" y="765"/>
      <point x="88" y="958"/>
      <point x="88" y="1119" type="qcurve" smooth="yes"/>
      <point x="88" y="1289"/>
      <point x="305" y="1520"/>
      <point x="488" y="1520" type="qcurve" smooth="yes"/>
      <point x="563" y="1520"/>
      <point x="696" y="1470"/>
      <point x="747" y="1421" type="qcurve"/>
      <point x="768" y="1487" type="line"/>
      <point x="914" y="1487" type="line"/>
      <point x="914" y="1042" type="line"/>
      <point x="755" y="1042" type="line"/>
      <point x="734" y="1174" type="line" smooth="yes"/>
      <point x="719" y="1266"/>
      <point x="588" y="1357"/>
      <point x="495" y="1357" type="qcurve" smooth="yes"/>
      <point x="398" y="1357"/>
      <point x="292" y="1253"/>
      <point x="292" y="1163" type="qcurve" smooth="yes"/>
      <point x="292" y="1076"/>
      <point x="403" y="961"/>
      <point x="589" y="892" type="qcurve" smooth="yes"/>
      <point x="772" y="826"/>
      <point x="1008" y="613"/>
      <point x="1008" y="429" type="qcurve" smooth="yes"/>
      <point x="1008" y="228"/>
      <point x="767" y="-20"/>
      <point x="563" y="-20" type="qcurve" smooth="yes"/>
      <point x="452" y="-20"/>
      <point x="284" y="45"/>
      <point x="219" y="113" type="qcurve"/>
      <point x="172" y="0" type="line"/>
    </contour>
  </outline>
</glyph>
<glyph name="T" format="2">
  <advance width="1198"/>
  <unicode hex="0054"/>
  <anchor x="598" y="0" name="bottom"/>
  <anchor x="598" y="750" name="center"/>
  <anchor x="598" y="1500" name="top"/>
  <outline>
    <contour>
      <point x="14" y="991" type="line"/>
      <point x="14" y="1500" type="line"/>
      <point x="1185" y="1500" type="line"/>
      <point x="1185" y="990" type="line"/>
      <point x="1033" y="990" type="line"/>
      <point x="998" y="1339" type="line"/>
      <point x="728" y="1339" type="line"/>
      <point x="709" y="1319" type="line"/>
      <point x="707" y="740" type="line"/>
      <point x="709" y="184" type="line"/>
      <point x="907" y="148" type="line"/>
      <point x="907" y="0" type="line"/>
      <point x="289" y="0" type="line"/>
      <point x="289" y="148" type="line"/>
      <point x="489" y="184" type="line"/>
      <point x="491" y="740" type="line"/>
      <point x="489" y="1319" type="line"/>
      <point x="480" y="1339" type="line"/>
      <point x="201" y="1339" type="line"/>
      <point x="166" y="991" type="line"/>
    </contour>
  </outline>
</glyph>
<glyph name="U" format="2">
  <advance width="1548"/>
  <unicode hex="0055"/>
  <anchor x="798" y="0" name="bottom"/>
  <anchor x="989" y="0" name="ogonek"/>
  <anchor x="800" y="1500" name="top"/>
  <anchor x="1644" y="1500" name="topright"/>
  <outline>
    <contour>
      <point x="59" y="1338" type="line"/>
      <point x="59" y="1500" type="line"/>
      <point x="650" y="1500" type="line"/>
      <point x="650" y="1338" type="line"/>
      <point x="460" y="1304" type="line"/>
      <point x="456" y="816" type="line"/>
      <point x="459" y="506" type="line" smooth="yes"/>
      <point x="461" y="321"/>
      <point x="655" y="158"/>
      <point x="810" y="158" type="qcurve" smooth="yes"/>
      <point x="950" y="158"/>
      <point x="1150" y="335"/>
      <point x="1151" y="526" type="qcurve" smooth="yes"/>
      <point x="1153" y="816" type="line"/>
      <point x="1151" y="1304" type="line"/>
      <point x="952" y="1338" type="line"/>
      <point x="952" y="1500" type="line"/>
      <point x="1517" y="1500" type="line"/>
      <point x="1517" y="1338" type="line"/>
      <point x="1327" y="1304" type="line"/>
      <point x="1325" y="794" type="line"/>
      <point x="1328" y="493" type="line" smooth="yes"/>
      <point x="1331" y="231"/>
      <point x="1022" y="-31"/>
      <point x="790" y="-31" type="qcurve" smooth="yes"/>
      <point x="545" y="-31"/>
      <point x="237" y="239"/>
      <point x="239" y="481" type="qcurve" smooth="yes"/>
      <point x="242" y="794" type="line"/>
      <point x="240" y="1304" type="line"/>
    </contour>
  </outline>
</glyph>
<glyph name="V" format="2">
  <advance width="1398"/>
  <unicode hex="0056"/>
  <anchor x="698" y="0" name="bottom"/>
  <anchor x="708" y="1500" name="top"/>
  <outline>
    <contour>
      <point x="-15" y="1338" type="line"/>
      <point x="-15" y="1500" type="line"/>
      <point x="528" y="1500" type="line"/>
      <point x="528" y="1338" type="line"/>
      <point x="393" y="1297" type="line"/>
      <point x="553" y="815" type="line"/>
      <point x="695" y="399" type="line"/>
      <point x="729" y="285" type="line"/>
      <point x="739" y="285" type="line"/>
      <point x="773" y="399" type="line"/>
      <point x="912" y="815" type="line"/>
      <point x="1068" y="1304" type="line"/>
      <point x="915" y="1338" type="line"/>
      <point x="915" y="1500" type="line"/>
      <point x="1433" y="1503" type="line"/>
      <point x="1433" y="1341" type="line"/>
      <point x="1252" y="1299" type="line"/>
      <point x="1072" y="767" type="line"/>
      <point x="811" y="-8" type="line"/>
      <point x="607" y="-8" type="line"/>
      <point x="347" y="755" type="line"/>
      <point x="157" y="1299" type="line"/>
    </contour>
  </outline>
</glyph>
<glyph name="W" format="2">
  <advance width="2076"/>
  <unicode hex="0057"/>
  <anchor x="1041" y="0" name="bottom"/>
  <anchor x="1041" y="1500" name="top"/>
  <outline>
    <contour>
      <point x="581" y="-8" type="line"/>
      <point x="341" y="740" type="line"/>
      <point x="156" y="1299" type="line"/>
      <point x="-15" y="1338" type="line"/>
      <point x="-15" y="1500" type="line"/>
      <point x="547" y="1500" type="line"/>
      <point x="547" y="1338" type="line"/>
      <point x="392" y="1297" type="line"/>
      <point x="543" y="802" type="line"/>
      <point x="672" y="393" type="line"/>
      <point x="702" y="279" type="line"/>
      <point x="712" y="279" type="line"/>
      <point x="746" y="393" type="line"/>
      <point x="837" y="674" type="line"/>
      <point x="961" y="1092" type="line"/>
      <point x="892" y="1307" type="line"/>
      <point x="722" y="1346" type="line"/>
      <point x="722" y="1500" type="line"/>
      <point x="1266" y="1500" type="line"/>
      <point x="1266" y="1346" type="line"/>
      <point x="1128" y="1305" type="line"/>
      <point x="1266" y="800" type="line"/>
      <point x="1386" y="393" type="line"/>
      <point x="1414" y="279" type="line"/>
      <point x="1424" y="279" type="line"/>
      <point x="1455" y="393" type="line"/>
      <point x="1583" y="803" type="line"/>
      <point x="1728" y="1304" type="line"/>
      <point x="1564" y="1338" type="line"/>
      <point x="1564" y="1500" type="line"/>
      <point x="2110" y="1500" type="line"/>
      <point x="2110" y="1338" type="line"/>
      <point x="1920" y="1299" type="line"/>
      <point x="1747" y="760" type="line"/>
      <point x="1502" y="-8" type="line"/>
      <point x="1297" y="-8" type="line"/>
      <point x="1074" y="735" type="line"/>
      <point x="1042" y="850" type="line"/>
      <point x="1032" y="850" type="line"/>
      <point x="1002" y="735" type="line"/>
      <point x="779" y="-8" type="line"/>
    </contour>
  </outline>
</glyph>
<glyph name="X" format="2">
  <advance width="1336"/>
  <unicode hex="0058"/>
  <anchor x="655" y="0" name="bottom"/>
  <anchor x="667" y="1500" name="top"/>
  <outline>
    <contour>
      <point x="-14" y="0" type="line"/>
      <point x="-14" y="148" type="line"/>
      <point x="171" y="183" type="line"/>
      <point x="525" y="792" type="line"/>
      <point x="211" y="1309" type="line"/>
      <point x="35" y="1340" type="line"/>
      <point x="35" y="1500" type="line"/>
      <point x="596" y="1500" type="line"/>
      <point x="596" y="1340" type="line"/>
      <point x="469" y="1307" type="line"/>
      <point x="613" y="1071" type="line"/>
      <point x="677" y="957" type="line"/>
      <point x="687" y="957" type="line"/>
      <point x="747" y="1071" type="line"/>
      <point x="889" y="1314" type="line"/>
      <point x="758" y="1340" type="line"/>
      <point x="758" y="1500" type="line"/>
      <point x="1281" y="1500" type="line"/>
      <point x="1281" y="1340" type="line"/>
      <point x="1088" y="1309" type="line"/>
      <point x="805" y="829" type="line"/>
      <point x="1196" y="183" type="line"/>
      <point x="1382" y="148" type="line"/>
      <point x="1382" y="0" type="line"/>
      <point x="812" y="0" type="line"/>
      <point x="812" y="148" type="line"/>
      <point x="938" y="183" type="line"/>
      <point x="717" y="551" type="line"/>
      <point x="653" y="665" type="line"/>
      <point x="643" y="665" type="line"/>
      <point x="583" y="551" type="line"/>
      <point x="370" y="178" type="line"/>
      <point x="501" y="148" type="line"/>
      <point x="501" y="0" type="line"/>
    </contour>
  </outline>
</glyph>
<glyph name="Y" format="2">
  <advance width="1280"/>
  <unicode hex="0059"/>
  <anchor x="631" y="0" name="bottom"/>
  <anchor x="635" y="1500" name="top"/>
  <anchor x="-83" y="1500" name="tonos"/>
  <outline>
    <contour>
      <point x="323" y="0" type="line"/>
      <point x="323" y="148" type="line"/>
      <point x="525" y="183" type="line"/>
      <point x="527" y="637" type="line"/>
      <point x="350" y="988" type="line"/>
      <point x="177" y="1312" type="line"/>
      <point x="1" y="1338" type="line"/>
      <point x="1" y="1500" type="line"/>
      <point x="540" y="1500" type="line"/>
      <point x="540" y="1338" type="line"/>
      <point x="422" y="1303" type="line"/>
      <point x="527" y="1075" type="line"/>
      <point x="659" y="824" type="line"/>
      <point x="669" y="824" type="line"/>
      <point x="794" y="1089" type="line"/>
      <point x="892" y="1310" type="line"/>
      <point x="746" y="1338" type="line"/>
      <point x="746" y="1500" type="line"/>
      <point x="1279" y="1500" type="line"/>
      <point x="1279" y="1338" type="line"/>
      <point x="1097" y="1311" type="line"/>
      <point x="940" y="1011" type="line"/>
      <point x="743" y="617" type="line"/>
      <point x="745" y="183" type="line"/>
      <point x="944" y="148" type="line"/>
      <point x="944" y="0" type="line"/>
    </contour>
  </outline>
</glyph>
<glyph name="Z" format="2">
  <advance width="1115"/>
  <unicode hex="005A"/>
  <anchor x="554" y="0" name="bottom"/>
  <anchor x="554" y="1500" name="top"/>
  <outline>
    <contour>
      <point x="58" y="0" type="line"/>
      <point x="28" y="92" type="line"/>
      <point x="764" y="1335" type="line"/>
      <point x="755" y="1343" type="line"/>
      <point x="274" y="1343" type="line"/>
      <point x="242" y="1062" type="line"/>
      <point x="74" y="1062" type="line"/>
      <point x="74" y="1500" type="line"/>
      <point x="1054" y="1500" type="line"/>
      <point x="1054" y="1409" type="line"/>
      <point x="314" y="162" type="line"/>
      <point x="322" y="156" type="line"/>
      <point x="885" y="156" type="line"/>
      <point x="951" y="390" type="line"/>
      <point x="1109" y="390" type="line"/>
      <point x="1073" y="0" type="line"/>
    </contour>
  </outline>
</glyph>
<glyph name="bracketleft" format="2">
  <advance width="573"/>
  <unicode hex="005B"/>
  <outline>
    <contour>
      <point x="102" y="508" type="line"/>
      <point x="90" y="1319" type="line"/>
      <point x="71" y="1339" type="line"/>
      <point x="71" y="1500" type="line"/>
      <point x="532" y="1500" type="line"/>
      <point x="532" y="1338" type="line"/>
      <point x="301" y="1319" type="line"/>
      <point x="289" y="508" type="line"/>
      <point x="301" y="-299" type="line"/>
      <point x="532" y="-318" type="line"/>
      <point x="532" y="-480" type="line"/>
      <point x="71" y="-480" type="line"/>
      <point x="71" y="-319" type="line"/>
      <point x="90" y="-299" type="line"/>
    </contour>
  </outline>
</glyph>
<glyph name="backslash" format="2">
  <advance width="584"/>
  <unicode hex="005C"/>
  <outline>
    <contour>
      <point x="-52" y="1516" type="line"/>
      <point x="105" y="1558" type="line"/>
      <point x="648" y="-121" type="line"/>
      <point x="491" y="-163" type="line"/>
    </contour>
  </outline>
</glyph>
<glyph name="bracketright" format="2">
  <advance width="548"/>
  <unicode hex="005D"/>
  <outline>
    <contour>
      <point x="42" y="-480" type="line"/>
      <point x="42" y="-318" type="line"/>
      <point x="272" y="-299" type="line"/>
      <point x="284" y="508" type="line"/>
      <point x="272" y="1319" type="line"/>
      <point x="42" y="1338" type="line"/>
      <point x="42" y="1500" type="line"/>
      <point x="503" y="1500" type="line"/>
      <point x="503" y="1339" type="line"/>
      <point x="484" y="1319" type="line"/>
      <point x="472" y="508" type="line"/>
      <point x="484" y="-299" type="line"/>
      <point x="503" y="-319" type="line"/>
      <point x="503" y="-480" type="line"/>
    </contour>
  </outline>
</glyph>
<glyph name="asciicircum" format="2">
  <advance width="1118"/>
  <unicode hex="005E"/>
  <outline>
    <contour>
      <point x="75" y="914" type="line"/>
      <point x="124" y="980"/>
      <point x="519" y="1501"/>
      <point x="540" y="1524" type="qcurve"/>
      <point x="559" y="1501"/>
      <point x="993" y="985"/>
      <point x="1042" y="920" type="qcurve"/>
      <point x="925" y="805" type="line"/>
      <point x="814" y="931"/>
      <point x="559" y="1227"/>
      <point x="542" y="1241" type="qcurve"/>
      <point x="522" y="1221"/>
      <point x="307" y="940"/>
      <point x="194" y="805" type="qcurve"/>
    </contour>
  </outline>
</glyph>
<glyph name="underscore" format="2">
  <advance width="1335"/>
  <unicode hex="005F"/>
  <outline>
    <contour>
      <point x="-20" y="-480" type="line"/>
      <point x="-20" y="-313" type="line"/>
      <point x="672" y="-307" type="line"/>
      <point x="1355" y="-313" type="line"/>
      <point x="1355" y="-480" type="line"/>
      <point x="672" y="-496" type="line"/>
    </contour>
  </outline>
</glyph>
<glyph name="a" format="2">
  <advance width="1065"/>
  <unicode hex="0061"/>
  <anchor x="524" y="0" name="bottom"/>
  <anchor x="895" y="0" name="ogonek"/>
  <anchor x="499" y="1049" name="top"/>
  <outline>
    <contour>
      <point x="52" y="258" type="qcurve" smooth="yes"/>
      <point x="52" y="403"/>
      <point x="373" y="612"/>
      <point x="734" y="660" type="qcurve"/>
      <point x="734" y="559" type="line"/>
      <point x="501" y="525"/>
      <point x="268" y="407"/>
      <point x="269" y="273" type="qcurve" smooth="yes"/>
      <point x="269" y="196"/>
      <point x="350" y="125"/>
      <point x="416" y="125" type="qcurve" smooth="yes"/>
      <point x="483" y="125"/>
      <point x="632" y="210"/>
      <point x="666" y="260" type="qcurve"/>
      <point x="668" y="676" type="line" smooth="yes"/>
      <point x="669" y="832"/>
      <point x="560" y="933"/>
      <point x="477" y="933" type="qcurve" smooth="yes"/>
      <point x="405" y="933"/>
      <point x="305" y="887"/>
      <point x="279" y="861" type="qcurve"/>
      <point x="302" y="840"/>
      <point x="329" y="796"/>
      <point x="333" y="774" type="qcurve" smooth="yes"/>
      <point x="341" y="734"/>
      <point x="285" y="676"/>
      <point x="235" y="676" type="qcurve" smooth="yes"/>
      <point x="178" y="676"/>
      <point x="112" y="751"/>
      <point x="112" y="816" type="qcurve" smooth="yes"/>
      <point x="112" y="923"/>
      <point x="328" y="1070"/>
      <point x="499" y="1070" type="qcurve" smooth="yes"/>
      <point x="678" y="1070"/>
      <point x="870" y="906"/>
      <point x="869" y="730" type="qcurve" smooth="yes"/>
      <point x="869" y="171" type="line"/>
      <point x="1007" y="136" type="line"/>
      <point x="1007" y="0" type="line"/>
      <point x="737" y="0" type="line"/>
      <point x="685" y="60" type="line"/>
      <point x="671" y="157" type="line"/>
      <point x="629" y="88"/>
      <point x="446" y="-13"/>
      <point x="330" y="-13" type="qcurve" smooth="yes"/>
      <point x="204" y="-13"/>
      <point x="52" y="145"/>
    </contour>
  </outline>
</glyph>
<glyph name="b" format="2">
  <advance width="1135"/>
  <unicode hex="0062"/>
  <anchor x="586" y="0" name="bottom"/>
  <anchor x="586" y="1533" name="top"/>
  <outline>
    <contour>
      <point x="155" y="0" type="line"/>
      <point x="166" y="475" type="line"/>
      <point x="156" y="1320" type="line"/>
      <point x="4" y="1350" type="line"/>
      <point x="4" y="1500" type="line"/>
      <point x="304" y="1534" type="line"/>
      <point x="335" y="1534" type="line"/>
      <point x="363" y="1502" type="line"/>
      <point x="361" y="905" type="line"/>
      <point x="409" y="979"/>
      <point x="573" y="1069"/>
      <point x="687" y="1069" type="qcurve" smooth="yes"/>
      <point x="864" y="1069"/>
      <point x="1093" y="790"/>
      <point x="1093" y="555" type="qcurve" smooth="yes"/>
      <point x="1093" y="300"/>
      <point x="856" y="-12"/>
      <point x="641" y="-12" type="qcurve" smooth="yes"/>
      <point x="554" y="-12"/>
      <point x="409" y="49"/>
      <point x="362" y="92" type="qcurve"/>
      <point x="276" y="0" type="line"/>
    </contour>
    <contour>
      <point x="352" y="528" type="line"/>
      <point x="361" y="267" type="line"/>
      <point x="391" y="210"/>
      <point x="522" y="126"/>
      <point x="611" y="126" type="qcurve" smooth="yes"/>
      <point x="732" y="126"/>
      <point x="871" y="342"/>
      <point x="871" y="529" type="qcurve" smooth="yes"/>
      <point x="871" y="709"/>
      <point x="733" y="913"/>
      <point x="615" y="913" type="qcurve" smooth="yes"/>
      <point x="525" y="913"/>
      <point x="399" y="827"/>
      <point x="361" y="761" type="qcurve"/>
    </contour>
  </outline>
</glyph>
<glyph name="c" format="2">
  <advance width="951"/>
  <unicode hex="0063"/>
  <guideline x="551" y="1022" angle="0.0" identifier="uY5wl0yAtZ"/>
  <anchor x="520" y="0" name="bottom"/>
  <anchor x="491" y="1049" name="top"/>
  <outline>
    <contour>
      <point x="42" y="514" type="qcurve" smooth="yes"/>
      <point x="42" y="751"/>
      <point x="283" y="1071"/>
      <point x="477" y="1071" type="qcurve" smooth="yes"/>
      <point x="560" y="1071"/>
      <point x="681" y="1031"/>
      <point x="709" y="1005" type="qcurve"/>
      <point x="730" y="1073" type="line"/>
      <point x="866" y="1073" type="line"/>
      <point x="869" y="637" type="line"/>
      <point x="736" y="637" type="line"/>
      <point x="721" y="733" type="line" smooth="yes"/>
      <point x="700" y="818"/>
      <point x="609" y="929"/>
      <point x="523" y="929" type="qcurve" smooth="yes"/>
      <point x="405" y="929"/>
      <point x="261" y="735"/>
      <point x="261" y="533" type="qcurve" smooth="yes"/>
      <point x="261" y="343"/>
      <point x="431" y="142"/>
      <point x="574" y="142" type="qcurve" smooth="yes"/>
      <point x="668" y="142"/>
      <point x="802" y="205"/>
      <point x="850" y="253" type="qcurve"/>
      <point x="915" y="168" type="line"/>
      <point x="865" y="94"/>
      <point x="674" y="-22"/>
      <point x="520" y="-22" type="qcurve" smooth="yes"/>
      <point x="316" y="-22"/>
      <point x="42" y="267"/>
    </contour>
  </outline>
</glyph>
<glyph name="d" format="2">
  <advance width="1176"/>
  <unicode hex="0064"/>
  <anchor x="563" y="0" name="bottom"/>
  <anchor x="860" y="1202" name="center"/>
  <anchor x="563" y="1534" name="top"/>
  <anchor x="961" y="1000" name="topright"/>
  <outline>
    <contour>
      <point x="44" y="501" type="qcurve" smooth="yes"/>
      <point x="44" y="756"/>
      <point x="303" y="1069"/>
      <point x="514" y="1069" type="qcurve" smooth="yes"/>
      <point x="591" y="1069"/>
      <point x="740" y="1021"/>
      <point x="788" y="984" type="qcurve"/>
      <point x="779" y="1320" type="line"/>
      <point x="628" y="1350" type="line"/>
      <point x="628" y="1500" type="line"/>
      <point x="929" y="1534" type="line"/>
      <point x="960" y="1534" type="line"/>
      <point x="988" y="1502" type="line"/>
      <point x="985" y="564" type="line"/>
      <point x="993" y="171" type="line"/>
      <point x="1129" y="136" type="line"/>
      <point x="1129" y="0" type="line"/>
      <point x="859" y="0" type="line"/>
      <point x="808" y="60" type="line"/>
      <point x="791" y="157" type="line"/>
      <point x="744" y="88"/>
      <point x="589" y="-9"/>
      <point x="470" y="-9" type="qcurve" smooth="yes"/>
      <point x="281" y="-9"/>
      <point x="44" y="266"/>
    </contour>
    <contour>
      <point x="266" y="529" type="qcurve" smooth="yes"/>
      <point x="266" y="349"/>
      <point x="411" y="150"/>
      <point x="541" y="150" type="qcurve" smooth="yes"/>
      <point x="634" y="150"/>
      <point x="755" y="236"/>
      <point x="790" y="296" type="qcurve"/>
      <point x="795" y="549" type="line"/>
      <point x="795" y="811" type="line"/>
      <point x="760" y="864"/>
      <point x="641" y="929"/>
      <point x="559" y="929" type="qcurve" smooth="yes"/>
      <point x="425" y="929"/>
      <point x="266" y="698"/>
    </contour>
  </outline>
</glyph>
<glyph name="e" format="2">
  <advance width="1011"/>
  <unicode hex="0065"/>
  <anchor x="558" y="0" name="bottom"/>
  <anchor x="712" y="0" name="ogonek"/>
  <anchor x="522" y="1049" name="top"/>
  <outline>
    <contour>
      <point x="41" y="525" type="qcurve" smooth="yes"/>
      <point x="41" y="751"/>
      <point x="305" y="1072"/>
      <point x="522" y="1072" type="qcurve" smooth="yes"/>
      <point x="719" y="1072"/>
      <point x="946" y="831"/>
      <point x="965" y="615" type="qcurve"/>
      <point x="965" y="543" type="line"/>
      <point x="178" y="543" type="line"/>
      <point x="178" y="651" type="line"/>
      <point x="760" y="651" type="line"/>
      <point x="746" y="789"/>
      <point x="614" y="938"/>
      <point x="516" y="938" type="qcurve" smooth="yes"/>
      <point x="394" y="938"/>
      <point x="259" y="728"/>
      <point x="260" y="544" type="qcurve" smooth="yes"/>
      <point x="261" y="342"/>
      <point x="436" y="129"/>
      <point x="593" y="129" type="qcurve" smooth="yes"/>
      <point x="684" y="129"/>
      <point x="820" y="171"/>
      <point x="867" y="211" type="qcurve"/>
      <point x="929" y="134" type="line"/>
      <point x="882" y="68"/>
      <point x="692" y="-22"/>
      <point x="559" y="-22" type="qcurve" smooth="yes"/>
      <point x="309" y="-22"/>
      <point x="41" y="262"/>
    </contour>
  </outline>
</glyph>
<glyph name="f" format="2">
  <advance width="638"/>
  <unicode hex="0066"/>
  <anchor x="336" y="0" name="bottom"/>
  <anchor x="336" y="1536" name="top"/>
  <outline>
    <contour>
      <point x="52" y="0" type="line"/>
      <point x="52" y="136" type="line"/>
      <point x="204" y="171" type="line"/>
      <point x="206" y="527" type="line"/>
      <point x="203" y="885" type="line"/>
      <point x="64" y="890" type="line"/>
      <point x="64" y="1019" type="line"/>
      <point x="205" y="1037" type="line"/>
      <point x="209" y="1287" type="line" smooth="yes"/>
      <point x="210" y="1401"/>
      <point x="347" y="1537"/>
      <point x="450" y="1537" type="qcurve" smooth="yes"/>
      <point x="493" y="1537"/>
      <point x="566" y="1527"/>
      <point x="597" y="1518" type="qcurve" smooth="yes"/>
      <point x="615" y="1512" type="line"/>
      <point x="599" y="1383" type="line"/>
      <point x="581" y="1386" type="line" smooth="yes"/>
      <point x="571" y="1389"/>
      <point x="545" y="1391"/>
      <point x="528" y="1391" type="qcurve" smooth="yes"/>
      <point x="466" y="1391"/>
      <point x="401" y="1304"/>
      <point x="402" y="1235" type="qcurve" smooth="yes"/>
      <point x="404" y="1038" type="line"/>
      <point x="596" y="1038" type="line"/>
      <point x="596" y="891" type="line"/>
      <point x="405" y="891" type="line"/>
      <point x="406" y="528" type="line"/>
      <point x="412" y="171" type="line"/>
      <point x="585" y="136" type="line"/>
      <point x="585" y="0" type="line"/>
    </contour>
  </outline>
</glyph>
<glyph name="g" format="2">
  <advance width="1074"/>
  <unicode hex="0067"/>
  <anchor x="559" y="-416" name="bottom"/>
  <anchor x="519" y="1049" name="top"/>
  <outline>
    <contour>
      <point x="13" y="-249" type="qcurve" smooth="yes"/>
      <point x="13" y="-160"/>
      <point x="134" y="-45"/>
      <point x="221" y="-7" type="qcurve"/>
      <point x="317" y="-62" type="line"/>
      <point x="270" y="-88"/>
      <point x="220" y="-159"/>
      <point x="220" y="-226" type="qcurve" smooth="yes"/>
      <point x="220" y="-302"/>
      <point x="369" y="-395"/>
      <point x="565" y="-395" type="qcurve" smooth="yes"/>
      <point x="712" y="-395"/>
      <point x="880" y="-310"/>
      <point x="880" y="-225" type="qcurve" smooth="yes"/>
      <point x="880" y="-153"/>
      <point x="735" y="-114"/>
      <point x="543" y="-103" type="qcurve" smooth="yes"/>
      <point x="332" y="-90"/>
      <point x="82" y="4"/>
      <point x="82" y="134" type="qcurve" smooth="yes"/>
      <point x="82" y="237"/>
      <point x="234" y="362"/>
      <point x="317" y="396" type="qcurve"/>
      <point x="384" y="318" type="line"/>
      <point x="325" y="296"/>
      <point x="249" y="233"/>
      <point x="249" y="182" type="qcurve" smooth="yes"/>
      <point x="249" y="128"/>
      <point x="386" y="87"/>
      <point x="576" y="77" type="qcurve" smooth="yes"/>
      <point x="861" y="65"/>
      <point x="1068" y="-43"/>
      <point x="1068" y="-169" type="qcurve" smooth="yes"/>
      <point x="1068" y="-316"/>
      <point x="810" y="-518"/>
      <point x="527" y="-518" type="qcurve" smooth="yes"/>
      <point x="261" y="-518"/>
      <point x="13" y="-370"/>
    </contour>
    <contour>
      <point x="80" y="678" type="qcurve" smooth="yes"/>
      <point x="80" y="849"/>
      <point x="319" y="1071"/>
      <point x="512" y="1071" type="qcurve" smooth="yes"/>
      <point x="706" y="1071"/>
      <point x="946" y="865"/>
      <point x="946" y="683" type="qcurve" smooth="yes"/>
      <point x="946" y="512"/>
      <point x="708" y="266"/>
      <point x="516" y="266" type="qcurve" smooth="yes"/>
      <point x="323" y="266"/>
      <point x="80" y="493"/>
    </contour>
    <contour>
      <point x="292" y="688" type="qcurve" smooth="yes"/>
      <point x="292" y="545"/>
      <point x="413" y="392"/>
      <point x="519" y="392" type="qcurve" smooth="yes"/>
      <point x="618" y="392"/>
      <point x="733" y="532"/>
      <point x="733" y="677" type="qcurve" smooth="yes"/>
      <point x="733" y="795"/>
      <point x="613" y="935"/>
      <point x="506" y="935" type="qcurve" smooth="yes"/>
      <point x="408" y="935"/>
      <point x="292" y="811"/>
    </contour>
    <contour>
      <point x="655" y="974" type="line"/>
      <point x="605" y="1049" type="line"/>
      <point x="1071" y="1049" type="line"/>
      <point x="1071" y="889" type="line"/>
    </contour>
  </outline>
</glyph>
<glyph name="h" format="2">
  <advance width="1236"/>
  <unicode hex="0068"/>
  <anchor x="618" y="0" name="bottom"/>
  <anchor x="335" y="1219" name="center"/>
  <anchor x="324" y="1534" name="top"/>
  <outline>
    <contour>
      <point x="72" y="0" type="line"/>
      <point x="72" y="136" type="line"/>
      <point x="201" y="171" type="line"/>
      <point x="203" y="530" type="line"/>
      <point x="201" y="1320" type="line"/>
      <point x="50" y="1350" type="line"/>
      <point x="50" y="1502" type="line"/>
      <point x="348" y="1534" type="line"/>
      <point x="380" y="1534" type="line"/>
      <point x="408" y="1502" type="line"/>
      <point x="407" y="901" type="line"/>
      <point x="460" y="974"/>
      <point x="641" y="1070"/>
      <point x="741" y="1070" type="qcurve" smooth="yes"/>
      <point x="891" y="1070"/>
      <point x="1045" y="921"/>
      <point x="1045" y="791" type="qcurve" smooth="yes"/>
      <point x="1045" y="702"/>
      <point x="1040" y="530"/>
      <point x="1040" y="530" type="qcurve"/>
      <point x="1044" y="171" type="line"/>
      <point x="1179" y="136" type="line"/>
      <point x="1179" y="0" type="line"/>
      <point x="694" y="0" type="line"/>
      <point x="694" y="136" type="line"/>
      <point x="837" y="171" type="line"/>
      <point x="839" y="506" type="line"/>
      <point x="839" y="719" type="line" smooth="yes"/>
      <point x="839" y="790"/>
      <point x="750" y="894"/>
      <point x="668" y="894" type="qcurve" smooth="yes"/>
      <point x="596" y="894"/>
      <point x="452" y="815"/>
      <point x="406" y="741" type="qcurve"/>
      <point x="406" y="506" type="line"/>
      <point x="408" y="171" type="line"/>
      <point x="533" y="136" type="line"/>
      <point x="533" y="0" type="line"/>
    </contour>
  </outline>
</glyph>
<glyph name="k" format="2">
  <advance width="1199"/>
  <unicode hex="006B"/>
  <anchor x="628" y="0" name="bottom"/>
  <anchor x="598" y="1534" name="top"/>
  <outline>
    <contour>
      <point x="72" y="0" type="line"/>
      <point x="72" y="136" type="line"/>
      <point x="201" y="171" type="line"/>
      <point x="203" y="527" type="line"/>
      <point x="201" y="1320" type="line"/>
      <point x="50" y="1350" type="line"/>
      <point x="50" y="1502" type="line"/>
      <point x="348" y="1534" type="line"/>
      <point x="380" y="1534" type="line"/>
      <point x="408" y="1502" type="line"/>
      <point x="406" y="507" type="line"/>
      <point x="408" y="171" type="line"/>
      <point x="533" y="136" type="line"/>
      <point x="533" y="0" type="line"/>
    </contour>
    <contour>
      <point x="346" y="381" type="line"/>
      <point x="343" y="524" type="line"/>
      <point x="711" y="901" type="line"/>
      <point x="609" y="931" type="line"/>
      <point x="609" y="1049" type="line"/>
      <point x="1064" y="1049" type="line"/>
      <point x="1064" y="931" type="line"/>
      <point x="888" y="896" type="line"/>
    </contour>
    <contour>
      <point x="514" y="614" type="line"/>
      <point x="659" y="737" type="line"/>
      <point x="1015" y="171" type="line"/>
      <point x="1162" y="136" type="line"/>
      <point x="1162" y="0" type="line"/>
      <point x="790" y="0" type="line"/>
      <point x="782" y="135" type="line"/>
      <point x="788" y="167" type="line"/>
    </contour>
  </outline>
</glyph>
<glyph name="m" format="2">
  <advance width="1855"/>
  <unicode hex="006D"/>
  <anchor x="925" y="0" name="bottom"/>
  <anchor x="925" y="1049" name="top"/>
  <outline>
    <contour>
      <point x="63" y="0" type="line"/>
      <point x="63" y="136" type="line"/>
      <point x="197" y="171" type="line"/>
      <point x="199" y="527" type="line"/>
      <point x="197" y="834" type="line"/>
      <point x="63" y="864" type="line"/>
      <point x="63" y="1014" type="line"/>
      <point x="343" y="1048" type="line"/>
      <point x="378" y="1021" type="line"/>
      <point x="403" y="902" type="line"/>
      <point x="458" y="976"/>
      <point x="642" y="1069"/>
      <point x="740" y="1069" type="qcurve" smooth="yes"/>
      <point x="858" y="1069"/>
      <point x="1001" y="974"/>
      <point x="1027" y="888" type="qcurve"/>
      <point x="1080" y="968"/>
      <point x="1266" y="1069"/>
      <point x="1368" y="1069" type="qcurve" smooth="yes"/>
      <point x="1515" y="1069"/>
      <point x="1664" y="920"/>
      <point x="1664" y="790" type="qcurve" smooth="yes"/>
      <point x="1664" y="704"/>
      <point x="1659" y="554"/>
      <point x="1659" y="518" type="qcurve" smooth="yes"/>
      <point x="1664" y="171" type="line"/>
      <point x="1798" y="136" type="line"/>
      <point x="1798" y="0" type="line"/>
      <point x="1313" y="0" type="line"/>
      <point x="1313" y="136" type="line"/>
      <point x="1457" y="171" type="line"/>
      <point x="1458" y="503" type="line"/>
      <point x="1458" y="718" type="line" smooth="yes"/>
      <point x="1458" y="796"/>
      <point x="1366" y="893"/>
      <point x="1286" y="893" type="qcurve" smooth="yes"/>
      <point x="1208" y="893"/>
      <point x="1077" y="814"/>
      <point x="1035" y="747" type="qcurve"/>
      <point x="1031" y="679"/>
      <point x="1031" y="524"/>
      <point x="1031" y="503" type="qcurve" smooth="yes"/>
      <point x="1034" y="171" type="line"/>
      <point x="1168" y="136" type="line"/>
      <point x="1168" y="0" type="line"/>
      <point x="685" y="0" type="line"/>
      <point x="685" y="136" type="line"/>
      <point x="828" y="171" type="line"/>
      <point x="830" y="503" type="line"/>
      <point x="830" y="718" type="line" smooth="yes"/>
      <point x="830" y="796"/>
      <point x="731" y="893"/>
      <point x="658" y="893" type="qcurve" smooth="yes"/>
      <point x="580" y="893"/>
      <point x="444" y="811"/>
      <point x="402" y="741" type="qcurve"/>
      <point x="401" y="503" type="line"/>
      <point x="403" y="171" type="line"/>
      <point x="528" y="136" type="line"/>
      <point x="528" y="0" type="line"/>
    </contour>
  </outline>
</glyph>
<glyph name="n" format="2">
  <advance width="1232"/>
  <unicode hex="006E"/>
  <anchor x="612" y="0" name="bottom"/>
  <anchor x="623" y="1049" name="top"/>
  <outline>
    <contour>
      <point x="63" y="0" type="line"/>
      <point x="63" y="136" type="line"/>
      <point x="197" y="171" type="line"/>
      <point x="199" y="530" type="line"/>
      <point x="197" y="834" type="line"/>
      <point x="63" y="864" type="line"/>
      <point x="63" y="1016" type="line"/>
      <point x="345" y="1048" type="line"/>
      <point x="380" y="1021" type="line"/>
      <point x="405" y="902" type="line"/>
      <point x="459" y="977"/>
      <point x="638" y="1069"/>
      <point x="737" y="1069" type="qcurve" smooth="yes"/>
      <point x="887" y="1069"/>
      <point x="1041" y="920"/>
      <point x="1041" y="790" type="qcurve" smooth="yes"/>
      <point x="1041" y="712"/>
      <point x="1036" y="557"/>
      <point x="1036" y="530" type="qcurve" smooth="yes"/>
      <point x="1041" y="171" type="line"/>
      <point x="1175" y="136" type="line"/>
      <point x="1175" y="0" type="line"/>
      <point x="690" y="0" type="line"/>
      <point x="690" y="136" type="line"/>
      <point x="834" y="171" type="line"/>
      <point x="835" y="506" type="line"/>
      <point x="835" y="718" type="line" smooth="yes"/>
      <point x="835" y="801"/>
      <point x="742" y="893"/>
      <point x="664" y="893" type="qcurve" smooth="yes"/>
      <point x="585" y="893"/>
      <point x="444" y="809"/>
      <point x="404" y="741" type="qcurve"/>
      <point x="403" y="506" type="line"/>
      <point x="404" y="171" type="line"/>
      <point x="530" y="136" type="line"/>
      <point x="530" y="0" type="line"/>
    </contour>
  </outline>
</glyph>
<glyph name="o" format="2">
  <advance width="1121"/>
  <unicode hex="006F"/>
  <anchor x="561" y="0" name="bottom"/>
  <anchor x="561" y="524" name="center"/>
  <anchor x="724" y="0" name="ogonek"/>
  <anchor x="561" y="1049" name="top"/>
  <anchor x="737" y="1049" name="topright"/>
  <anchor x="561" y="1049" name="GRKtop"/>
  <outline>
    <contour>
      <point x="42" y="524" type="qcurve" smooth="yes"/>
      <point x="42" y="751"/>
      <point x="327" y="1071"/>
      <point x="559" y="1071" type="qcurve" smooth="yes"/>
      <point x="791" y="1071"/>
      <point x="1079" y="772"/>
      <point x="1079" y="530" type="qcurve" smooth="yes"/>
      <point x="1079" y="304"/>
      <point x="796" y="-22"/>
      <point x="565" y="-22" type="qcurve" smooth="yes"/>
      <point x="332" y="-22"/>
      <point x="42" y="280"/>
    </contour>
    <contour>
      <point x="260" y="544" type="qcurve" smooth="yes"/>
      <point x="261" y="368"/>
      <point x="423" y="124"/>
      <point x="557" y="124" type="qcurve" smooth="yes"/>
      <point x="700" y="124"/>
      <point x="855" y="346"/>
      <point x="855" y="530" type="qcurve" smooth="yes"/>
      <point x="855" y="701"/>
      <point x="693" y="924"/>
      <point x="559" y="924" type="qcurve" smooth="yes"/>
      <point x="414" y="924"/>
      <point x="259" y="721"/>
    </contour>
  </outline>
</glyph>
<glyph name="p" format="2">
  <advance width="1170"/>
  <unicode hex="0070"/>
  <anchor x="618" y="0" name="bottom"/>
  <anchor x="618" y="1049" name="top"/>
  <outline>
    <contour>
      <point x="56" y="-480" type="line"/>
      <point x="56" y="-344" type="line"/>
      <point x="185" y="-309" type="line"/>
      <point x="187" y="459" type="line"/>
      <point x="185" y="835" type="line"/>
      <point x="51" y="865" type="line"/>
      <point x="51" y="1016" type="line"/>
      <point x="343" y="1049" type="line"/>
      <point x="378" y="1022" type="line"/>
      <point x="393" y="911" type="line"/>
      <point x="442" y="980"/>
      <point x="604" y="1069"/>
      <point x="718" y="1069" type="qcurve" smooth="yes"/>
      <point x="895" y="1069"/>
      <point x="1126" y="789"/>
      <point x="1126" y="553" type="qcurve" smooth="yes"/>
      <point x="1126" y="299"/>
      <point x="886" y="-12"/>
      <point x="683" y="-12" type="qcurve" smooth="yes"/>
      <point x="585" y="-12"/>
      <point x="434" y="49"/>
      <point x="391" y="89" type="qcurve"/>
      <point x="393" y="-309" type="line"/>
      <point x="530" y="-344" type="line"/>
      <point x="530" y="-480" type="line"/>
    </contour>
    <contour>
      <point x="391" y="262" type="line"/>
      <point x="422" y="207"/>
      <point x="554" y="126"/>
      <point x="644" y="126" type="qcurve" smooth="yes"/>
      <point x="764" y="126"/>
      <point x="903" y="343"/>
      <point x="903" y="530" type="qcurve" smooth="yes"/>
      <point x="903" y="710"/>
      <point x="765" y="913"/>
      <point x="648" y="913" type="qcurve" smooth="yes"/>
      <point x="559" y="913"/>
      <point x="431" y="834"/>
      <point x="392" y="774" type="qcurve"/>
      <point x="389" y="467" type="line"/>
    </contour>
  </outline>
</glyph>
<glyph name="q" format="2">
  <advance width="1165"/>
  <unicode hex="0071"/>
  <anchor x="545" y="0" name="bottom"/>
  <anchor x="545" y="1049" name="top"/>
  <outline>
    <contour>
      <point x="44" y="501" type="qcurve" smooth="yes"/>
      <point x="44" y="761"/>
      <point x="304" y="1069"/>
      <point x="515" y="1069" type="qcurve" smooth="yes"/>
      <point x="595" y="1069"/>
      <point x="751" y="1017"/>
      <point x="797" y="977" type="qcurve"/>
      <point x="854" y="1059" type="line"/>
      <point x="1123" y="1024" type="line"/>
      <point x="1123" y="875" type="line"/>
      <point x="988" y="841" type="line"/>
      <point x="981" y="449" type="line"/>
      <point x="983" y="-309" type="line"/>
      <point x="1121" y="-344" type="line"/>
      <point x="1121" y="-480" type="line"/>
      <point x="619" y="-480" type="line"/>
      <point x="619" y="-344" type="line"/>
      <point x="775" y="-309" type="line"/>
      <point x="780" y="137" type="line"/>
      <point x="729" y="72"/>
      <point x="564" y="-9"/>
      <point x="457" y="-9" type="qcurve" smooth="yes"/>
      <point x="282" y="-9"/>
      <point x="44" y="266"/>
    </contour>
    <contour>
      <point x="266" y="529" type="qcurve" smooth="yes"/>
      <point x="266" y="349"/>
      <point x="412" y="150"/>
      <point x="530" y="150" type="qcurve" smooth="yes"/>
      <point x="614" y="150"/>
      <point x="742" y="222"/>
      <point x="782" y="282" type="qcurve"/>
      <point x="784" y="824" type="line"/>
      <point x="752" y="874"/>
      <point x="638" y="934"/>
      <point x="552" y="934" type="qcurve" smooth="yes"/>
      <point x="426" y="934"/>
      <point x="266" y="705"/>
    </contour>
  </outline>
</glyph>
<glyph name="r" format="2">
  <advance width="829"/>
  <unicode hex="0072"/>
  <anchor x="398" y="0" name="bottom"/>
  <anchor x="475" y="1049" name="top"/>
  <outline>
    <contour>
      <point x="63" y="0" type="line"/>
      <point x="63" y="136" type="line"/>
      <point x="197" y="171" type="line"/>
      <point x="199" y="547" type="line"/>
      <point x="197" y="834" type="line"/>
      <point x="63" y="864" type="line"/>
      <point x="63" y="1014" type="line"/>
      <point x="345" y="1048" type="line"/>
      <point x="380" y="1021" type="line"/>
      <point x="405" y="908" type="line"/>
      <point x="455" y="960"/>
      <point x="613" y="1048"/>
      <point x="720" y="1048" type="qcurve" smooth="yes"/>
      <point x="820" y="1048" type="line"/>
      <point x="820" y="694" type="line"/>
      <point x="676" y="694" type="line"/>
      <point x="647" y="868" type="line"/>
      <point x="587" y="866"/>
      <point x="457" y="807"/>
      <point x="403" y="734" type="qcurve"/>
      <point x="403" y="527" type="line"/>
      <point x="405" y="171" type="line"/>
      <point x="548" y="136" type="line"/>
      <point x="548" y="0" type="line"/>
    </contour>
  </outline>
</glyph>
<glyph name="s" format="2">
  <advance width="814"/>
  <unicode hex="0073"/>
  <anchor x="406" y="0" name="bottom"/>
  <anchor x="376" y="1049" name="top"/>
  <outline>
    <contour>
      <point x="27" y="-17" type="line"/>
      <point x="27" y="396" type="line"/>
      <point x="170" y="396" type="line"/>
      <point x="181" y="302" type="line" smooth="yes"/>
      <point x="197" y="217"/>
      <point x="313" y="112"/>
      <point x="407" y="112" type="qcurve" smooth="yes"/>
      <point x="491" y="112"/>
      <point x="591" y="192"/>
      <point x="591" y="274" type="qcurve" smooth="yes"/>
      <point x="591" y="353"/>
      <point x="475" y="437"/>
      <point x="329" y="489" type="qcurve" smooth="yes"/>
      <point x="186" y="540"/>
      <point x="68" y="669"/>
      <point x="68" y="785" type="qcurve" smooth="yes"/>
      <point x="68" y="914"/>
      <point x="232" y="1071"/>
      <point x="373" y="1071" type="qcurve" smooth="yes"/>
      <point x="446" y="1071"/>
      <point x="547" y="1037"/>
      <point x="582" y="1008" type="qcurve"/>
      <point x="601" y="1066" type="line"/>
      <point x="725" y="1066" type="line"/>
      <point x="725" y="702" type="line"/>
      <point x="582" y="702" type="line"/>
      <point x="568" y="830" type="line" smooth="yes"/>
      <point x="561" y="874"/>
      <point x="471" y="944"/>
      <point x="404" y="944" type="qcurve" smooth="yes"/>
      <point x="336" y="944"/>
      <point x="256" y="881"/>
      <point x="256" y="822" type="qcurve" smooth="yes"/>
      <point x="256" y="764"/>
      <point x="338" y="697"/>
      <point x="471" y="645" type="qcurve" smooth="yes"/>
      <point x="608" y="591"/>
      <point x="782" y="452"/>
      <point x="782" y="307" type="qcurve" smooth="yes"/>
      <point x="782" y="156"/>
      <point x="598" y="-21"/>
      <point x="452" y="-21" type="qcurve" smooth="yes"/>
      <point x="363" y="-21"/>
      <point x="245" y="23"/>
      <point x="194" y="73" type="qcurve"/>
      <point x="154" y="-17" type="line"/>
    </contour>
  </outline>
</glyph>
<glyph name="t" format="2">
  <advance width="589"/>
  <unicode hex="0074"/>
  <anchor x="297" y="0" name="bottom"/>
  <anchor x="287" y="622" name="center"/>
  <anchor x="297" y="1179" name="top"/>
  <anchor x="537" y="1000" name="topright"/>
  <outline>
    <contour>
      <point x="19" y="892" type="line"/>
      <point x="19" y="1002" type="line"/>
      <point x="128" y="1030"/>
      <point x="232" y="1174"/>
      <point x="266" y="1236" type="qcurve"/>
      <point x="339" y="1236" type="line"/>
      <point x="372" y="1196" type="line"/>
      <point x="367" y="1030" type="line"/>
      <point x="546" y="1030" type="line"/>
      <point x="546" y="892" type="line"/>
      <point x="364" y="892" type="line"/>
      <point x="355" y="536" type="line"/>
      <point x="359" y="237" type="line" smooth="yes"/>
      <point x="360" y="176"/>
      <point x="409" y="137"/>
      <point x="483" y="137" type="qcurve" smooth="yes"/>
      <point x="546" y="137" type="line"/>
      <point x="546" y="29" type="line"/>
      <point x="298" y="-8" type="line"/>
      <point x="213" y="-8"/>
      <point x="150" y="73"/>
      <point x="150" y="163" type="qcurve" smooth="yes"/>
      <point x="150" y="535" type="line"/>
      <point x="150" y="880" type="line"/>
    </contour>
  </outline>
</glyph>
<glyph name="u" format="2">
  <advance width="1219"/>
  <unicode hex="0075"/>
  <anchor x="601" y="0" name="bottom"/>
  <anchor x="1030" y="20" name="ogonek"/>
  <anchor x="601" y="1049" name="top"/>
  <anchor x="1004" y="1049" name="topright"/>
  <outline>
    <contour>
      <point x="51" y="865" type="line"/>
      <point x="51" y="1015" type="line"/>
      <point x="333" y="1049" type="line"/>
      <point x="368" y="1049" type="line"/>
      <point x="393" y="1013" type="line"/>
      <point x="391" y="533" type="line"/>
      <point x="391" y="328" type="line" smooth="yes"/>
      <point x="391" y="262"/>
      <point x="481" y="153"/>
      <point x="564" y="153" type="qcurve" smooth="yes"/>
      <point x="633" y="153"/>
      <point x="776" y="229"/>
      <point x="822" y="305" type="qcurve"/>
      <point x="823" y="533" type="line"/>
      <point x="821" y="835" type="line"/>
      <point x="696" y="865" type="line"/>
      <point x="696" y="1015" type="line"/>
      <point x="969" y="1049" type="line"/>
      <point x="1004" y="1049" type="line"/>
      <point x="1029" y="1013" type="line"/>
      <point x="1027" y="502" type="line"/>
      <point x="1029" y="195" type="line"/>
      <point x="1163" y="165" type="line"/>
      <point x="1163" y="34" type="line"/>
      <point x="881" y="0" type="line"/>
      <point x="846" y="27" type="line"/>
      <point x="822" y="147" type="line"/>
      <point x="767" y="72"/>
      <point x="583" y="-21"/>
      <point x="484" y="-21" type="qcurve" smooth="yes"/>
      <point x="335" y="-21"/>
      <point x="185" y="128"/>
      <point x="185" y="258" type="qcurve" smooth="yes"/>
      <point x="185" y="330"/>
      <point x="190" y="477"/>
      <point x="190" y="502" type="qcurve" smooth="yes"/>
      <point x="185" y="835" type="line"/>
    </contour>
  </outline>
</glyph>
<glyph name="v" format="2">
  <advance width="1042"/>
  <unicode hex="0076"/>
  <anchor x="527" y="0" name="bottom"/>
  <anchor x="519" y="1049" name="top"/>
  <outline>
    <contour>
      <point x="1" y="903" type="line"/>
      <point x="1" y="1049" type="line"/>
      <point x="440" y="1049" type="line"/>
      <point x="440" y="903" type="line"/>
      <point x="340" y="866" type="line"/>
      <point x="427" y="562" type="line"/>
      <point x="502" y="312" type="line"/>
      <point x="533" y="198" type="line"/>
      <point x="543" y="198" type="line"/>
      <point x="574" y="312" type="line"/>
      <point x="651" y="566" type="line"/>
      <point x="738" y="873" type="line"/>
      <point x="634" y="903" type="line"/>
      <point x="634" y="1049" type="line"/>
      <point x="1058" y="1049" type="line"/>
      <point x="1058" y="903" type="line"/>
      <point x="902" y="868" type="line"/>
      <point x="789" y="523" type="line"/>
      <point x="619" y="-8" type="line"/>
      <point x="423" y="-8" type="line"/>
      <point x="253" y="503" type="line"/>
      <point x="130" y="868" type="line"/>
    </contour>
  </outline>
</glyph>
<glyph name="w" format="2">
  <advance width="1572"/>
  <unicode hex="0077"/>
  <anchor x="775" y="0" name="bottom"/>
  <anchor x="775" y="1049" name="top"/>
  <outline>
    <contour>
      <point x="415" y="-8" type="line"/>
      <point x="252" y="500" type="line"/>
      <point x="132" y="868" type="line"/>
      <point x="3" y="903" type="line"/>
      <point x="3" y="1049" type="line"/>
      <point x="440" y="1049" type="line"/>
      <point x="440" y="903" type="line"/>
      <point x="339" y="866" type="line"/>
      <point x="425" y="547" type="line"/>
      <point x="499" y="306" type="line"/>
      <point x="530" y="192" type="line"/>
      <point x="540" y="192" type="line"/>
      <point x="571" y="306" type="line"/>
      <point x="630" y="497" type="line"/>
      <point x="703" y="749" type="line"/>
      <point x="667" y="870" type="line"/>
      <point x="552" y="903" type="line"/>
      <point x="552" y="1049" type="line"/>
      <point x="982" y="1049" type="line"/>
      <point x="982" y="903" type="line"/>
      <point x="881" y="866" type="line"/>
      <point x="983" y="498" type="line"/>
      <point x="1043" y="307" type="line"/>
      <point x="1074" y="193" type="line"/>
      <point x="1084" y="193" type="line"/>
      <point x="1114" y="307" type="line"/>
      <point x="1192" y="556" type="line"/>
      <point x="1279" y="873" type="line"/>
      <point x="1174" y="903" type="line"/>
      <point x="1174" y="1049" type="line"/>
      <point x="1588" y="1049" type="line"/>
      <point x="1588" y="903" type="line"/>
      <point x="1432" y="868" type="line"/>
      <point x="1321" y="517" type="line"/>
      <point x="1157" y="-8" type="line"/>
      <point x="964" y="-8" type="line"/>
      <point x="820" y="439" type="line"/>
      <point x="788" y="553" type="line"/>
      <point x="778" y="553" type="line"/>
      <point x="747" y="439" type="line"/>
      <point x="608" y="-8" type="line"/>
    </contour>
  </outline>
</glyph>
<glyph name="x" format="2">
  <advance width="1075"/>
  <unicode hex="0078"/>
  <anchor x="514" y="0" name="bottom"/>
  <anchor x="514" y="1049" name="top"/>
  <outline>
    <contour>
      <point x="30" y="0" type="line"/>
      <point x="30" y="136" type="line"/>
      <point x="215" y="171" type="line"/>
      <point x="420" y="503" type="line"/>
      <point x="180" y="868" type="line"/>
      <point x="30" y="903" type="line"/>
      <point x="30" y="1049" type="line"/>
      <point x="470" y="1049" type="line"/>
      <point x="470" y="904" type="line"/>
      <point x="393" y="878" type="line"/>
      <point x="479" y="743" type="line"/>
      <point x="542" y="641" type="line"/>
      <point x="552" y="641" type="line"/>
      <point x="608" y="743" type="line"/>
      <point x="685" y="880" type="line"/>
      <point x="595" y="903" type="line"/>
      <point x="595" y="1049" type="line"/>
      <point x="1023" y="1049" type="line"/>
      <point x="1023" y="903" type="line"/>
      <point x="847" y="868" type="line"/>
      <point x="649" y="549" type="line"/>
      <point x="900" y="171" type="line"/>
      <point x="1060" y="136" type="line"/>
      <point x="1060" y="0" type="line"/>
      <point x="612" y="0" type="line"/>
      <point x="612" y="136" type="line"/>
      <point x="688" y="160" type="line"/>
      <point x="589" y="314" type="line"/>
      <point x="528" y="411" type="line"/>
      <point x="518" y="411" type="line"/>
      <point x="465" y="314" type="line"/>
      <point x="377" y="158" type="line"/>
      <point x="459" y="136" type="line"/>
      <point x="459" y="0" type="line"/>
    </contour>
  </outline>
</glyph>
<glyph name="y" format="2">
  <advance width="1042"/>
  <unicode hex="0079"/>
  <anchor x="792" y="0" name="bottom"/>
  <anchor x="534" y="1049" name="top"/>
  <outline>
    <contour>
      <point x="1" y="903" type="line"/>
      <point x="1" y="1049" type="line"/>
      <point x="440" y="1049" type="line"/>
      <point x="440" y="903" type="line"/>
      <point x="340" y="866" type="line"/>
      <point x="427" y="568" type="line"/>
      <point x="502" y="319" type="line"/>
      <point x="534" y="205" type="line"/>
      <point x="544" y="205" type="line"/>
      <point x="575" y="319" type="line"/>
      <point x="651" y="571" type="line"/>
      <point x="738" y="873" type="line"/>
      <point x="634" y="903" type="line"/>
      <point x="634" y="1049" type="line"/>
      <point x="1058" y="1049" type="line"/>
      <point x="1058" y="903" type="line"/>
      <point x="902" y="868" type="line"/>
      <point x="789" y="529" type="line"/>
      <point x="523" y="-287" type="line" smooth="yes"/>
      <point x="486" y="-399"/>
      <point x="324" y="-492"/>
      <point x="227" y="-492" type="qcurve"/>
      <point x="71" y="-460" type="line"/>
      <point x="71" y="-338" type="line"/>
      <point x="168" y="-338" type="line" smooth="yes"/>
      <point x="222" y="-338"/>
      <point x="375" y="-283"/>
      <point x="407" y="-176" type="qcurve" smooth="yes"/>
      <point x="463" y="0" type="line"/>
      <point x="424" y="0" type="line"/>
      <point x="252" y="509" type="line"/>
      <point x="130" y="868" type="line"/>
    </contour>
  </outline>
</glyph>
<glyph name="z" format="2">
  <advance width="842"/>
  <unicode hex="007A"/>
  <anchor x="446" y="0" name="bottom"/>
  <anchor x="446" y="1049" name="top"/>
  <outline>
    <contour>
      <point x="23" y="0" type="line"/>
      <point x="23" y="90" type="line"/>
      <point x="543" y="904" type="line"/>
      <point x="222" y="904" type="line"/>
      <point x="195" y="708" type="line"/>
      <point x="51" y="708" type="line"/>
      <point x="51" y="1049" type="line"/>
      <point x="802" y="1049" type="line"/>
      <point x="802" y="960" type="line"/>
      <point x="270" y="145" type="line"/>
      <point x="647" y="145" type="line"/>
      <point x="674" y="341" type="line"/>
      <point x="818" y="341" type="line"/>
      <point x="818" y="0" type="line"/>
    </contour>
  </outline>
</glyph>
<glyph name="braceleft" format="2">
  <advance width="667"/>
  <unicode hex="007B"/>
  <outline>
    <contour>
      <point x="38" y="471" type="line"/>
      <point x="38" y="602" type="line"/>
      <point x="153" y="612" type="line" smooth="yes"/>
      <point x="209" y="617"/>
      <point x="257" y="672"/>
      <point x="257" y="727" type="qcurve" smooth="yes"/>
      <point x="257" y="843"/>
      <point x="140" y="1071"/>
      <point x="140" y="1187" type="qcurve" smooth="yes"/>
      <point x="140" y="1343"/>
      <point x="319" y="1510"/>
      <point x="481" y="1510" type="qcurve" smooth="yes"/>
      <point x="563" y="1510"/>
      <point x="620" y="1503"/>
      <point x="657" y="1500" type="qcurve"/>
      <point x="657" y="1345" type="line"/>
      <point x="605" y="1347"/>
      <point x="567" y="1347"/>
      <point x="518" y="1347" type="qcurve" smooth="yes"/>
      <point x="436" y="1347"/>
      <point x="349" y="1258"/>
      <point x="349" y="1167" type="qcurve" smooth="yes"/>
      <point x="349" y="1070"/>
      <point x="440" y="872"/>
      <point x="440" y="786" type="qcurve" smooth="yes"/>
      <point x="440" y="697"/>
      <point x="375" y="571"/>
      <point x="324" y="550" type="qcurve"/>
      <point x="387" y="516"/>
      <point x="440" y="384"/>
      <point x="440" y="318" type="qcurve" smooth="yes"/>
      <point x="440" y="232"/>
      <point x="319" y="-52"/>
      <point x="319" y="-149" type="qcurve" smooth="yes"/>
      <point x="319" y="-241"/>
      <point x="411" y="-332"/>
      <point x="493" y="-332" type="qcurve" smooth="yes"/>
      <point x="542" y="-332"/>
      <point x="600" y="-332"/>
      <point x="652" y="-330" type="qcurve"/>
      <point x="652" y="-484" type="line"/>
      <point x="615" y="-487"/>
      <point x="538" y="-495"/>
      <point x="456" y="-495" type="qcurve" smooth="yes"/>
      <point x="294" y="-495"/>
      <point x="110" y="-327"/>
      <point x="110" y="-168" type="qcurve" smooth="yes"/>
      <point x="110" y="-50"/>
      <point x="256" y="246"/>
      <point x="256" y="364" type="qcurve"/>
      <point x="256" y="471" type="line"/>
    </contour>
  </outline>
</glyph>
<glyph name="bar" format="2">
  <advance width="505"/>
  <unicode hex="007C"/>
  <outline>
    <contour>
      <point x="166" y="-540" type="line"/>
      <point x="169" y="-58" type="line"/>
      <point x="175" y="250" type="line"/>
      <point x="173" y="830" type="line"/>
      <point x="166" y="1138" type="line"/>
      <point x="164" y="1480" type="line"/>
      <point x="344" y="1550" type="line"/>
      <point x="339" y="1138" type="line"/>
      <point x="329" y="830" type="line"/>
      <point x="331" y="250" type="line"/>
      <point x="340" y="-58" type="line"/>
      <point x="342" y="-470" type="line"/>
    </contour>
  </outline>
</glyph>
<glyph name="braceright" format="2">
  <advance width="667"/>
  <unicode hex="007D"/>
  <outline>
    <contour>
      <point x="15" y="-484" type="qcurve"/>
      <point x="15" y="-330" type="line"/>
      <point x="67" y="-332"/>
      <point x="112" y="-332"/>
      <point x="160" y="-332" type="qcurve" smooth="yes"/>
      <point x="243" y="-332"/>
      <point x="331" y="-242"/>
      <point x="331" y="-149" type="qcurve" smooth="yes"/>
      <point x="331" y="-53"/>
      <point x="227" y="232"/>
      <point x="227" y="318" type="qcurve" smooth="yes"/>
      <point x="227" y="384"/>
      <point x="280" y="516"/>
      <point x="343" y="550" type="qcurve"/>
      <point x="292" y="571"/>
      <point x="227" y="697"/>
      <point x="227" y="786" type="qcurve" smooth="yes"/>
      <point x="227" y="872"/>
      <point x="329" y="1070"/>
      <point x="329" y="1166" type="qcurve" smooth="yes"/>
      <point x="329" y="1258"/>
      <point x="243" y="1346"/>
      <point x="162" y="1346" type="qcurve" smooth="yes"/>
      <point x="112" y="1346"/>
      <point x="62" y="1346"/>
      <point x="10" y="1345" type="qcurve"/>
      <point x="10" y="1500" type="line"/>
      <point x="47" y="1503"/>
      <point x="117" y="1510"/>
      <point x="199" y="1510" type="qcurve" smooth="yes"/>
      <point x="360" y="1510"/>
      <point x="537" y="1343"/>
      <point x="537" y="1187" type="qcurve" smooth="yes"/>
      <point x="537" y="1071"/>
      <point x="409" y="843"/>
      <point x="409" y="727" type="qcurve" smooth="yes"/>
      <point x="409" y="672"/>
      <point x="458" y="617"/>
      <point x="514" y="612" type="qcurve" smooth="yes"/>
      <point x="628" y="602" type="line"/>
      <point x="628" y="471" type="line"/>
      <point x="410" y="471" type="line"/>
      <point x="410" y="364" type="line"/>
      <point x="410" y="246"/>
      <point x="542" y="-50"/>
      <point x="542" y="-168" type="qcurve" smooth="yes"/>
      <point x="542" y="-327"/>
      <point x="360" y="-495"/>
      <point x="198" y="-495" type="qcurve" smooth="yes"/>
      <point x="116" y="-495"/>
      <point x="52" y="-487"/>
    </contour>
  </outline>
</glyph>
<glyph name="asciitilde" format="2">
  <advance width="990"/>
  <unicode hex="007E"/>
  <outline>
    <contour>
      <point x="24" y="607" type="line"/>
      <point x="82" y="700"/>
      <point x="254" y="823"/>
      <point x="335" y="823" type="qcurve"/>
      <point x="670" y="694" type="line"/>
      <point x="722" y="693"/>
      <point x="799" y="772"/>
      <point x="829" y="826" type="qcurve"/>
      <point x="966" y="757" type="line"/>
      <point x="920" y="653"/>
      <point x="783" y="504"/>
      <point x="661" y="504" type="qcurve"/>
      <point x="342" y="627" type="line"/>
      <point x="288" y="629"/>
      <point x="187" y="581"/>
      <point x="136" y="529" type="qcurve"/>
    </contour>
  </outline>
</glyph>
<glyph name="exclamdown" format="2">
  <advance width="482"/>
  <unicode hex="00A1"/>
  <outline>
    <contour>
      <point x="385" y="1205" type="qcurve" smooth="yes"/>
      <point x="385" y="1147"/>
      <point x="304" y="1061"/>
      <point x="241" y="1061" type="qcurve" smooth="yes"/>
      <point x="178" y="1061"/>
      <point x="97" y="1147"/>
      <point x="97" y="1205" type="qcurve" smooth="yes"/>
      <point x="97" y="1262"/>
      <point x="178" y="1348"/>
      <point x="241" y="1348" type="qcurve" smooth="yes"/>
      <point x="304" y="1348"/>
      <point x="385" y="1262"/>
    </contour>
    <contour>
      <point x="335" y="-95" type="line" smooth="yes"/>
      <point x="338" y="-163"/>
      <point x="298" y="-250"/>
      <point x="243" y="-251" type="qcurve" smooth="yes"/>
      <point x="188" y="-252"/>
      <point x="144" y="-165"/>
      <point x="147" y="-96" type="qcurve" smooth="yes"/>
      <point x="161" y="218" type="line"/>
      <point x="182" y="526" type="line"/>
      <point x="195" y="891" type="line"/>
      <point x="289" y="891" type="line"/>
      <point x="302" y="526" type="line"/>
      <point x="321" y="218" type="line"/>
    </contour>
  </outline>
</glyph>
<glyph name="cent" format="2">
  <advance width="902"/>
  <unicode hex="00A2"/>
  <outline>
    <contour>
      <point x="42" y="475" type="qcurve" smooth="yes"/>
      <point x="42" y="714"/>
      <point x="294" y="1022"/>
      <point x="513" y="1022" type="qcurve" smooth="yes"/>
      <point x="571" y="1022"/>
      <point x="682" y="989"/>
      <point x="709" y="965" type="qcurve"/>
      <point x="739" y="1019" type="line"/>
      <point x="824" y="990" type="line"/>
      <point x="840" y="664" type="line"/>
      <point x="742" y="647" type="line"/>
      <point x="726" y="715" type="line" smooth="yes"/>
      <point x="706" y="794"/>
      <point x="589" y="911"/>
      <point x="525" y="911" type="qcurve" smooth="yes"/>
      <point x="405" y="911"/>
      <point x="259" y="711"/>
      <point x="259" y="517" type="qcurve" smooth="yes"/>
      <point x="259" y="314"/>
      <point x="431" y="105"/>
      <point x="579" y="105" type="qcurve" smooth="yes"/>
      <point x="669" y="105"/>
      <point x="791" y="174"/>
      <point x="839" y="228" type="qcurve"/>
      <point x="893" y="173" type="line"/>
      <point x="848" y="102"/>
      <point x="668" y="-22"/>
      <point x="529" y="-22" type="qcurve" smooth="yes"/>
      <point x="308" y="-22"/>
      <point x="42" y="246"/>
    </contour>
    <contour>
      <point x="447" y="-210" type="line"/>
      <point x="447" y="52" type="line"/>
      <point x="474" y="52" type="line"/>
      <point x="474" y="520" type="line"/>
      <point x="578" y="478" type="line"/>
      <point x="578" y="52" type="line"/>
      <point x="607" y="52" type="line"/>
      <point x="607" y="-160" type="line"/>
    </contour>
    <contour>
      <point x="446" y="1170" type="line"/>
      <point x="606" y="1209" type="line"/>
      <point x="606" y="988" type="line"/>
      <point x="578" y="988" type="line"/>
      <point x="578" y="478" type="line"/>
      <point x="474" y="520" type="line"/>
      <point x="474" y="988" type="line"/>
      <point x="446" y="988" type="line"/>
    </contour>
  </outline>
</glyph>
<glyph name="sterling" format="2">
  <advance width="1007"/>
  <unicode hex="00A3"/>
  <outline>
    <contour>
      <point x="592" y="550" type="qcurve" smooth="yes"/>
      <point x="592" y="414"/>
      <point x="467" y="185"/>
      <point x="392" y="141" type="qcurve"/>
      <point x="400" y="108" type="line"/>
      <point x="732" y="108" type="line"/>
      <point x="866" y="372" type="line"/>
      <point x="978" y="372" type="line"/>
      <point x="879" y="0" type="line"/>
      <point x="70" y="0" type="line"/>
      <point x="10" y="100" type="line"/>
      <point x="37" y="125" type="line"/>
      <point x="202" y="114"/>
      <point x="373" y="346"/>
      <point x="373" y="434" type="qcurve" smooth="yes"/>
      <point x="373" y="524"/>
      <point x="309" y="676"/>
      <point x="266" y="747" type="qcurve" smooth="yes"/>
      <point x="208" y="842"/>
      <point x="96" y="1039"/>
      <point x="96" y="1146" type="qcurve" smooth="yes"/>
      <point x="96" y="1279"/>
      <point x="330" y="1501"/>
      <point x="507" y="1501" type="qcurve" smooth="yes"/>
      <point x="654" y="1501"/>
      <point x="842" y="1404"/>
      <point x="915" y="1323" type="qcurve"/>
      <point x="834" y="1222" type="line"/>
      <point x="783" y="1279"/>
      <point x="640" y="1371"/>
      <point x="540" y="1371" type="qcurve" smooth="yes"/>
      <point x="426" y="1371"/>
      <point x="309" y="1246"/>
      <point x="309" y="1163" type="qcurve" smooth="yes"/>
      <point x="309" y="1087"/>
      <point x="407" y="923"/>
      <point x="464" y="836" type="qcurve" smooth="yes"/>
      <point x="513" y="759"/>
      <point x="592" y="609"/>
    </contour>
    <contour>
      <point x="158" y="571" type="line"/>
      <point x="134" y="707" type="line"/>
      <point x="839" y="707" type="line"/>
      <point x="809" y="571" type="line"/>
    </contour>
  </outline>
</glyph>
<glyph name="currency" format="2">
  <advance width="1339"/>
  <unicode hex="00A4"/>
  <outline>
    <contour>
      <point x="138" y="760" type="qcurve" smooth="yes"/>
      <point x="138" y="977"/>
      <point x="424" y="1282"/>
      <point x="656" y="1282" type="qcurve" smooth="yes"/>
      <point x="889" y="1282"/>
      <point x="1178" y="997"/>
      <point x="1178" y="766" type="qcurve" smooth="yes"/>
      <point x="1178" y="550"/>
      <point x="894" y="238"/>
      <point x="662" y="238" type="qcurve" smooth="yes"/>
      <point x="429" y="238"/>
      <point x="138" y="527"/>
    </contour>
    <contour>
      <point x="290" y="779" type="qcurve" smooth="yes"/>
      <point x="291" y="609"/>
      <point x="490" y="374"/>
      <point x="654" y="374" type="qcurve" smooth="yes"/>
      <point x="830" y="374"/>
      <point x="1020" y="588"/>
      <point x="1020" y="765" type="qcurve" smooth="yes"/>
      <point x="1020" y="928"/>
      <point x="821" y="1140"/>
      <point x="656" y="1140" type="qcurve" smooth="yes"/>
      <point x="478" y="1140"/>
      <point x="289" y="947"/>
    </contour>
    <contour>
      <point x="292" y="1018" type="line"/>
      <point x="31" y="1279" type="line"/>
      <point x="147" y="1402" type="line"/>
      <point x="408" y="1141" type="line"/>
    </contour>
    <contour>
      <point x="1047" y="1018" type="line"/>
      <point x="931" y="1141" type="line"/>
      <point x="1192" y="1402" type="line"/>
      <point x="1308" y="1279" type="line"/>
    </contour>
    <contour>
      <point x="292" y="482" type="line"/>
      <point x="408" y="359" type="line"/>
      <point x="147" y="98" type="line"/>
      <point x="31" y="221" type="line"/>
    </contour>
    <contour>
      <point x="1047" y="482" type="line"/>
      <point x="1308" y="221" type="line"/>
      <point x="1192" y="98" type="line"/>
      <point x="931" y="359" type="line"/>
    </contour>
  </outline>
</glyph>
<glyph name="yen" format="2">
  <advance width="1248"/>
  <unicode hex="00A5"/>
  <outline>
    <contour>
      <point x="147" y="631" type="line"/>
      <point x="117" y="757" type="line"/>
      <point x="1131" y="757" type="line"/>
      <point x="1101" y="631" type="line"/>
    </contour>
    <contour>
      <point x="518" y="662" type="line"/>
      <point x="354" y="988" type="line"/>
      <point x="153" y="1360" type="line"/>
      <point x="-2" y="1386" type="line"/>
      <point x="-2" y="1500" type="line"/>
      <point x="550" y="1500" type="line"/>
      <point x="550" y="1386" type="line"/>
      <point x="401" y="1351" type="line"/>
      <point x="538" y="1063" type="line"/>
      <point x="675" y="811" type="line"/>
      <point x="806" y="1078" type="line"/>
      <point x="936" y="1358" type="line"/>
      <point x="756" y="1386" type="line"/>
      <point x="756" y="1500" type="line"/>
      <point x="1250" y="1500" type="line"/>
      <point x="1250" y="1386" type="line"/>
      <point x="1090" y="1359" type="line"/>
      <point x="909" y="1019" type="line"/>
      <point x="734" y="667" type="line"/>
      <point x="736" y="135" type="line"/>
      <point x="954" y="100" type="line"/>
      <point x="954" y="0" type="line"/>
      <point x="295" y="0" type="line"/>
      <point x="295" y="100" type="line"/>
      <point x="516" y="135" type="line"/>
    </contour>
    <contour>
      <point x="207" y="331" type="line"/>
      <point x="177" y="457" type="line"/>
      <point x="1071" y="457" type="line"/>
      <point x="1041" y="331" type="line"/>
    </contour>
  </outline>
</glyph>
<glyph name="section" format="2">
  <advance width="1001"/>
  <unicode hex="00A7"/>
  <outline>
    <contour>
      <point x="937" y="137" type="qcurve" smooth="yes"/>
      <point x="937" y="-35"/>
      <point x="723" y="-253"/>
      <point x="544" y="-253" type="qcurve" smooth="yes"/>
      <point x="431" y="-253"/>
      <point x="265" y="-187"/>
      <point x="214" y="-135" type="qcurve"/>
      <point x="173" y="-235" type="line"/>
      <point x="77" y="-235" type="line"/>
      <point x="77" y="196" type="line"/>
      <point x="183" y="196" type="line"/>
      <point x="201" y="103" type="line" smooth="yes"/>
      <point x="226" y="-27"/>
      <point x="407" y="-134"/>
      <point x="531" y="-134" type="qcurve" smooth="yes"/>
      <point x="666" y="-134"/>
      <point x="785" y="-9"/>
      <point x="785" y="95" type="qcurve" smooth="yes"/>
      <point x="785" y="220"/>
      <point x="623" y="334"/>
      <point x="452" y="401" type="qcurve" smooth="yes"/>
      <point x="293" y="464"/>
      <point x="119" y="634"/>
      <point x="119" y="776" type="qcurve" smooth="yes"/>
      <point x="119" y="860"/>
      <point x="187" y="1003"/>
      <point x="247" y="1049" type="qcurve"/>
      <point x="206" y="1086"/>
      <point x="171" y="1179"/>
      <point x="171" y="1239" type="qcurve" smooth="yes"/>
      <point x="171" y="1349"/>
      <point x="340" y="1512"/>
      <point x="493" y="1512" type="qcurve" smooth="yes"/>
      <point x="570" y="1512"/>
      <point x="678" y="1472"/>
      <point x="716" y="1449" type="qcurve"/>
      <point x="730" y="1480" type="line"/>
      <point x="821" y="1480" type="line"/>
      <point x="821" y="1184" type="line"/>
      <point x="715" y="1184" type="line"/>
      <point x="694" y="1297" type="line" smooth="yes"/>
      <point x="686" y="1341"/>
      <point x="579" y="1401"/>
      <point x="497" y="1401" type="qcurve" smooth="yes"/>
      <point x="406" y="1401"/>
      <point x="323" y="1329"/>
      <point x="323" y="1270" type="qcurve" smooth="yes"/>
      <point x="323" y="1208"/>
      <point x="410" y="1141"/>
      <point x="567" y="1097" type="qcurve" smooth="yes"/>
      <point x="721" y="1054"/>
      <point x="906" y="912"/>
      <point x="906" y="767" type="qcurve" smooth="yes"/>
      <point x="906" y="668"/>
      <point x="787" y="516"/>
      <point x="683" y="485" type="qcurve"/>
      <point x="796" y="430"/>
      <point x="937" y="268"/>
    </contour>
    <contour>
      <point x="259" y="810" type="qcurve" smooth="yes"/>
      <point x="259" y="732"/>
      <point x="369" y="615"/>
      <point x="529" y="551" type="qcurve"/>
      <point x="629" y="551"/>
      <point x="762" y="657"/>
      <point x="762" y="740" type="qcurve" smooth="yes"/>
      <point x="762" y="824"/>
      <point x="624" y="899"/>
      <point x="460" y="947" type="qcurve" smooth="yes"/>
      <point x="433" y="955"/>
      <point x="386" y="971"/>
      <point x="365" y="980" type="qcurve"/>
      <point x="315" y="958"/>
      <point x="259" y="870"/>
    </contour>
  </outline>
</glyph>
<glyph name="copyright" format="2">
  <advance width="1956"/>
  <unicode hex="00A9"/>
  <outline>
    <contour>
      <point x="503" y="662" type="qcurve" smooth="yes"/>
      <point x="503" y="901"/>
      <point x="764" y="1209"/>
      <point x="990" y="1209" type="qcurve" smooth="yes"/>
      <point x="1053" y="1209"/>
      <point x="1174" y="1176"/>
      <point x="1204" y="1152" type="qcurve"/>
      <point x="1236" y="1206" type="line"/>
      <point x="1324" y="1177" type="line"/>
      <point x="1340" y="851" type="line"/>
      <point x="1242" y="834" type="line"/>
      <point x="1193" y="1019" type="line"/>
      <point x="1151" y="1053"/>
      <point x="1048" y="1098"/>
      <point x="991" y="1098" type="qcurve" smooth="yes"/>
      <point x="852" y="1098"/>
      <point x="683" y="898"/>
      <point x="683" y="704" type="qcurve" smooth="yes"/>
      <point x="683" y="502"/>
      <point x="883" y="295"/>
      <point x="1014" y="295" type="qcurve" smooth="yes"/>
      <point x="1133" y="295"/>
      <point x="1316" y="398"/>
      <point x="1364" y="455" type="qcurve"/>
      <point x="1424" y="380" type="line"/>
      <point x="1362" y="287"/>
      <point x="1124" y="165"/>
      <point x="1014" y="165" type="qcurve" smooth="yes"/>
      <point x="783" y="165"/>
      <point x="503" y="433"/>
    </contour>
    <contour>
      <point x="55" y="685" type="qcurve" smooth="yes"/>
      <point x="55" y="1061"/>
      <point x="576" y="1570"/>
      <point x="980" y="1570" type="qcurve" smooth="yes"/>
      <point x="1382" y="1570"/>
      <point x="1901" y="1087"/>
      <point x="1901" y="706" type="qcurve" smooth="yes"/>
      <point x="1901" y="288"/>
      <point x="1389" y="-242"/>
      <point x="992" y="-242" type="qcurve" smooth="yes"/>
      <point x="583" y="-242"/>
      <point x="55" y="276"/>
    </contour>
    <contour>
      <point x="220" y="681" type="qcurve" smooth="yes"/>
      <point x="220" y="335"/>
      <point x="677" y="-118"/>
      <point x="1008" y="-118" type="qcurve" smooth="yes"/>
      <point x="1329" y="-118"/>
      <point x="1736" y="360"/>
      <point x="1736" y="698" type="qcurve" smooth="yes"/>
      <point x="1736" y="1007"/>
      <point x="1306" y="1446"/>
      <point x="960" y="1446" type="qcurve" smooth="yes"/>
      <point x="632" y="1446"/>
      <point x="220" y="998"/>
    </contour>
  </outline>
</glyph>
<glyph name="ordfeminine" format="2">
  <advance width="894"/>
  <unicode hex="00AA"/>
  <outline>
    <contour>
      <point x="36" y="891" type="qcurve" smooth="yes"/>
      <point x="36" y="1006"/>
      <point x="314" y="1180"/>
      <point x="584" y="1215" type="qcurve"/>
      <point x="591" y="1128" type="line"/>
      <point x="426" y="1104"/>
      <point x="222" y="1012"/>
      <point x="222" y="899" type="qcurve" smooth="yes"/>
      <point x="222" y="837"/>
      <point x="300" y="782"/>
      <point x="351" y="782" type="qcurve" smooth="yes"/>
      <point x="409" y="782"/>
      <point x="536" y="860"/>
      <point x="561" y="905" type="qcurve"/>
      <point x="563" y="1202" type="line" smooth="yes"/>
      <point x="564" y="1351"/>
      <point x="485" y="1440"/>
      <point x="412" y="1440" type="qcurve" smooth="yes"/>
      <point x="344" y="1440"/>
      <point x="256" y="1406"/>
      <point x="229" y="1383" type="qcurve"/>
      <point x="248" y="1365"/>
      <point x="271" y="1328"/>
      <point x="272" y="1310" type="qcurve" smooth="yes"/>
      <point x="278" y="1274"/>
      <point x="231" y="1228"/>
      <point x="189" y="1228" type="qcurve" smooth="yes"/>
      <point x="147" y="1228"/>
      <point x="95" y="1292"/>
      <point x="95" y="1348" type="qcurve" smooth="yes"/>
      <point x="95" y="1429"/>
      <point x="291" y="1543"/>
      <point x="421" y="1543" type="qcurve" smooth="yes"/>
      <point x="578" y="1543"/>
      <point x="736" y="1386"/>
      <point x="738" y="1194" type="qcurve" smooth="yes"/>
      <point x="743" y="780" type="line"/>
      <point x="873" y="751" type="line"/>
      <point x="873" y="684" type="line"/>
      <point x="628" y="684" type="line"/>
      <point x="584" y="734" type="line"/>
      <point x="573" y="791" type="line"/>
      <point x="534" y="748"/>
      <point x="369" y="670"/>
      <point x="275" y="670" type="qcurve" smooth="yes"/>
      <point x="168" y="670"/>
      <point x="36" y="801"/>
    </contour>
  </outline>
</glyph>
<glyph name="guillemotleft" format="2">
  <advance width="1303"/>
  <unicode hex="00AB"/>
  <outline>
    <contour>
      <point x="25" y="624" type="line"/>
      <point x="109" y="672"/>
      <point x="606" y="979"/>
      <point x="678" y="1024" type="qcurve" smooth="yes"/>
      <point x="748" y="1068"/>
      <point x="828" y="973"/>
      <point x="764" y="925" type="qcurve" smooth="yes"/>
      <point x="676" y="860"/>
      <point x="335" y="635"/>
      <point x="303" y="613" type="qcurve"/>
      <point x="335" y="586"/>
      <point x="679" y="349"/>
      <point x="768" y="283" type="qcurve" smooth="yes"/>
      <point x="831" y="237"/>
      <point x="770" y="136"/>
      <point x="697" y="174" type="qcurve" smooth="yes"/>
      <point x="631" y="208"/>
      <point x="100" y="536"/>
      <point x="25" y="584" type="qcurve"/>
    </contour>
    <contour>
      <point x="494" y="624" type="line"/>
      <point x="578" y="672"/>
      <point x="1075" y="979"/>
      <point x="1147" y="1024" type="qcurve" smooth="yes"/>
      <point x="1217" y="1068"/>
      <point x="1297" y="973"/>
      <point x="1233" y="925" type="qcurve" smooth="yes"/>
      <point x="1146" y="860"/>
      <point x="804" y="635"/>
      <point x="772" y="613" type="qcurve"/>
      <point x="804" y="586"/>
      <point x="1148" y="349"/>
      <point x="1237" y="283" type="qcurve" smooth="yes"/>
      <point x="1300" y="237"/>
      <point x="1239" y="136"/>
      <point x="1166" y="174" type="qcurve" smooth="yes"/>
      <point x="1100" y="208"/>
      <point x="569" y="536"/>
      <point x="494" y="584" type="qcurve"/>
    </contour>
  </outline>
</glyph>
<glyph name="logicalnot" format="2">
  <advance width="949"/>
  <unicode hex="00AC"/>
  <outline>
    <contour>
      <point x="34" y="708" type="line"/>
      <point x="898" y="708" type="line"/>
      <point x="898" y="200" type="line"/>
      <point x="738" y="200" type="line"/>
      <point x="738" y="556" type="line"/>
      <point x="34" y="556" type="line"/>
    </contour>
  </outline>
</glyph>
<glyph name="registered" format="2">
  <advance width="1972"/>
  <unicode hex="00AE"/>
  <outline>
    <contour>
      <point x="63" y="685" type="qcurve" smooth="yes"/>
      <point x="63" y="1061"/>
      <point x="584" y="1570"/>
      <point x="988" y="1570" type="qcurve" smooth="yes"/>
      <point x="1390" y="1570"/>
      <point x="1909" y="1087"/>
      <point x="1909" y="706" type="qcurve" smooth="yes"/>
      <point x="1909" y="288"/>
      <point x="1397" y="-242"/>
      <point x="1000" y="-242" type="qcurve" smooth="yes"/>
      <point x="591" y="-242"/>
      <point x="63" y="276"/>
    </contour>
    <contour>
      <point x="228" y="681" type="qcurve" smooth="yes"/>
      <point x="228" y="335"/>
      <point x="685" y="-118"/>
      <point x="1016" y="-118" type="qcurve" smooth="yes"/>
      <point x="1337" y="-118"/>
      <point x="1744" y="360"/>
      <point x="1744" y="698" type="qcurve" smooth="yes"/>
      <point x="1744" y="1007"/>
      <point x="1314" y="1446"/>
      <point x="968" y="1446" type="qcurve" smooth="yes"/>
      <point x="640" y="1446"/>
      <point x="228" y="998"/>
    </contour>
    <contour>
      <point x="557" y="176" type="line"/>
      <point x="547" y="266" type="line"/>
      <point x="664" y="290" type="line"/>
      <point x="675" y="723" type="line"/>
      <point x="664" y="1088" type="line"/>
      <point x="537" y="1111" type="line"/>
      <point x="537" y="1209" type="line"/>
      <point x="1010" y="1209" type="line" smooth="yes"/>
      <point x="1168" y="1209"/>
      <point x="1321" y="1082"/>
      <point x="1321" y="968" type="qcurve" smooth="yes"/>
      <point x="1321" y="841"/>
      <point x="1134" y="664"/>
      <point x="1008" y="664" type="qcurve" smooth="yes"/>
      <point x="957" y="664"/>
      <point x="817" y="673"/>
      <point x="793" y="673" type="qcurve"/>
      <point x="793" y="758" type="line"/>
      <point x="950" y="758" type="line" smooth="yes"/>
      <point x="1069" y="758"/>
      <point x="1153" y="868"/>
      <point x="1153" y="959" type="qcurve" smooth="yes"/>
      <point x="1153" y="1039"/>
      <point x="1061" y="1108"/>
      <point x="958" y="1108" type="qcurve" smooth="yes"/>
      <point x="851" y="1108" type="line"/>
      <point x="830" y="1095" type="line"/>
      <point x="817" y="723" type="line"/>
      <point x="828" y="290" type="line"/>
      <point x="960" y="266" type="line"/>
      <point x="960" y="176" type="line"/>
    </contour>
    <contour>
      <point x="911" y="710" type="line"/>
      <point x="1062" y="738" type="line"/>
      <point x="1312" y="393" type="line" smooth="yes"/>
      <point x="1383" y="295"/>
      <point x="1478" y="266"/>
      <point x="1520" y="266" type="qcurve"/>
      <point x="1520" y="176" type="line"/>
      <point x="1329" y="176" type="line"/>
      <point x="1287" y="190" type="line"/>
    </contour>
  </outline>
</glyph>
<glyph name="degree" format="2">
  <advance width="788"/>
  <unicode hex="00B0"/>
  <outline>
    <contour>
      <point x="77" y="1243" type="qcurve" smooth="yes"/>
      <point x="77" y="1371"/>
      <point x="255" y="1560"/>
      <point x="394" y="1560" type="qcurve" smooth="yes"/>
      <point x="533" y="1560"/>
      <point x="711" y="1371"/>
      <point x="711" y="1243" type="qcurve" smooth="yes"/>
      <point x="711" y="1118"/>
      <point x="533" y="928"/>
      <point x="394" y="928" type="qcurve" smooth="yes"/>
      <point x="255" y="928"/>
      <point x="77" y="1118"/>
    </contour>
    <contour>
      <point x="198" y="1243" type="qcurve" smooth="yes"/>
      <point x="198" y="1167"/>
      <point x="309" y="1049"/>
      <point x="394" y="1049" type="qcurve" smooth="yes"/>
      <point x="480" y="1049"/>
      <point x="590" y="1167"/>
      <point x="590" y="1243" type="qcurve" smooth="yes"/>
      <point x="590" y="1323"/>
      <point x="480" y="1439"/>
      <point x="394" y="1439" type="qcurve" smooth="yes"/>
      <point x="309" y="1439"/>
      <point x="198" y="1323"/>
    </contour>
  </outline>
</glyph>
<glyph name="plusminus" format="2">
  <advance width="910"/>
  <unicode hex="00B1"/>
  <outline>
    <contour>
      <point x="55" y="556" type="line"/>
      <point x="55" y="725" type="line"/>
      <point x="855" y="725" type="line"/>
      <point x="855" y="556" type="line"/>
    </contour>
    <contour>
      <point x="366" y="240" type="line"/>
      <point x="366" y="1076" type="line"/>
      <point x="544" y="1076" type="line"/>
      <point x="544" y="240" type="line"/>
    </contour>
    <contour>
      <point x="59" y="14" type="line"/>
      <point x="59" y="176" type="line"/>
      <point x="851" y="176" type="line"/>
      <point x="851" y="14" type="line"/>
    </contour>
  </outline>
</glyph>
<glyph name="twosuperior" format="2">
  <advance width="724"/>
  <unicode hex="00B2"/>
  <outline>
    <contour>
      <point x="53" y="671" type="line"/>
      <point x="51" y="791" type="line"/>
      <point x="66" y="863"/>
      <point x="182" y="1013"/>
      <point x="305" y="1088" type="qcurve" smooth="yes"/>
      <point x="407" y="1149"/>
      <point x="463" y="1234"/>
      <point x="460" y="1298" type="qcurve" smooth="yes"/>
      <point x="458" y="1355"/>
      <point x="384" y="1409"/>
      <point x="336" y="1409" type="qcurve" smooth="yes"/>
      <point x="262" y="1409"/>
      <point x="168" y="1365"/>
      <point x="119" y="1315" type="qcurve"/>
      <point x="46" y="1398" type="line"/>
      <point x="96" y="1450"/>
      <point x="245" y="1520"/>
      <point x="370" y="1520" type="qcurve" smooth="yes"/>
      <point x="488" y="1520"/>
      <point x="658" y="1413"/>
      <point x="658" y="1312" type="qcurve" smooth="yes"/>
      <point x="658" y="1198"/>
      <point x="506" y="1055"/>
      <point x="417" y="1015" type="qcurve" smooth="yes"/>
      <point x="297" y="957"/>
      <point x="202" y="872"/>
      <point x="187" y="840" type="qcurve"/>
      <point x="187" y="814" type="line"/>
      <point x="675" y="814" type="line"/>
      <point x="675" y="671" type="line"/>
    </contour>
  </outline>
</glyph>
<glyph name="threesuperior" format="2">
  <advance width="679"/>
  <unicode hex="00B3"/>
  <outline>
    <contour>
      <point x="29" y="734" type="qcurve"/>
      <point x="78" y="827" type="line"/>
      <point x="130" y="787"/>
      <point x="226" y="755"/>
      <point x="295" y="755" type="qcurve" smooth="yes"/>
      <point x="364" y="755"/>
      <point x="445" y="825"/>
      <point x="445" y="908" type="qcurve" smooth="yes"/>
      <point x="445" y="989"/>
      <point x="328" y="1059"/>
      <point x="215" y="1059" type="qcurve" smooth="yes"/>
      <point x="188" y="1059" type="line"/>
      <point x="174" y="1154" type="line"/>
      <point x="228" y="1157" type="line" smooth="yes"/>
      <point x="332" y="1163"/>
      <point x="423" y="1240"/>
      <point x="423" y="1310" type="qcurve" smooth="yes"/>
      <point x="423" y="1364"/>
      <point x="368" y="1416"/>
      <point x="308" y="1416" type="qcurve" smooth="yes"/>
      <point x="247" y="1416"/>
      <point x="157" y="1385"/>
      <point x="107" y="1352" type="qcurve"/>
      <point x="67" y="1427" type="line"/>
      <point x="121" y="1472"/>
      <point x="257" y="1520"/>
      <point x="345" y="1520" type="qcurve" smooth="yes"/>
      <point x="471" y="1520"/>
      <point x="606" y="1418"/>
      <point x="606" y="1337" type="qcurve" smooth="yes"/>
      <point x="606" y="1252"/>
      <point x="492" y="1142"/>
      <point x="380" y="1118" type="qcurve"/>
      <point x="380" y="1114" type="line"/>
      <point x="496" y="1111"/>
      <point x="629" y="1001"/>
      <point x="629" y="905" type="qcurve" smooth="yes"/>
      <point x="629" y="783"/>
      <point x="462" y="649"/>
      <point x="315" y="649" type="qcurve" smooth="yes"/>
      <point x="230" y="649"/>
      <point x="81" y="692"/>
    </contour>
  </outline>
</glyph>
<glyph name="micro" format="2">
  <advance width="1156"/>
  <unicode hex="00B5"/>
  <outline>
    <contour>
      <point x="-15" y="-317" type="line"/>
      <point x="21" y="-295" type="line"/>
      <point x="60" y="-137"/>
      <point x="121" y="112"/>
      <point x="133" y="181" type="qcurve" smooth="yes"/>
      <point x="245" y="822" type="line"/>
      <point x="103" y="819" type="line"/>
      <point x="105" y="915" type="line"/>
      <point x="372" y="1002" type="line"/>
      <point x="417" y="1002" type="line"/>
      <point x="459" y="923" type="line"/>
      <point x="342" y="312" type="line" smooth="yes"/>
      <point x="326" y="232"/>
      <point x="374" y="167"/>
      <point x="440" y="167" type="qcurve" smooth="yes"/>
      <point x="521" y="167"/>
      <point x="702" y="285"/>
      <point x="755" y="352" type="qcurve"/>
      <point x="869" y="976" type="line"/>
      <point x="860" y="1000" type="line"/>
      <point x="1028" y="1021" type="line"/>
      <point x="1070" y="942" type="line"/>
      <point x="953" y="362" type="line"/>
      <point x="927" y="134" type="line"/>
      <point x="1063" y="134" type="line"/>
      <point x="1065" y="47" type="line"/>
      <point x="772" y="-15" type="line"/>
      <point x="730" y="76" type="line"/>
      <point x="738" y="215" type="line"/>
      <point x="671" y="136"/>
      <point x="469" y="23"/>
      <point x="382" y="23" type="qcurve" smooth="yes"/>
      <point x="353" y="23"/>
      <point x="310" y="36"/>
      <point x="288" y="48" type="qcurve"/>
      <point x="231" y="-274" type="line"/>
      <point x="377" y="-282" type="line"/>
      <point x="369" y="-371" type="line"/>
      <point x="8" y="-399" type="line"/>
    </contour>
  </outline>
</glyph>
<glyph name="periodcentered" format="2">
  <advance width="494"/>
  <unicode hex="00B7"/>
  <outline>
    <contour>
      <point x="91" y="674" type="qcurve" smooth="yes"/>
      <point x="91" y="737"/>
      <point x="179" y="830"/>
      <point x="247" y="830" type="qcurve" smooth="yes"/>
      <point x="315" y="830"/>
      <point x="403" y="737"/>
      <point x="403" y="674" type="qcurve" smooth="yes"/>
      <point x="403" y="612"/>
      <point x="315" y="519"/>
      <point x="247" y="519" type="qcurve" smooth="yes"/>
      <point x="179" y="519"/>
      <point x="91" y="612"/>
    </contour>
  </outline>
</glyph>
<glyph name="onesuperior" format="2">
  <advance width="646"/>
  <unicode hex="00B9"/>
  <outline>
    <contour>
      <point x="72" y="670" type="line"/>
      <point x="72" y="754" type="line"/>
      <point x="258" y="784" type="line"/>
      <point x="261" y="1109" type="line"/>
      <point x="258" y="1377" type="line"/>
      <point x="70" y="1396" type="line"/>
      <point x="70" y="1480" type="line"/>
      <point x="379" y="1513" type="line"/>
      <point x="411" y="1478" type="line"/>
      <point x="405" y="1109" type="line"/>
      <point x="407" y="784" type="line"/>
      <point x="594" y="754" type="line"/>
      <point x="594" y="670" type="line"/>
    </contour>
  </outline>
</glyph>
<glyph name="ordmasculine" format="2">
  <advance width="983"/>
  <unicode hex="00BA"/>
  <outline>
    <contour>
      <point x="46" y="1094" type="qcurve" smooth="yes"/>
      <point x="46" y="1280"/>
      <point x="286" y="1542"/>
      <point x="490" y="1542" type="qcurve" smooth="yes"/>
      <point x="694" y="1542"/>
      <point x="937" y="1297"/>
      <point x="937" y="1099" type="qcurve" smooth="yes"/>
      <point x="937" y="914"/>
      <point x="699" y="646"/>
      <point x="494" y="646" type="qcurve" smooth="yes"/>
      <point x="290" y="646"/>
      <point x="46" y="894"/>
    </contour>
    <contour>
      <point x="252" y="1111" type="qcurve" smooth="yes"/>
      <point x="252" y="954"/>
      <point x="383" y="732"/>
      <point x="488" y="732" type="qcurve" smooth="yes"/>
      <point x="601" y="732"/>
      <point x="726" y="934"/>
      <point x="726" y="1098" type="qcurve" smooth="yes"/>
      <point x="726" y="1250"/>
      <point x="595" y="1450"/>
      <point x="490" y="1450" type="qcurve" smooth="yes"/>
      <point x="376" y="1450"/>
      <point x="251" y="1269"/>
    </contour>
  </outline>
</glyph>
<glyph name="guillemotright" format="2">
  <advance width="1303"/>
  <unicode hex="00BB"/>
  <outline>
    <contour>
      <point x="1271" y="581" type="line"/>
      <point x="1187" y="532"/>
      <point x="690" y="225"/>
      <point x="618" y="181" type="qcurve" smooth="yes"/>
      <point x="548" y="136"/>
      <point x="467" y="231"/>
      <point x="532" y="280" type="qcurve" smooth="yes"/>
      <point x="619" y="344"/>
      <point x="961" y="569"/>
      <point x="993" y="592" type="qcurve"/>
      <point x="960" y="618"/>
      <point x="617" y="855"/>
      <point x="528" y="922" type="qcurve" smooth="yes"/>
      <point x="465" y="967"/>
      <point x="526" y="1068"/>
      <point x="599" y="1031" type="qcurve" smooth="yes"/>
      <point x="665" y="996"/>
      <point x="1196" y="668"/>
      <point x="1271" y="621" type="qcurve"/>
    </contour>
    <contour>
      <point x="802" y="581" type="line"/>
      <point x="718" y="532"/>
      <point x="221" y="225"/>
      <point x="149" y="181" type="qcurve" smooth="yes"/>
      <point x="79" y="136"/>
      <point x="-2" y="231"/>
      <point x="63" y="280" type="qcurve" smooth="yes"/>
      <point x="150" y="344"/>
      <point x="491" y="569"/>
      <point x="524" y="592" type="qcurve"/>
      <point x="491" y="618"/>
      <point x="148" y="855"/>
      <point x="59" y="922" type="qcurve" smooth="yes"/>
      <point x="-4" y="967"/>
      <point x="57" y="1068"/>
      <point x="130" y="1031" type="qcurve" smooth="yes"/>
      <point x="196" y="996"/>
      <point x="727" y="668"/>
      <point x="802" y="621" type="qcurve"/>
    </contour>
  </outline>
</glyph>
<glyph name="questiondown" format="2">
  <advance width="965"/>
  <unicode hex="00BF"/>
  <outline>
    <contour>
      <point x="738" y="1193" type="qcurve" smooth="yes"/>
      <point x="738" y="1130"/>
      <point x="651" y="1037"/>
      <point x="583" y="1037" type="qcurve" smooth="yes"/>
      <point x="514" y="1037"/>
      <point x="427" y="1130"/>
      <point x="427" y="1193" type="qcurve" smooth="yes"/>
      <point x="427" y="1255"/>
      <point x="514" y="1348"/>
      <point x="583" y="1348" type="qcurve" smooth="yes"/>
      <point x="651" y="1348"/>
      <point x="738" y="1255"/>
    </contour>
    <contour>
      <point x="942" y="97" type="qcurve" smooth="yes"/>
      <point x="942" y="-45"/>
      <point x="706" y="-214"/>
      <point x="488" y="-214" type="qcurve" smooth="yes"/>
      <point x="271" y="-214"/>
      <point x="16" y="-22"/>
      <point x="16" y="163" type="qcurve" smooth="yes"/>
      <point x="16" y="356"/>
      <point x="258" y="556"/>
      <point x="346" y="588" type="qcurve" smooth="yes"/>
      <point x="424" y="617"/>
      <point x="546" y="715"/>
      <point x="546" y="795" type="qcurve" smooth="yes"/>
      <point x="546" y="879" type="line"/>
      <point x="646" y="879" type="line"/>
      <point x="660" y="800" type="line" smooth="yes"/>
      <point x="673" y="725"/>
      <point x="575" y="566"/>
      <point x="463" y="502" type="qcurve" smooth="yes"/>
      <point x="373" y="451"/>
      <point x="232" y="324"/>
      <point x="232" y="184" type="qcurve" smooth="yes"/>
      <point x="232" y="50"/>
      <point x="391" y="-103"/>
      <point x="521" y="-103" type="qcurve" smooth="yes"/>
      <point x="643" y="-103"/>
      <point x="780" y="-17"/>
      <point x="780" y="37" type="qcurve" smooth="yes"/>
      <point x="780" y="67"/>
      <point x="656" y="126"/>
      <point x="654" y="178" type="qcurve" smooth="yes"/>
      <point x="651" y="221"/>
      <point x="717" y="288"/>
      <point x="781" y="288" type="qcurve" smooth="yes"/>
      <point x="852" y="288"/>
      <point x="942" y="190"/>
    </contour>
  </outline>
</glyph>
<glyph name="AE" format="2">
  <advance width="1835"/>
  <unicode hex="00C6"/>
  <anchor x="985" y="1500" name="top"/>
  <outline>
    <contour>
      <point x="-25" y="0" type="line"/>
      <point x="-25" y="148" type="line"/>
      <point x="176" y="183" type="line"/>
      <point x="359" y="539" type="line"/>
      <point x="749" y="1319" type="line"/>
      <point x="670" y="1338" type="line"/>
      <point x="670" y="1500" type="line"/>
      <point x="1683" y="1500" type="line"/>
      <point x="1683" y="1123" type="line"/>
      <point x="1573" y="1123" type="line"/>
      <point x="1538" y="1353" type="line"/>
      <point x="1121" y="1353" type="line"/>
      <point x="1092" y="1333" type="line"/>
      <point x="1090" y="783" type="line"/>
      <point x="1092" y="161" type="line"/>
      <point x="1122" y="138" type="line"/>
      <point x="1601" y="138" type="line"/>
      <point x="1677" y="408" type="line"/>
      <point x="1787" y="408" type="line"/>
      <point x="1747" y="0" type="line"/>
      <point x="683" y="0" type="line"/>
      <point x="683" y="148" type="line"/>
      <point x="873" y="185" type="line"/>
      <point x="875" y="783" type="line"/>
      <point x="873" y="1273" type="line"/>
      <point x="849" y="1292" type="line"/>
      <point x="470" y="504" type="line"/>
      <point x="323" y="178" type="line"/>
      <point x="460" y="148" type="line"/>
      <point x="460" y="0" type="line"/>
    </contour>
    <contour>
      <point x="377" y="448" type="line"/>
      <point x="433" y="567" type="line"/>
      <point x="670" y="552" type="line"/>
      <point x="670" y="448" type="line"/>
    </contour>
    <contour>
      <point x="670" y="552" type="line"/>
      <point x="978" y="568" type="line"/>
      <point x="978" y="448" type="line"/>
      <point x="670" y="448" type="line"/>
    </contour>
    <contour>
      <point x="1004" y="719" type="line"/>
      <point x="1004" y="844" type="line"/>
      <point x="1417" y="854" type="line"/>
      <point x="1452" y="1014" type="line"/>
      <point x="1562" y="1014" type="line"/>
      <point x="1562" y="549" type="line"/>
      <point x="1452" y="549" type="line"/>
      <point x="1417" y="709" type="line"/>
    </contour>
  </outline>
</glyph>
<glyph name="multiply" format="2">
  <advance width="907"/>
  <unicode hex="00D7"/>
  <outline>
    <contour>
      <point x="199" y="276" type="line"/>
      <point x="98" y="377" type="line"/>
      <point x="709" y="988" type="line"/>
      <point x="810" y="887" type="line"/>
    </contour>
    <contour>
      <point x="704" y="271" type="line"/>
      <point x="93" y="882" type="line"/>
      <point x="204" y="993" type="line"/>
      <point x="815" y="382" type="line"/>
    </contour>
  </outline>
</glyph>
<glyph name="Thorn" format="2">
  <advance width="1305"/>
  <unicode hex="00DE"/>
  <outline>
    <contour>
      <point x="70" y="0" type="line"/>
      <point x="70" y="148" type="line"/>
      <point x="260" y="185" type="line"/>
      <point x="262" y="754" type="line"/>
      <point x="260" y="1328" type="line"/>
      <point x="70" y="1362" type="line"/>
      <point x="70" y="1524" type="line"/>
      <point x="689" y="1524" type="line"/>
      <point x="689" y="1376" type="line"/>
      <point x="481" y="1336" type="line"/>
      <point x="479" y="1269" type="line"/>
      <point x="755" y="1269" type="line" smooth="yes"/>
      <point x="1008" y="1269"/>
      <point x="1272" y="1048"/>
      <point x="1272" y="831" type="qcurve" smooth="yes"/>
      <point x="1272" y="618"/>
      <point x="992" y="341"/>
      <point x="738" y="341" type="qcurve" smooth="yes"/>
      <point x="623" y="341"/>
      <point x="445" y="362"/>
      <point x="395" y="370" type="qcurve"/>
      <point x="407" y="521" type="line"/>
      <point x="466" y="508"/>
      <point x="581" y="499"/>
      <point x="683" y="499" type="qcurve" smooth="yes"/>
      <point x="855" y="499"/>
      <point x="1033" y="674"/>
      <point x="1033" y="830" type="qcurve" smooth="yes"/>
      <point x="1033" y="974"/>
      <point x="864" y="1116"/>
      <point x="703" y="1116" type="qcurve" smooth="yes"/>
      <point x="480" y="1116" type="line"/>
      <point x="478" y="763" type="line"/>
      <point x="480" y="180" type="line"/>
      <point x="689" y="148" type="line"/>
      <point x="689" y="0" type="line"/>
    </contour>
  </outline>
</glyph>
<glyph name="germandbls" format="2">
  <advance width="1374"/>
  <unicode hex="00DF"/>
  <outline>
    <contour>
      <point x="1108" y="1221" type="qcurve" smooth="yes"/>
      <point x="1108" y="1084"/>
      <point x="977" y="964"/>
      <point x="875" y="928" type="qcurve" smooth="yes"/>
      <point x="826" y="911"/>
      <point x="761" y="856"/>
      <point x="761" y="800" type="qcurve" smooth="yes"/>
      <point x="761" y="738"/>
      <point x="870" y="663"/>
      <point x="979" y="634" type="qcurve" smooth="yes"/>
      <point x="1150" y="589"/>
      <point x="1342" y="440"/>
      <point x="1342" y="294" type="qcurve" smooth="yes"/>
      <point x="1342" y="161"/>
      <point x="1143" y="-23"/>
      <point x="1000" y="-23" type="qcurve" smooth="yes"/>
      <point x="902" y="-23"/>
      <point x="773" y="31"/>
      <point x="717" y="73" type="qcurve"/>
      <point x="679" y="0" type="line"/>
      <point x="552" y="0" type="line"/>
      <point x="552" y="342" type="line"/>
      <point x="695" y="342" type="line"/>
      <point x="705" y="280" type="line" smooth="yes"/>
      <point x="720" y="194"/>
      <point x="864" y="88"/>
      <point x="957" y="88" type="qcurve" smooth="yes"/>
      <point x="1032" y="88"/>
      <point x="1151" y="177"/>
      <point x="1151" y="260" type="qcurve" smooth="yes"/>
      <point x="1151" y="344"/>
      <point x="1023" y="426"/>
      <point x="890" y="469" type="qcurve" smooth="yes"/>
      <point x="717" y="526"/>
      <point x="590" y="650"/>
      <point x="590" y="759" type="qcurve" smooth="yes"/>
      <point x="590" y="868"/>
      <point x="713" y="981"/>
      <point x="805" y="1019" type="qcurve" smooth="yes"/>
      <point x="887" y="1052"/>
      <point x="957" y="1138"/>
      <point x="957" y="1213" type="qcurve" smooth="yes"/>
      <point x="957" y="1296"/>
      <point x="845" y="1405"/>
      <point x="722" y="1405" type="qcurve" smooth="yes"/>
      <point x="572" y="1405"/>
      <point x="402" y="1244"/>
      <point x="404" y="1069" type="qcurve"/>
      <point x="408" y="527" type="line"/>
      <point x="421" y="45" type="line"/>
      <point x="392" y="0" type="line"/>
      <point x="52" y="0" type="line"/>
      <point x="52" y="136" type="line"/>
      <point x="204" y="171" type="line"/>
      <point x="206" y="527" type="line"/>
      <point x="209" y="1104" type="line" smooth="yes"/>
      <point x="210" y="1287"/>
      <point x="510" y="1518"/>
      <point x="720" y="1518" type="qcurve" smooth="yes"/>
      <point x="907" y="1518"/>
      <point x="1108" y="1355"/>
    </contour>
  </outline>
</glyph>
<glyph name="ae" format="2">
  <advance width="1634"/>
  <unicode hex="00E6"/>
  <anchor x="810" y="1000" name="top"/>
  <outline>
    <contour>
      <point x="52" y="247" type="qcurve" smooth="yes"/>
      <point x="52" y="384"/>
      <point x="358" y="573"/>
      <point x="707" y="621" type="qcurve"/>
      <point x="716" y="534" type="line"/>
      <point x="488" y="505"/>
      <point x="232" y="391"/>
      <point x="232" y="256" type="qcurve" smooth="yes"/>
      <point x="232" y="182"/>
      <point x="315" y="98"/>
      <point x="401" y="98" type="qcurve" smooth="yes"/>
      <point x="495" y="98"/>
      <point x="682" y="195"/>
      <point x="729" y="258" type="qcurve"/>
      <point x="714" y="287"/>
      <point x="688" y="426"/>
      <point x="688" y="486" type="qcurve" smooth="yes"/>
      <point x="688" y="617" type="line" smooth="yes"/>
      <point x="688" y="793"/>
      <point x="579" y="906"/>
      <point x="484" y="906" type="qcurve" smooth="yes"/>
      <point x="394" y="906"/>
      <point x="279" y="862"/>
      <point x="247" y="832" type="qcurve"/>
      <point x="268" y="811"/>
      <point x="292" y="767"/>
      <point x="295" y="747" type="qcurve" smooth="yes"/>
      <point x="302" y="708"/>
      <point x="258" y="653"/>
      <point x="216" y="653" type="qcurve" smooth="yes"/>
      <point x="174" y="653"/>
      <point x="122" y="730"/>
      <point x="122" y="795" type="qcurve" smooth="yes"/>
      <point x="122" y="888"/>
      <point x="339" y="1023"/>
      <point x="495" y="1023" type="qcurve" smooth="yes"/>
      <point x="629" y="1023"/>
      <point x="772" y="925"/>
      <point x="799" y="854" type="qcurve"/>
      <point x="805" y="854" type="line"/>
      <point x="839" y="913"/>
      <point x="1030" y="1022"/>
      <point x="1158" y="1022" type="qcurve" smooth="yes"/>
      <point x="1353" y="1022"/>
      <point x="1567" y="793"/>
      <point x="1587" y="588" type="qcurve"/>
      <point x="1587" y="528" type="line"/>
      <point x="825" y="528" type="line"/>
      <point x="825" y="624" type="line"/>
      <point x="1419" y="624" type="line"/>
      <point x="1401" y="763"/>
      <point x="1254" y="908"/>
      <point x="1142" y="908" type="qcurve" smooth="yes"/>
      <point x="1004" y="908"/>
      <point x="849" y="700"/>
      <point x="850" y="520" type="qcurve" smooth="yes"/>
      <point x="851" y="319"/>
      <point x="1052" y="108"/>
      <point x="1216" y="108" type="qcurve" smooth="yes"/>
      <point x="1319" y="108"/>
      <point x="1454" y="151"/>
      <point x="1499" y="188" type="qcurve"/>
      <point x="1550" y="128" type="line"/>
      <point x="1503" y="65"/>
      <point x="1327" y="-22"/>
      <point x="1196" y="-22" type="qcurve" smooth="yes"/>
      <point x="1022" y="-22"/>
      <point x="823" y="100"/>
      <point x="785" y="172" type="qcurve"/>
      <point x="732" y="110"/>
      <point x="496" y="-16"/>
      <point x="346" y="-16" type="qcurve" smooth="yes"/>
      <point x="195" y="-16"/>
      <point x="52" y="142"/>
    </contour>
  </outline>
</glyph>
<glyph name="eth" format="2">
  <advance width="1113"/>
  <unicode hex="00F0"/>
  <outline>
    <contour>
      <point x="42" y="490" type="qcurve" smooth="yes"/>
      <point x="42" y="707"/>
      <point x="320" y="1004"/>
      <point x="546" y="1004" type="qcurve" smooth="yes"/>
      <point x="773" y="1004"/>
      <point x="985" y="721"/>
      <point x="996" y="496" type="qcurve"/>
      <point x="849" y="496" type="line"/>
      <point x="867" y="661"/>
      <point x="706" y="888"/>
      <point x="553" y="888" type="qcurve" smooth="yes"/>
      <point x="411" y="888"/>
      <point x="260" y="690"/>
      <point x="260" y="510" type="qcurve" smooth="yes"/>
      <point x="261" y="329"/>
      <point x="420" y="87"/>
      <point x="551" y="88" type="qcurve" smooth="yes"/>
      <point x="701" y="89"/>
      <point x="855" y="363"/>
      <point x="855" y="621" type="qcurve" smooth="yes"/>
      <point x="855" y="981"/>
      <point x="544" y="1386"/>
      <point x="285" y="1486" type="qcurve"/>
      <point x="321" y="1584" type="line"/>
      <point x="684" y="1469"/>
      <point x="1072" y="952"/>
      <point x="1072" y="624" type="qcurve" smooth="yes"/>
      <point x="1072" y="325"/>
      <point x="803" y="-22"/>
      <point x="557" y="-22" type="qcurve" smooth="yes"/>
      <point x="327" y="-22"/>
      <point x="42" y="257"/>
    </contour>
    <contour>
      <point x="405" y="1214" type="line"/>
      <point x="827" y="1540" type="line"/>
      <point x="893" y="1451" type="line"/>
      <point x="472" y="1125" type="line"/>
    </contour>
  </outline>
</glyph>
<glyph name="divide" format="2">
  <advance width="966"/>
  <unicode hex="00F7"/>
  <outline>
    <contour>
      <point x="51" y="556" type="line"/>
      <point x="51" y="708" type="line"/>
      <point x="915" y="708" type="line"/>
      <point x="915" y="556" type="line"/>
    </contour>
    <contour>
      <point x="353" y="307" type="qcurve" smooth="yes"/>
      <point x="353" y="359"/>
      <point x="426" y="437"/>
      <point x="483" y="437" type="qcurve" smooth="yes"/>
      <point x="540" y="437"/>
      <point x="613" y="359"/>
      <point x="613" y="307" type="qcurve" smooth="yes"/>
      <point x="613" y="256"/>
      <point x="540" y="178"/>
      <point x="483" y="178" type="qcurve" smooth="yes"/>
      <point x="426" y="178"/>
      <point x="353" y="256"/>
    </contour>
    <contour>
      <point x="353" y="958" type="qcurve" smooth="yes"/>
      <point x="353" y="1010"/>
      <point x="426" y="1088"/>
      <point x="483" y="1088" type="qcurve" smooth="yes"/>
      <point x="540" y="1088"/>
      <point x="613" y="1010"/>
      <point x="613" y="958" type="qcurve" smooth="yes"/>
      <point x="613" y="907"/>
      <point x="540" y="829"/>
      <point x="483" y="829" type="qcurve" smooth="yes"/>
      <point x="426" y="829"/>
      <point x="353" y="907"/>
    </contour>
  </outline>
</glyph>
<glyph name="thorn" format="2">
  <advance width="1154"/>
  <unicode hex="00FE"/>
  <outline>
    <contour>
      <point x="33" y="-480" type="line"/>
      <point x="33" y="-344" type="line"/>
      <point x="162" y="-309" type="line"/>
      <point x="164" y="427" type="line"/>
      <point x="163" y="1320" type="line"/>
      <point x="13" y="1350" type="line"/>
      <point x="13" y="1502" type="line"/>
      <point x="311" y="1534" type="line"/>
      <point x="343" y="1534" type="line"/>
      <point x="371" y="1502" type="line"/>
      <point x="370" y="903" type="line"/>
      <point x="417" y="977"/>
      <point x="577" y="1069"/>
      <point x="689" y="1069" type="qcurve" smooth="yes"/>
      <point x="862" y="1069"/>
      <point x="1086" y="790"/>
      <point x="1086" y="555" type="qcurve" smooth="yes"/>
      <point x="1086" y="300"/>
      <point x="853" y="-12"/>
      <point x="657" y="-12" type="qcurve" smooth="yes"/>
      <point x="560" y="-12"/>
      <point x="410" y="51"/>
      <point x="368" y="94" type="qcurve"/>
      <point x="370" y="-309" type="line"/>
      <point x="507" y="-344" type="line"/>
      <point x="507" y="-480" type="line"/>
    </contour>
    <contour>
      <point x="368" y="271" type="line"/>
      <point x="397" y="212"/>
      <point x="525" y="126"/>
      <point x="611" y="126" type="qcurve" smooth="yes"/>
      <point x="729" y="126"/>
      <point x="864" y="344"/>
      <point x="864" y="532" type="qcurve" smooth="yes"/>
      <point x="864" y="711"/>
      <point x="730" y="913"/>
      <point x="616" y="913" type="qcurve" smooth="yes"/>
      <point x="530" y="913"/>
      <point x="406" y="829"/>
      <point x="368" y="765" type="qcurve"/>
      <point x="366" y="455" type="line"/>
    </contour>
  </outline>
</glyph>
<glyph name="idotless" format="2">
  <advance width="677"/>
  <unicode hex="0131"/>
  <anchor x="340" y="0" name="bottom"/>
  <anchor x="340" y="1049" name="top"/>
  <anchor x="541" y="0" name="ogonek"/>
  <outline>
    <contour>
      <point x="93" y="0" type="line"/>
      <point x="93" y="136" type="line"/>
      <point x="245" y="171" type="line"/>
      <point x="247" y="530" type="line"/>
      <point x="241" y="835" type="line"/>
      <point x="88" y="865" type="line"/>
      <point x="88" y="1016" type="line"/>
      <point x="388" y="1049" type="line"/>
      <point x="435" y="1049" type="line"/>
      <point x="458" y="1010" type="line"/>
      <point x="451" y="530" type="line"/>
      <point x="453" y="171" type="line"/>
      <point x="605" y="136" type="line"/>
      <point x="605" y="0" type="line"/>
    </contour>
  </outline>
</glyph>
<glyph name="kgreenlandic" format="2">
  <advance width="1196"/>
  <unicode hex="0138"/>
  <outline>
    <contour>
      <point x="88" y="0" type="line"/>
      <point x="88" y="136" type="line"/>
      <point x="214" y="171" type="line"/>
      <point x="216" y="552" type="line"/>
      <point x="214" y="878" type="line"/>
      <point x="88" y="913" type="line"/>
      <point x="88" y="1049" type="line"/>
      <point x="547" y="1049" type="line"/>
      <point x="547" y="913" type="line"/>
      <point x="422" y="878" type="line"/>
      <point x="420" y="532" type="line"/>
      <point x="422" y="171" type="line"/>
      <point x="547" y="136" type="line"/>
      <point x="547" y="0" type="line"/>
    </contour>
    <contour>
      <point x="507" y="474" type="line"/>
      <point x="507" y="615" type="line"/>
      <point x="754" y="873" type="line"/>
      <point x="685" y="913" type="line"/>
      <point x="698" y="1049" type="line"/>
      <point x="1083" y="1049" type="line"/>
      <point x="1083" y="913" type="line"/>
      <point x="894" y="868" type="line"/>
    </contour>
    <contour>
      <point x="495" y="586" type="line"/>
      <point x="677" y="681" type="line"/>
      <point x="1010" y="171" type="line"/>
      <point x="1160" y="136" type="line"/>
      <point x="1160" y="0" type="line"/>
      <point x="767" y="0" type="line"/>
      <point x="738" y="135" type="line"/>
      <point x="771" y="167" type="line"/>
    </contour>
  </outline>
</glyph>
<glyph name="OE" format="2">
  <advance width="2139"/>
  <unicode hex="0152"/>
  <outline>
    <contour>
      <point x="80" y="737" type="qcurve" smooth="yes"/>
      <point x="80" y="1068"/>
      <point x="495" y="1518"/>
      <point x="848" y="1518" type="qcurve" smooth="yes"/>
      <point x="912" y="1518"/>
      <point x="1191" y="1500"/>
      <point x="1251" y="1500" type="qcurve" smooth="yes"/>
      <point x="1987" y="1500" type="line"/>
      <point x="1987" y="1123" type="line"/>
      <point x="1877" y="1123" type="line"/>
      <point x="1842" y="1353" type="line"/>
      <point x="1379" y="1353" type="line"/>
      <point x="1350" y="1333" type="line"/>
      <point x="1348" y="783" type="line"/>
      <point x="1350" y="162" type="line"/>
      <point x="1380" y="138" type="line"/>
      <point x="1905" y="138" type="line"/>
      <point x="1981" y="408" type="line"/>
      <point x="2091" y="408" type="line"/>
      <point x="2051" y="0" type="line"/>
      <point x="1311" y="0" type="line" smooth="yes"/>
      <point x="1248" y="0"/>
      <point x="942" y="-26"/>
      <point x="853" y="-26" type="qcurve" smooth="yes"/>
      <point x="507" y="-26"/>
      <point x="80" y="396"/>
    </contour>
    <contour>
      <point x="312" y="769" type="qcurve" smooth="yes"/>
      <point x="312" y="497"/>
      <point x="605" y="143"/>
      <point x="855" y="143" type="qcurve" smooth="yes"/>
      <point x="933" y="143"/>
      <point x="1073" y="157"/>
      <point x="1131" y="171" type="qcurve"/>
      <point x="1133" y="780" type="line"/>
      <point x="1131" y="1317" type="line"/>
      <point x="1093" y="1322"/>
      <point x="930" y="1343"/>
      <point x="855" y="1343" type="qcurve" smooth="yes"/>
      <point x="582" y="1343"/>
      <point x="312" y="1031"/>
    </contour>
    <contour>
      <point x="1262" y="719" type="line"/>
      <point x="1262" y="844" type="line"/>
      <point x="1696" y="854" type="line"/>
      <point x="1731" y="1014" type="line"/>
      <point x="1841" y="1014" type="line"/>
      <point x="1841" y="549" type="line"/>
      <point x="1731" y="549" type="line"/>
      <point x="1696" y="709" type="line"/>
    </contour>
  </outline>
</glyph>
<glyph name="oe" format="2">
  <advance width="2004"/>
  <unicode hex="0153"/>
  <outline>
    <contour>
      <point x="64" y="500" type="qcurve" smooth="yes"/>
      <point x="64" y="717"/>
      <point x="368" y="1022"/>
      <point x="615" y="1022" type="qcurve" smooth="yes"/>
      <point x="795" y="1022"/>
      <point x="1030" y="881"/>
      <point x="1072" y="806" type="qcurve"/>
      <point x="1085" y="806" type="line"/>
      <point x="1115" y="884"/>
      <point x="1312" y="1022"/>
      <point x="1466" y="1022" type="qcurve" smooth="yes"/>
      <point x="1674" y="1022"/>
      <point x="1910" y="793"/>
      <point x="1931" y="588" type="qcurve"/>
      <point x="1931" y="528" type="line"/>
      <point x="1121" y="528" type="line"/>
      <point x="1121" y="624" type="line"/>
      <point x="1729" y="624" type="line"/>
      <point x="1712" y="753"/>
      <point x="1564" y="888"/>
      <point x="1452" y="888" type="qcurve" smooth="yes"/>
      <point x="1314" y="888"/>
      <point x="1162" y="691"/>
      <point x="1163" y="518" type="qcurve" smooth="yes"/>
      <point x="1164" y="330"/>
      <point x="1362" y="129"/>
      <point x="1536" y="129" type="qcurve" smooth="yes"/>
      <point x="1639" y="129"/>
      <point x="1781" y="171"/>
      <point x="1834" y="211" type="qcurve"/>
      <point x="1894" y="134" type="line"/>
      <point x="1843" y="68"/>
      <point x="1647" y="-22"/>
      <point x="1500" y="-22" type="qcurve" smooth="yes"/>
      <point x="1349" y="-22"/>
      <point x="1096" y="115"/>
      <point x="1051" y="206" type="qcurve"/>
      <point x="1047" y="206" type="line"/>
      <point x="1022" y="123"/>
      <point x="787" y="-22"/>
      <point x="622" y="-22" type="qcurve" smooth="yes"/>
      <point x="374" y="-22"/>
      <point x="64" y="267"/>
    </contour>
    <contour>
      <point x="283" y="520" type="qcurve" smooth="yes"/>
      <point x="284" y="354"/>
      <point x="468" y="124"/>
      <point x="619" y="124" type="qcurve" smooth="yes"/>
      <point x="781" y="124"/>
      <point x="957" y="334"/>
      <point x="957" y="508" type="qcurve" smooth="yes"/>
      <point x="957" y="667"/>
      <point x="773" y="875"/>
      <point x="621" y="875" type="qcurve" smooth="yes"/>
      <point x="457" y="875"/>
      <point x="282" y="686"/>
    </contour>
  </outline>
</glyph>
<glyph name="Schwa" format="2">
  <advance width="1524"/>
  <unicode hex="018F"/>
  <outline>
    <contour>
      <point x="64" y="1199" type="line"/>
      <point x="170" y="1357"/>
      <point x="476" y="1519"/>
      <point x="703" y="1519" type="qcurve" smooth="yes"/>
      <point x="1057" y="1519"/>
      <point x="1444" y="1094"/>
      <point x="1444" y="789" type="qcurve" smooth="yes"/>
      <point x="1444" y="445"/>
      <point x="1042" y="-30"/>
      <point x="726" y="-30" type="qcurve" smooth="yes"/>
      <point x="425" y="-30"/>
      <point x="100" y="284"/>
      <point x="100" y="578" type="qcurve" smooth="yes"/>
      <point x="100" y="710" type="line"/>
      <point x="1196" y="710" type="line"/>
      <point x="1226" y="551" type="line"/>
      <point x="702" y="559" type="line"/>
      <point x="335" y="553" type="line"/>
      <point x="335" y="485" type="line" smooth="yes"/>
      <point x="335" y="330"/>
      <point x="540" y="127"/>
      <point x="739" y="127" type="qcurve" smooth="yes"/>
      <point x="949" y="127"/>
      <point x="1214" y="474"/>
      <point x="1212" y="750" type="qcurve" smooth="yes"/>
      <point x="1210" y="1033"/>
      <point x="889" y="1346"/>
      <point x="673" y="1346" type="qcurve" smooth="yes"/>
      <point x="489" y="1346"/>
      <point x="237" y="1211"/>
      <point x="166" y="1100" type="qcurve"/>
    </contour>
  </outline>
</glyph>
<glyph name="florin" format="2">
  <advance width="636"/>
  <unicode hex="0192"/>
  <outline>
    <contour>
      <point x="424" y="-75" type="line" smooth="yes"/>
      <point x="426" y="-174"/>
      <point x="286" y="-309"/>
      <point x="180" y="-309" type="qcurve" smooth="yes"/>
      <point x="141" y="-309"/>
      <point x="66" y="-302"/>
      <point x="35" y="-295" type="qcurve" smooth="yes"/>
      <point x="13" y="-290" type="line"/>
      <point x="29" y="-184" type="line"/>
      <point x="50" y="-190" type="line" smooth="yes"/>
      <point x="58" y="-192"/>
      <point x="87" y="-197"/>
      <point x="102" y="-197" type="qcurve" smooth="yes"/>
      <point x="163" y="-197"/>
      <point x="230" y="-117"/>
      <point x="228" y="-43" type="qcurve" smooth="yes"/>
      <point x="209" y="860" type="line"/>
      <point x="27" y="872" type="line"/>
      <point x="18" y="966" type="line"/>
      <point x="201" y="984" type="line"/>
      <point x="195" y="1304" type="line" smooth="yes"/>
      <point x="193" y="1403"/>
      <point x="335" y="1518"/>
      <point x="441" y="1518" type="qcurve" smooth="yes"/>
      <point x="478" y="1518"/>
      <point x="557" y="1510"/>
      <point x="585" y="1504" type="qcurve" smooth="yes"/>
      <point x="607" y="1499" type="line"/>
      <point x="591" y="1393" type="line"/>
      <point x="570" y="1399" type="line" smooth="yes"/>
      <point x="562" y="1401"/>
      <point x="534" y="1406"/>
      <point x="519" y="1406" type="qcurve" smooth="yes"/>
      <point x="458" y="1406"/>
      <point x="390" y="1342"/>
      <point x="393" y="1269" type="qcurve" smooth="yes"/>
      <point x="405" y="985" type="line"/>
      <point x="599" y="985" type="line"/>
      <point x="599" y="883" type="line"/>
      <point x="405" y="872" type="line"/>
    </contour>
  </outline>
</glyph>
<glyph name="schwa" format="2">
  <advance width="1124"/>
  <unicode hex="0259"/>
  <outline>
    <contour>
      <point x="1060" y="500" type="qcurve" smooth="yes"/>
      <point x="1060" y="284"/>
      <point x="778" y="-22"/>
      <point x="545" y="-22" type="qcurve" smooth="yes"/>
      <point x="334" y="-22"/>
      <point x="93" y="207"/>
      <point x="72" y="412" type="qcurve"/>
      <point x="72" y="483" type="line"/>
      <point x="757" y="483" type="line"/>
      <point x="761" y="376" type="line"/>
      <point x="275" y="376" type="line"/>
      <point x="292" y="246"/>
      <point x="440" y="112"/>
      <point x="552" y="112" type="qcurve" smooth="yes"/>
      <point x="690" y="112"/>
      <point x="842" y="309"/>
      <point x="841" y="480" type="qcurve" smooth="yes"/>
      <point x="840" y="670"/>
      <point x="641" y="871"/>
      <point x="467" y="871" type="qcurve" smooth="yes"/>
      <point x="365" y="871"/>
      <point x="222" y="829"/>
      <point x="170" y="789" type="qcurve"/>
      <point x="110" y="866" type="line"/>
      <point x="161" y="932"/>
      <point x="365" y="1022"/>
      <point x="528" y="1022" type="qcurve" smooth="yes"/>
      <point x="765" y="1022"/>
      <point x="1060" y="750"/>
    </contour>
  </outline>
</glyph>
<glyph name="gravecomb" format="2">
  <advance width="427"/>
  <unicode hex="0300"/>
  <anchor x="213" y="1000" name="_top"/>
  <anchor x="213" y="1497" name="top"/>
  <outline>
    <contour>
      <point x="-31" y="1436" type="qcurve" smooth="yes"/>
      <point x="-31" y="1474"/>
      <point x="33" y="1522"/>
      <point x="72" y="1522" type="qcurve" smooth="yes"/>
      <point x="112" y="1522"/>
      <point x="198" y="1452"/>
      <point x="235" y="1412" type="qcurve" smooth="yes"/>
      <point x="408" y="1231" type="line"/>
      <point x="322" y="1144" type="line"/>
      <point x="60" y="1313" type="line" smooth="yes"/>
      <point x="15" y="1339"/>
      <point x="-31" y="1386"/>
    </contour>
  </outline>
</glyph>
<glyph name="acutecomb" format="2">
  <advance width="423"/>
  <unicode hex="0301"/>
  <anchor x="212" y="1000" name="_top"/>
  <anchor x="212" y="1524" name="top"/>
  <outline>
    <contour>
      <point x="456" y="1442" type="qcurve" smooth="yes"/>
      <point x="456" y="1392"/>
      <point x="409" y="1346"/>
      <point x="364" y="1318" type="qcurve" smooth="yes"/>
      <point x="94" y="1150" type="line"/>
      <point x="20" y="1226" type="line"/>
      <point x="190" y="1417" type="line" smooth="yes"/>
      <point x="225" y="1458"/>
      <point x="313" y="1527"/>
      <point x="353" y="1527" type="qcurve" smooth="yes"/>
      <point x="391" y="1527"/>
      <point x="456" y="1479"/>
    </contour>
  </outline>
</glyph>
<glyph name="circumflexcomb" format="2">
  <advance width="427"/>
  <unicode hex="0302"/>
  <anchor x="213" y="1000" name="_top"/>
  <anchor x="213" y="1539" name="top"/>
  <outline>
    <contour>
      <point x="213" y="1539" type="qcurve" smooth="yes"/>
      <point x="247" y="1539"/>
      <point x="292" y="1508"/>
      <point x="323" y="1466" type="qcurve" smooth="yes"/>
      <point x="526" y="1223" type="line"/>
      <point x="448" y="1150" type="line"/>
      <point x="213" y="1365" type="line"/>
      <point x="-22" y="1150" type="line"/>
      <point x="-100" y="1223" type="line"/>
      <point x="103" y="1466" type="line" smooth="yes"/>
      <point x="144" y="1515"/>
      <point x="179" y="1539"/>
    </contour>
  </outline>
</glyph>
<glyph name="tildecomb" format="2">
  <advance width="423"/>
  <unicode hex="0303"/>
  <anchor x="213" y="1000" name="_top"/>
  <anchor x="213" y="1402" name="top"/>
  <outline>
    <contour>
      <point x="-171" y="1234" type="line"/>
      <point x="-137" y="1297"/>
      <point x="1" y="1412"/>
      <point x="70" y="1412" type="qcurve" smooth="yes"/>
      <point x="113" y="1412"/>
      <point x="191" y="1383"/>
      <point x="229" y="1358" type="qcurve" smooth="yes"/>
      <point x="258" y="1341"/>
      <point x="353" y="1289"/>
      <point x="395" y="1289" type="qcurve" smooth="yes"/>
      <point x="436" y="1289"/>
      <point x="512" y="1342"/>
      <point x="535" y="1379" type="qcurve"/>
      <point x="599" y="1300" type="line"/>
      <point x="561" y="1224"/>
      <point x="432" y="1132"/>
      <point x="376" y="1132" type="qcurve" smooth="yes"/>
      <point x="327" y="1132"/>
      <point x="227" y="1177"/>
      <point x="196" y="1197" type="qcurve" smooth="yes"/>
      <point x="163" y="1219"/>
      <point x="81" y="1255"/>
      <point x="51" y="1255" type="qcurve" smooth="yes"/>
      <point x="3" y="1255"/>
      <point x="-83" y="1183"/>
      <point x="-101" y="1155" type="qcurve"/>
    </contour>
  </outline>
</glyph>
<glyph name="brevecomb" format="2">
  <advance width="427"/>
  <unicode hex="0306"/>
  <anchor x="213" y="1000" name="_top"/>
  <anchor x="213" y="1464" name="top"/>
  <outline>
    <contour>
      <point x="489" y="1463" type="qcurve"/>
      <point x="567" y="1410" type="line"/>
      <point x="554" y="1317"/>
      <point x="343" y="1143"/>
      <point x="214" y="1143" type="qcurve" smooth="yes"/>
      <point x="85" y="1143"/>
      <point x="-119" y="1297"/>
      <point x="-141" y="1407" type="qcurve"/>
      <point x="-59" y="1464" type="line"/>
      <point x="-27" y="1407"/>
      <point x="118" y="1301"/>
      <point x="215" y="1299" type="qcurve" smooth="yes"/>
      <point x="315" y="1301"/>
      <point x="462" y="1409"/>
    </contour>
  </outline>
</glyph>
<glyph name="dotaccentcomb" format="2">
  <advance width="423"/>
  <unicode hex="0307"/>
  <anchor x="212" y="1000" name="_top"/>
  <anchor x="212" y="1384" name="top"/>
  <outline>
    <contour>
      <point x="76" y="1254" type="qcurve" smooth="yes"/>
      <point x="76" y="1318"/>
      <point x="146" y="1386"/>
      <point x="212" y="1386" type="qcurve" smooth="yes"/>
      <point x="273" y="1386"/>
      <point x="347" y="1313"/>
      <point x="347" y="1254" type="qcurve" smooth="yes"/>
      <point x="347" y="1190"/>
      <point x="278" y="1122"/>
      <point x="212" y="1122" type="qcurve" smooth="yes"/>
      <point x="150" y="1122"/>
      <point x="76" y="1195"/>
    </contour>
  </outline>
</glyph>
<glyph name="dieresiscomb" format="2">
  <advance width="423"/>
  <unicode hex="0308"/>
  <anchor x="212" y="1000" name="_top"/>
  <anchor x="212" y="1327" name="top"/>
  <anchor x="227" y="1000" name="_GRKtop"/>
  <outline>
    <contour>
      <point x="314" y="1221" type="qcurve" smooth="yes"/>
      <point x="314" y="1279"/>
      <point x="378" y="1343"/>
      <point x="438" y="1343" type="qcurve" smooth="yes"/>
      <point x="494" y="1343"/>
      <point x="562" y="1275"/>
      <point x="562" y="1221" type="qcurve" smooth="yes"/>
      <point x="562" y="1163"/>
      <point x="499" y="1100"/>
      <point x="438" y="1100" type="qcurve" smooth="yes"/>
      <point x="381" y="1100"/>
      <point x="314" y="1166"/>
    </contour>
    <contour>
      <point x="-139" y="1221" type="qcurve" smooth="yes"/>
      <point x="-139" y="1279"/>
      <point x="-75" y="1343"/>
      <point x="-15" y="1343" type="qcurve" smooth="yes"/>
      <point x="42" y="1343"/>
      <point x="109" y="1275"/>
      <point x="109" y="1221" type="qcurve" smooth="yes"/>
      <point x="109" y="1163"/>
      <point x="46" y="1100"/>
      <point x="-15" y="1100" type="qcurve" smooth="yes"/>
      <point x="-71" y="1100"/>
      <point x="-139" y="1166"/>
    </contour>
  </outline>
</glyph>
<glyph name="hookabovecomb" format="2">
  <advance width="427"/>
  <unicode hex="0309"/>
  <anchor x="213" y="1000" name="_top"/>
  <anchor x="213" y="1597" name="top"/>
  <outline>
    <contour>
      <point x="97" y="1150" type="line"/>
      <point x="97" y="1233" type="line"/>
      <point x="176" y="1321" type="line"/>
      <point x="193" y="1315"/>
      <point x="225" y="1310"/>
      <point x="239" y="1310" type="qcurve" smooth="yes"/>
      <point x="280" y="1310"/>
      <point x="331" y="1354"/>
      <point x="331" y="1396" type="qcurve" smooth="yes"/>
      <point x="331" y="1436"/>
      <point x="276" y="1478"/>
      <point x="230" y="1478" type="qcurve" smooth="yes"/>
      <point x="183" y="1478"/>
      <point x="86" y="1454"/>
      <point x="47" y="1435" type="qcurve"/>
      <point x="3" y="1539" type="line"/>
      <point x="63" y="1565"/>
      <point x="176" y="1597"/>
      <point x="227" y="1597" type="qcurve" smooth="yes"/>
      <point x="335" y="1597"/>
      <point x="473" y="1492"/>
      <point x="473" y="1389" type="qcurve" smooth="yes"/>
      <point x="473" y="1304"/>
      <point x="379" y="1197"/>
      <point x="313" y="1197" type="qcurve" smooth="yes"/>
      <point x="288" y="1197"/>
      <point x="240" y="1206"/>
      <point x="224" y="1210" type="qcurve"/>
      <point x="224" y="1150" type="line"/>
    </contour>
  </outline>
</glyph>
<glyph name="ringcomb" format="2">
  <advance width="423"/>
  <unicode hex="030A"/>
  <anchor x="212" y="1000" name="_top"/>
  <anchor x="212" y="1565" name="top"/>
  <outline>
    <contour>
      <point x="-15" y="1347" type="qcurve" smooth="yes"/>
      <point x="-15" y="1438"/>
      <point x="117" y="1565"/>
      <point x="212" y="1565" type="qcurve" smooth="yes"/>
      <point x="307" y="1565"/>
      <point x="439" y="1438"/>
      <point x="439" y="1347" type="qcurve" smooth="yes"/>
      <point x="439" y="1256"/>
      <point x="307" y="1129"/>
      <point x="212" y="1129" type="qcurve" smooth="yes"/>
      <point x="117" y="1129"/>
      <point x="-15" y="1256"/>
    </contour>
    <contour>
      <point x="109" y="1347" type="qcurve" smooth="yes"/>
      <point x="109" y="1301"/>
      <point x="165" y="1244"/>
      <point x="212" y="1244" type="qcurve" smooth="yes"/>
      <point x="262" y="1244"/>
      <point x="315" y="1297"/>
      <point x="315" y="1347" type="qcurve" smooth="yes"/>
      <point x="315" y="1393"/>
      <point x="259" y="1450"/>
      <point x="212" y="1450" type="qcurve" smooth="yes"/>
      <point x="162" y="1450"/>
      <point x="109" y="1397"/>
    </contour>
  </outline>
</glyph>
<glyph name="hungarumlautcomb" format="2">
  <advance width="427"/>
  <unicode hex="030B"/>
  <anchor x="243" y="1000" name="_top"/>
  <anchor x="243" y="1534" name="top"/>
  <outline>
    <contour>
      <point x="247" y="1474" type="qcurve" smooth="yes"/>
      <point x="247" y="1427"/>
      <point x="204" y="1390"/>
      <point x="166" y="1357" type="qcurve" smooth="yes"/>
      <point x="-77" y="1150" type="line"/>
      <point x="-151" y="1226" type="line"/>
      <point x="28" y="1453" type="line" smooth="yes"/>
      <point x="60" y="1493"/>
      <point x="115" y="1552"/>
      <point x="152" y="1552" type="qcurve" smooth="yes"/>
      <point x="186" y="1552"/>
      <point x="247" y="1509"/>
    </contour>
    <contour>
      <point x="637" y="1474" type="qcurve" smooth="yes"/>
      <point x="637" y="1427"/>
      <point x="594" y="1390"/>
      <point x="556" y="1357" type="qcurve" smooth="yes"/>
      <point x="313" y="1150" type="line"/>
      <point x="239" y="1226" type="line"/>
      <point x="419" y="1453" type="line" smooth="yes"/>
      <point x="451" y="1493"/>
      <point x="505" y="1552"/>
      <point x="542" y="1552" type="qcurve" smooth="yes"/>
      <point x="576" y="1552"/>
      <point x="637" y="1509"/>
    </contour>
  </outline>
</glyph>
<glyph name="caroncomb" format="2">
  <advance width="427"/>
  <unicode hex="030C"/>
  <anchor x="213" y="1000" name="_top"/>
  <anchor x="213" y="1511" name="top"/>
  <outline>
    <contour>
      <point x="213" y="1122" type="qcurve" smooth="yes"/>
      <point x="179" y="1122"/>
      <point x="134" y="1153"/>
      <point x="103" y="1195" type="qcurve" smooth="yes"/>
      <point x="-100" y="1438" type="line"/>
      <point x="-22" y="1511" type="line"/>
      <point x="213" y="1296" type="line"/>
      <point x="448" y="1511" type="line"/>
      <point x="526" y="1438" type="line"/>
      <point x="323" y="1195" type="line" smooth="yes"/>
      <point x="282" y="1146"/>
      <point x="247" y="1122"/>
    </contour>
  </outline>
</glyph>
<glyph name="breveinvertedcomb" format="2">
  <advance width="427"/>
  <unicode hex="030F"/>
  <anchor x="213" y="1000" name="_top"/>
  <anchor x="213" y="1470" name="top"/>
  <outline>
    <contour>
      <point x="-61" y="1150" type="qcurve"/>
      <point x="-139" y="1203" type="line"/>
      <point x="-124" y="1296"/>
      <point x="87" y="1470"/>
      <point x="212" y="1470" type="qcurve"/>
      <point x="341" y="1470"/>
      <point x="552" y="1296"/>
      <point x="565" y="1203" type="qcurve"/>
      <point x="487" y="1150" type="line"/>
      <point x="460" y="1204"/>
      <point x="312" y="1314"/>
      <point x="213" y="1314" type="qcurve"/>
      <point x="116" y="1314"/>
      <point x="-32" y="1204"/>
    </contour>
  </outline>
</glyph>
